<svg width="35" height="35" viewBox="0 0 35 35" fill="none" xmlns="http://www.w3.org/2000/svg">
<g clip-path="url(#clip0_11_2482)">
<path d="M17.5 35C7.86232 35 0 27.1377 0 17.5C0 7.86232 7.86232 0 17.5 0C27.1377 0 35 7.86232 35 17.5C35 27.1377 27.1377 35 17.5 35ZM17.5 1.01449C8.42029 1.01449 1.01449 8.42029 1.01449 17.5C1.01449 26.5797 8.42029 33.9855 17.5 33.9855C26.5797 33.9855 33.9855 26.5797 33.9855 17.5C33.9855 8.42029 26.5797 1.01449 17.5 1.01449Z" fill="white"/>
<path d="M17.5 28.5325C11.4131 28.5325 6.46741 23.5869 6.46741 17.4999C6.46741 11.4129 11.4131 6.46729 17.5 6.46729C23.587 6.46729 28.5326 11.4129 28.5326 17.4999C28.5326 23.5869 23.587 28.5325 17.5 28.5325ZM17.5 6.97453C11.692 6.97453 6.97465 11.6919 6.97465 17.4999C6.97465 23.3079 11.692 28.0253 17.5 28.0253C23.308 28.0253 28.0254 23.3079 28.0254 17.4999C28.0254 11.6919 23.308 6.97453 17.5 6.97453Z" fill="white"/>
<path d="M17.5 27.4928C11.9964 27.4928 7.50726 23.0037 7.50726 17.5001C7.50726 11.9965 11.9964 7.50732 17.5 7.50732C23.0036 7.50732 27.4928 11.9965 27.4928 17.5001C27.4928 23.0037 23.0036 27.4928 17.5 27.4928ZM17.5 7.76095C12.1232 7.76095 7.76089 12.1233 7.76089 17.5001C7.76089 22.8769 12.1232 27.2392 17.5 27.2392C22.8768 27.2392 27.2392 22.8769 27.2392 17.5001C27.2392 12.1233 22.8768 7.76095 17.5 7.76095Z" fill="white"/>
<path d="M6.06158 25.5396C6.08694 25.5396 6.13767 25.5903 6.13767 25.6157C6.01086 25.7932 5.90941 26.0722 6.16303 26.3765C6.41665 26.6809 6.89854 26.833 7.40579 26.4019C7.93839 25.9707 7.91303 25.4381 7.65941 25.1338C7.40579 24.8294 7.10144 24.8548 6.87318 24.9309C6.82245 24.9309 6.82245 24.8801 6.82245 24.8548C6.99999 24.728 7.22825 24.6772 7.30434 24.6772C7.3297 24.7026 7.35506 24.728 7.40579 24.7533C7.45651 24.8041 7.65941 24.9309 7.78622 25.083C7.98912 25.3367 8.11593 25.5649 8.14129 25.8439C8.16665 26.1483 8.06521 26.478 7.76086 26.7316C7.48187 26.9599 7.15216 27.0106 6.84781 26.9599C6.56883 26.8838 6.28984 26.7062 6.08694 26.4526C5.96013 26.3004 5.85868 26.1229 5.7826 25.9707C5.75723 25.9454 5.75723 25.92 5.73187 25.8946C5.75723 25.8439 5.88405 25.7171 6.06158 25.5396Z" fill="white"/>
<path d="M5.60507 24.9309C5.32608 25.1084 5.32608 25.1338 5.37681 25.2606L5.40217 25.3113C5.40217 25.3367 5.35145 25.362 5.32608 25.362C5.27536 25.2606 5.19927 25.1338 5.12318 25.007L4.81884 24.4743C4.71739 24.2968 4.61594 24.1446 4.59058 24.1193C4.6413 24.0939 4.8442 23.9417 4.94565 23.8657C4.97101 23.8657 5.02174 23.9164 4.99637 23.9417C4.86956 24.0686 4.81884 24.17 4.8442 24.2461C4.86956 24.3222 4.89492 24.3983 4.94565 24.4743L5.0471 24.6519C5.12318 24.7787 5.12318 24.7787 5.27536 24.6772L5.73188 24.3983C5.80797 24.3475 5.80797 24.3475 5.75724 24.2968L5.68116 24.17C5.55434 23.9417 5.50362 23.891 5.37681 23.9417L5.27536 23.9671C5.25 23.9671 5.22463 23.9164 5.22463 23.8657C5.30072 23.8149 5.40217 23.7642 5.50362 23.7135C5.60507 23.6628 5.70652 23.5867 5.7826 23.5359C5.80797 23.5359 5.83333 23.5867 5.83333 23.612L5.73188 23.6881C5.63043 23.7642 5.65579 23.8149 5.7826 24.0686L5.85869 24.1954C5.88405 24.2461 5.90942 24.2461 5.96014 24.2207L6.31521 24.0178C6.46739 23.9417 6.54347 23.8657 6.56884 23.8149C6.5942 23.7642 6.5942 23.6881 6.44203 23.4599C6.23913 23.1048 6.13768 23.1048 5.85869 23.1301C5.83333 23.1048 5.80797 23.0541 5.83333 23.0287C5.96014 22.978 6.21376 22.9272 6.28985 22.9272C6.36594 23.0541 6.49275 23.2823 6.67029 23.612L6.84782 23.9164C6.92391 24.0432 7.02536 24.1954 7.10145 24.3222C7.10145 24.3475 7.05072 24.3729 7.02536 24.3729L6.94927 24.2714C6.87318 24.1446 6.84782 24.1193 6.54347 24.2968L5.60507 24.9309Z" fill="white"/>
<path d="M5.02171 21.0506C5.12316 21.0252 5.47824 20.873 5.55432 20.8477C5.60505 20.8477 5.63041 20.8984 5.63041 20.9237C5.57969 20.9998 5.5036 21.1266 5.35143 21.431L4.81882 22.4201C4.66664 22.6991 4.59056 22.8259 4.56519 22.902C4.56519 22.902 4.59056 22.902 4.76809 22.8513L5.35143 22.6484C5.57969 22.5723 5.85867 22.4708 5.9094 22.3948C5.93476 22.344 5.93476 22.2933 5.93476 22.2172L5.9094 22.1411C5.9094 22.1158 5.98548 22.0904 5.98548 22.1158C6.01085 22.2172 6.06157 22.344 6.11229 22.4708C6.16302 22.5977 6.18838 22.6737 6.23911 22.7752C6.23911 22.8006 6.18838 22.8259 6.16302 22.8006L6.11229 22.7498C6.08693 22.6991 6.06157 22.6484 5.98548 22.6484C5.88403 22.6484 5.63041 22.7245 5.37679 22.8259L4.66664 23.0795C4.43838 23.1556 4.38766 23.181 4.33693 23.3078C4.31157 23.3585 4.33693 23.4346 4.33693 23.4853V23.5361C4.33693 23.5614 4.26085 23.5868 4.23548 23.5614C4.21012 23.4346 4.13403 23.2824 4.10867 23.2064C4.08331 23.1556 4.05795 23.0795 4.03258 23.0035C4.13403 22.902 4.38766 22.4455 4.46374 22.2933L4.66664 21.8875C4.76809 21.71 4.97099 21.3295 4.97099 21.2788C4.97099 21.2788 4.94563 21.2788 4.8949 21.3042L4.31157 21.5071C4.08331 21.5832 3.80432 21.6846 3.7536 21.7861C3.72824 21.8368 3.72824 21.8875 3.72824 21.9636L3.7536 22.0397C3.7536 22.065 3.67751 22.0904 3.67751 22.065C3.65215 21.9382 3.60143 21.8368 3.5507 21.71C3.49998 21.5832 3.47461 21.5071 3.42389 21.4056C3.42389 21.3803 3.47461 21.3549 3.49998 21.3803L3.5507 21.431C3.57606 21.4817 3.60143 21.5324 3.67751 21.5324C3.77896 21.5324 4.03258 21.4564 4.28621 21.3549L5.02171 21.0506Z" fill="white"/>
<path d="M3.47463 19.9347C3.34782 19.9601 3.34782 19.9601 3.34782 20.0362L3.37318 20.2137C3.42391 20.4927 3.47463 20.5688 3.72825 20.6449C3.75362 20.6702 3.75362 20.721 3.72825 20.7463C3.55072 20.721 3.34782 20.6956 3.24637 20.6956L3.22101 20.6702V20.6449C3.29709 20.6195 3.29709 20.5688 3.24637 20.3659L3.04347 19.0978C3.01811 18.9456 2.99275 18.8949 2.91666 18.8695L2.8913 18.8442C2.8913 18.8188 2.8913 18.8188 2.8913 18.7934C3.01811 18.7934 3.29709 18.7934 3.39854 18.7681C3.42391 18.7681 3.44927 18.8442 3.42391 18.8695C3.19564 18.9456 3.14492 19.0217 3.19564 19.3514L3.22101 19.5289C3.24637 19.605 3.24637 19.605 3.37318 19.5797L4.71738 19.3514C5.04709 19.3007 5.04709 19.2753 5.04709 19.1231V18.9963C5.07246 18.971 5.12318 18.971 5.14854 18.9963C5.1739 19.1739 5.19927 19.326 5.22463 19.4528C5.24999 19.5797 5.27535 19.7318 5.30072 19.9347C5.30072 19.9601 5.22463 19.9855 5.19927 19.9601L5.1739 19.8333C5.14854 19.6811 5.12318 19.6557 4.79347 19.7065L3.47463 19.9347Z" fill="white"/>
<path d="M3.47462 17.9819C3.17027 17.9819 3.11955 17.9819 3.11955 18.1341V18.2101C3.09419 18.2355 3.04346 18.2355 3.0181 18.2101C2.99274 18.0072 2.99274 17.7536 2.99274 17.5C2.99274 17.2464 3.0181 17.0435 3.11955 16.8913C3.19564 16.7391 3.34781 16.6123 3.57607 16.6123C3.85506 16.6123 4.00723 16.8406 4.08332 16.9928C4.08332 17.0181 4.10868 17.0181 4.13404 16.9928C4.5652 16.7391 4.84419 16.587 4.971 16.4348C5.04708 16.3587 5.07245 16.2572 5.07245 16.2065C5.09781 16.1812 5.12317 16.1812 5.14853 16.2065C5.14853 16.2572 5.1739 16.308 5.1739 16.4094C5.1739 16.7138 5.04708 16.8659 4.74274 17.0688C4.61593 17.1449 4.43839 17.2464 4.31158 17.3225C4.21013 17.3732 4.21013 17.4239 4.21013 17.5254C4.21013 17.6268 4.21013 17.6268 4.28621 17.6268H4.69201C5.02172 17.6268 5.04708 17.6014 5.04708 17.4493V17.3732C5.07245 17.3478 5.12317 17.3478 5.14853 17.3732C5.14853 17.5 5.12317 17.6522 5.12317 17.8043C5.12317 17.9312 5.12317 18.0833 5.12317 18.2355C5.09781 18.2609 5.04708 18.2609 5.02172 18.2355V18.1594C4.99636 18.0072 4.99636 17.9819 4.66665 17.9819H3.47462ZM3.93114 17.6268C4.03259 17.6268 4.03259 17.6268 4.03259 17.4746C4.03259 17.1703 3.88042 17.0181 3.57607 17.0181C3.32245 17.0181 3.09419 17.1703 3.09419 17.4493C3.09419 17.6014 3.09419 17.6268 3.24636 17.6268H3.93114Z" fill="white"/>
<path d="M3.57609 15.6738C3.24638 15.6231 3.22102 15.6485 3.19566 15.7753L3.1703 15.826C3.14493 15.8514 3.09421 15.826 3.06885 15.8006C3.09421 15.6738 3.11957 15.547 3.14493 15.3948L3.24638 14.7861C3.27175 14.5832 3.29711 14.4057 3.29711 14.355C3.34783 14.355 3.60146 14.3803 3.72827 14.3803C3.75363 14.4057 3.75363 14.4564 3.72827 14.4818C3.55073 14.5072 3.44928 14.5325 3.39856 14.634C3.3732 14.7101 3.34783 14.7861 3.32247 14.8876L3.29711 15.0905C3.27175 15.2173 3.27175 15.2173 3.44928 15.268L3.98189 15.3695C4.05798 15.3948 4.05798 15.3695 4.08334 15.3187L4.1087 15.1666C4.15943 14.8876 4.15943 14.8369 4.03262 14.7861L3.93117 14.7354C3.9058 14.7101 3.93117 14.6593 3.95653 14.634C4.03262 14.6593 4.15943 14.6847 4.26088 14.6847C4.38769 14.7101 4.48914 14.7101 4.59059 14.7354C4.61595 14.7608 4.59059 14.8115 4.56522 14.8369H4.43841C4.3116 14.8369 4.28624 14.8876 4.23551 15.1666L4.21015 15.3187C4.21015 15.3948 4.21015 15.3948 4.28624 15.4202L4.69204 15.4963C4.84421 15.5216 4.97102 15.547 5.02175 15.4963C5.07247 15.4709 5.09783 15.4202 5.14856 15.1666C5.22464 14.7608 5.14856 14.6847 4.9203 14.5325C4.89493 14.5072 4.9203 14.4564 4.94566 14.4311C5.07247 14.4818 5.30073 14.5832 5.37682 14.634C5.35146 14.7608 5.30073 15.0398 5.22464 15.3948L5.17392 15.7499C5.14856 15.8767 5.1232 16.0796 5.09783 16.2318C5.07247 16.2572 5.02175 16.2572 4.99638 16.2318V16.105C4.99638 15.9528 4.99638 15.9274 4.66667 15.8767L3.57609 15.6738Z" fill="white"/>
<path d="M4.13406 11.8696C4.21015 11.6921 4.26088 11.5146 4.28624 11.4385C4.36233 11.4638 4.56522 11.5399 4.7174 11.5907C4.74276 11.616 4.7174 11.6667 4.69204 11.6921C4.5145 11.6414 4.41305 11.6667 4.33696 11.7682C4.28624 11.8443 4.26088 11.9204 4.21015 11.9964L4.15943 12.174C4.1087 12.3008 4.1087 12.3008 4.28624 12.3769L4.81885 12.5798C4.89493 12.6051 4.89493 12.6051 4.9203 12.5291L4.99638 12.3515C5.09783 12.0979 5.12319 12.0472 4.99638 11.9711L4.89493 11.9204C4.86957 11.895 4.89493 11.8443 4.9203 11.8443C4.99638 11.8696 5.09783 11.9204 5.19928 11.9711C5.30073 12.0218 5.42754 12.0472 5.50363 12.0725C5.52899 12.0979 5.50363 12.1486 5.47827 12.174L5.35146 12.1486C5.22464 12.1233 5.19928 12.174 5.09783 12.4276L5.02175 12.6051C4.99638 12.6812 4.99638 12.6812 5.07247 12.7066L5.47827 12.8588C5.78262 12.9856 5.80798 12.9602 5.88406 12.8334L5.96015 12.7066C5.98551 12.7066 6.03624 12.7066 6.03624 12.7573C5.96015 12.9349 5.90943 13.087 5.8587 13.2138C5.80798 13.3407 5.75725 13.4675 5.70653 13.6196C5.68117 13.645 5.63044 13.6196 5.63044 13.5943L5.6558 13.5182C5.68117 13.366 5.70653 13.3407 5.37682 13.2138L4.28624 12.7827C3.98189 12.6559 3.95653 12.6812 3.88044 12.808L3.85508 12.8334C3.82972 12.8334 3.77899 12.8334 3.77899 12.7827C3.82972 12.6812 3.88044 12.5544 3.93117 12.4276L4.13406 11.8696Z" fill="white"/>
<path d="M6.61959 9.56148C7.15219 9.89119 7.30437 10.5252 6.97466 11.0832C6.59422 11.6919 5.96017 11.7934 5.47828 11.489C4.92031 11.1593 4.76814 10.4999 5.09785 9.94191C5.47828 9.30785 6.11234 9.25713 6.61959 9.56148ZM5.60509 11.0579C5.98553 11.2861 6.59422 11.4383 6.87321 10.9818C7.05075 10.6774 6.97466 10.2716 6.44205 9.94191C6.03625 9.68829 5.45292 9.58684 5.17393 10.018C5.02176 10.297 5.02176 10.7028 5.60509 11.0579Z" fill="white"/>
<path d="M6.64494 8.6229C6.41668 8.42 6.39132 8.39464 6.26451 8.49609L6.21378 8.54681C6.18842 8.54681 6.1377 8.52145 6.1377 8.49609C6.26451 8.34391 6.44204 8.14101 6.59422 7.93812C6.77175 7.76058 6.92393 7.60841 7.0761 7.55768C7.25364 7.50696 7.43117 7.50696 7.60871 7.65913C7.83697 7.86203 7.78625 8.11565 7.73552 8.26783C7.73552 8.29319 7.76088 8.29319 7.78625 8.29319C8.26813 8.39464 8.57248 8.44536 8.77538 8.42C8.90219 8.39464 8.97827 8.34391 9.00364 8.31855C9.029 8.31855 9.05436 8.34391 9.05436 8.34391C9.029 8.36928 9.00364 8.42 8.92755 8.52145C8.72465 8.74971 8.52175 8.77507 8.16668 8.72435C8.01451 8.69899 7.81161 8.64826 7.6848 8.6229C7.58335 8.59754 7.53262 8.6229 7.4819 8.69899C7.40581 8.77507 7.43117 8.77507 7.45654 8.8258L7.76088 9.10478C8.01451 9.33304 8.03987 9.30768 8.14132 9.20623L8.19204 9.15551C8.21741 9.15551 8.26813 9.20623 8.26813 9.23159C8.16668 9.33304 8.06523 9.43449 7.98914 9.53594C7.8877 9.63739 7.81161 9.73884 7.71016 9.86565C7.6848 9.86565 7.63407 9.84029 7.63407 9.81493L7.6848 9.7642C7.76088 9.63739 7.78625 9.61203 7.53262 9.38377L6.64494 8.6229ZM7.22827 8.64826C7.30436 8.72435 7.30436 8.72435 7.40581 8.59754C7.60871 8.36928 7.60871 8.16638 7.38045 7.96348C7.20291 7.78594 6.92393 7.76058 6.74639 7.96348C6.64494 8.09029 6.64494 8.09029 6.74639 8.19174L7.22827 8.64826Z" fill="white"/>
<path d="M9.33336 5.55438C9.48553 5.42756 9.6377 5.32612 9.68843 5.27539C9.73915 5.32612 9.86596 5.52901 9.96741 5.63046C9.96741 5.65583 9.91669 5.70655 9.89133 5.70655C9.76452 5.57974 9.66307 5.52901 9.53625 5.57974C9.46017 5.6051 9.38408 5.65583 9.30799 5.70655L9.18118 5.808C9.07973 5.88409 9.07973 5.88409 9.18118 6.03626L9.51089 6.49278C9.56162 6.56887 9.56162 6.56887 9.61234 6.51814L9.76452 6.41669C9.99278 6.26452 10.0181 6.2138 9.96741 6.08698L9.91669 5.98554C9.91669 5.96017 9.96741 5.90945 9.99278 5.93481C10.0435 6.0109 10.0942 6.11235 10.1703 6.18843C10.2464 6.28988 10.3225 6.36597 10.3732 6.44206C10.3732 6.46742 10.3225 6.51814 10.2971 6.49278L10.1957 6.41669C10.0942 6.31525 10.0435 6.34061 9.81524 6.51814L9.66307 6.61959C9.61234 6.67032 9.61234 6.67032 9.66307 6.72104L9.91669 7.07612C10.1196 7.3551 10.1449 7.32974 10.2718 7.25365L10.3986 7.17756C10.4239 7.17756 10.4493 7.22829 10.4493 7.25365C10.2718 7.3551 10.1703 7.45655 10.0435 7.53264C9.94205 7.60872 9.81524 7.71017 9.68843 7.78626C9.66307 7.78626 9.61234 7.73554 9.6377 7.71017L9.68843 7.65945C9.78988 7.558 9.81524 7.53264 9.61234 7.25365L8.92756 6.28988C8.72466 6.0109 8.6993 6.03626 8.57249 6.08698L8.54712 6.11235C8.52176 6.11235 8.4964 6.06162 8.4964 6.03626C8.59785 5.98554 8.6993 5.88409 8.82611 5.808L9.33336 5.55438Z" fill="white"/>
<path d="M11.4131 6.18822C11.5652 6.49256 11.6159 6.4672 11.7428 6.41648L11.8188 6.39111C11.8442 6.39111 11.8696 6.44184 11.8696 6.4672C11.7428 6.51793 11.6159 6.59401 11.4891 6.6701C11.3623 6.74619 11.2355 6.82227 11.1087 6.89836C11.0833 6.89836 11.058 6.84764 11.058 6.82227L11.1087 6.77155C11.2355 6.6701 11.2609 6.6701 11.0833 6.36575L10.5254 5.3259C10.3732 5.02155 10.3225 5.04691 10.1957 5.09764L10.1196 5.123C10.0942 5.123 10.0688 5.07227 10.0688 5.04691C10.1957 4.99619 10.3225 4.9201 10.4493 4.84401C10.5761 4.76793 10.7029 4.69184 10.8044 4.64111C10.8297 4.64111 10.8551 4.69184 10.8551 4.7172L10.8044 4.76792C10.6775 4.86937 10.6522 4.86937 10.8297 5.17372L11.4131 6.18822Z" fill="white"/>
<path d="M11.7427 4.71738C11.6413 4.4384 11.6159 4.38767 11.4638 4.4384L11.3877 4.46376C11.3623 4.46376 11.3369 4.41304 11.3623 4.38767C11.5652 4.28622 11.7935 4.18478 12.0978 4.08333C12.3768 3.98188 12.5797 3.93115 12.8333 3.93115C13.2391 3.93115 13.6196 4.13405 13.7717 4.59057C13.8985 4.92028 13.8732 5.32608 13.5688 5.65579C13.3913 5.83333 13.163 5.9855 12.8841 6.08695C12.7065 6.16304 12.5543 6.1884 12.4529 6.23912C12.3514 6.28985 12.1993 6.34057 12.0725 6.3913C12.0471 6.3913 12.0217 6.34057 12.0217 6.31521L12.0725 6.28985C12.1993 6.21376 12.2246 6.1884 12.0978 5.88405L11.7427 4.71738ZM12.4529 5.55434C12.5543 5.83333 12.6304 5.9855 12.9601 5.85869C13.4927 5.65579 13.5942 5.19927 13.3913 4.69202C13.163 4.10869 12.7319 3.95651 12.2246 4.13405C12.0978 4.18478 12.0217 4.2355 11.9964 4.26086C11.971 4.28622 11.9964 4.36231 12.0471 4.48912L12.4529 5.55434Z" fill="white"/>
<path d="M14.3551 3.80433C14.3044 3.47462 14.279 3.47462 14.1268 3.47462H14.0761C14.0507 3.44925 14.0507 3.39853 14.0761 3.39853C14.2029 3.37317 14.3551 3.37317 14.4819 3.3478C14.6341 3.32244 14.7609 3.29708 14.8877 3.27172C14.913 3.27172 14.9384 3.32244 14.913 3.3478L14.837 3.37317C14.6848 3.42389 14.6594 3.42389 14.7101 3.7536L14.837 4.46375C14.913 4.89491 15.0906 5.22462 15.5471 5.17389C15.9529 5.0978 16.0797 4.76809 16.0036 4.28621L15.9275 3.90578C15.8768 3.67751 15.8261 3.37317 15.7754 3.29708C15.75 3.24636 15.6739 3.24636 15.5978 3.24636H15.5217C15.4964 3.22099 15.471 3.17027 15.5217 3.17027C15.6232 3.17027 15.75 3.14491 15.8768 3.11954C16.0036 3.09418 16.0797 3.06882 16.2065 3.04346C16.2319 3.04346 16.2572 3.09418 16.2319 3.11954L16.1558 3.14491C16.1051 3.17027 16.0544 3.19563 16.029 3.24636C16.0036 3.3478 16.0544 3.62679 16.0797 3.88041L16.1304 4.26085C16.1812 4.53983 16.1812 4.81882 16.0544 5.02172C15.9275 5.22462 15.6993 5.32607 15.471 5.35143C15.1667 5.40215 14.9638 5.37679 14.7862 5.24998C14.6341 5.14853 14.5326 4.92027 14.4565 4.61592L14.3551 3.80433Z" fill="white"/>
<path d="M18.7427 3.57601C18.7174 3.60137 18.6666 3.60137 18.6413 3.57601C18.5906 3.37311 18.4637 3.11949 18.0326 3.09412C17.6268 3.09412 17.221 3.37311 17.1956 4.00717C17.1703 4.69195 17.6014 5.02166 18.0072 5.02166C18.413 5.02166 18.5906 4.76804 18.6666 4.56514C18.7174 4.56514 18.7681 4.56514 18.7681 4.61586C18.7427 4.81876 18.6413 5.04702 18.6159 5.09775C18.5652 5.09775 18.5398 5.12311 18.5145 5.12311C18.4384 5.14847 18.2355 5.1992 18.0072 5.1992C17.7029 5.1992 17.4239 5.12311 17.1956 4.97094C16.942 4.7934 16.7645 4.51441 16.7645 4.08326C16.7645 3.70282 16.942 3.42384 17.1703 3.2463C17.3985 3.06876 17.7282 2.99268 18.0579 2.99268C18.2355 2.99268 18.4637 3.0434 18.6159 3.06876C18.6413 3.06876 18.6666 3.09412 18.692 3.09412C18.7174 3.14485 18.7174 3.34775 18.7427 3.57601Z" fill="white"/>
<path d="M19.6051 4.84427C19.5544 5.17398 19.5797 5.19934 19.7319 5.2247L19.808 5.25006C19.8333 5.27543 19.808 5.32615 19.7826 5.35151C19.6558 5.32615 19.5036 5.30079 19.3768 5.27543C19.25 5.25006 19.0978 5.2247 18.9457 5.2247C18.9203 5.19934 18.9203 5.14861 18.9457 5.12325H19.0217C19.1739 5.12325 19.1993 5.12325 19.25 4.79354L19.4275 3.62688C19.4783 3.29717 19.4529 3.2718 19.3007 3.24644L19.2246 3.22108C19.1993 3.19572 19.2246 3.14499 19.25 3.11963C19.3768 3.14499 19.529 3.17035 19.6812 3.19572C19.808 3.22108 19.9602 3.24644 20.087 3.24644C20.1123 3.2718 20.1123 3.32253 20.087 3.34789H20.0109C19.8587 3.34789 19.8333 3.34789 19.7826 3.6776L19.6051 4.84427Z" fill="white"/>
<path d="M20.7717 4.74278C20.6956 4.71742 20.6956 4.71742 20.6449 4.79351L20.4167 5.12322C20.3152 5.27539 20.3152 5.30075 20.4167 5.35148L20.4927 5.4022C20.5181 5.42756 20.4927 5.47829 20.4674 5.47829C20.3659 5.45293 20.2645 5.42757 20.1377 5.37684C20.0362 5.35148 19.9348 5.32612 19.8333 5.30075C19.808 5.27539 19.8333 5.22467 19.8587 5.1993H19.9601C20.0616 5.22467 20.0869 5.1993 20.163 5.09785C20.2138 5.02177 20.3152 4.92032 20.4167 4.76814L21.1522 3.80438C21.2282 3.72829 21.279 3.6522 21.279 3.60148C21.3804 3.60148 21.5326 3.52539 21.5326 3.52539C21.558 3.52539 21.558 3.55075 21.5833 3.57612C21.5833 3.72829 21.5833 3.88046 21.6087 4.03264L21.6848 5.42756C21.6848 5.65583 21.7101 5.68119 21.8623 5.75728L21.913 5.78264C21.9384 5.808 21.913 5.85872 21.8877 5.88409C21.7609 5.83336 21.6594 5.808 21.4819 5.75728C21.3551 5.73191 21.2029 5.68119 21.1014 5.65583C21.0761 5.63046 21.1014 5.57974 21.1268 5.55438H21.2029C21.3043 5.57974 21.3297 5.55438 21.3297 5.42756L21.3043 4.97104C21.3043 4.86959 21.279 4.86959 21.2029 4.84423L20.7717 4.74278ZM21.1775 4.71742C21.2536 4.74278 21.279 4.74278 21.279 4.6667L21.2536 4.2609C21.2536 4.08336 21.2536 4.03264 21.2282 4.00727C21.2029 4.03264 21.1522 4.08336 21.0761 4.21017L20.8478 4.53988C20.7971 4.61597 20.7971 4.61597 20.8732 4.64133L21.1775 4.71742Z" fill="white"/>
<path d="M22.8768 4.56535C23.0036 4.28637 23.029 4.261 22.9022 4.18492L22.8261 4.13419C22.8261 4.10883 22.8261 4.05811 22.8768 4.05811C23.0543 4.13419 23.308 4.23564 23.5362 4.33709C23.7645 4.43854 23.942 4.56535 24.0435 4.69216C24.1449 4.84434 24.1956 5.02187 24.0942 5.22477C23.9674 5.4784 23.7138 5.52912 23.5362 5.50376C23.5109 5.50376 23.5109 5.52912 23.5109 5.55448C23.5616 6.06173 23.5869 6.36608 23.663 6.54361C23.7138 6.64506 23.7898 6.69579 23.8152 6.72115C23.8152 6.74651 23.8152 6.77187 23.7898 6.77187C23.7391 6.77187 23.6884 6.74651 23.5869 6.69579C23.308 6.56897 23.2065 6.39144 23.1558 6.03637C23.1304 5.88419 23.1304 5.68129 23.1051 5.52912C23.1051 5.42767 23.0797 5.40231 22.9782 5.35158C22.9022 5.30086 22.8768 5.30086 22.8514 5.37695L22.6739 5.73202C22.5217 6.03637 22.5471 6.06173 22.6739 6.13782L22.7246 6.18854C22.7246 6.2139 22.6993 6.26463 22.6739 6.26463C22.5471 6.18854 22.4203 6.13782 22.2935 6.08709C22.1667 6.03637 22.0398 5.96028 21.913 5.90955C21.8877 5.88419 21.913 5.83347 21.9384 5.83347L22.0145 5.85883C22.1667 5.90955 22.192 5.90955 22.3188 5.60521L22.8768 4.56535ZM23.029 5.12332C22.9783 5.22477 22.9782 5.22477 23.1304 5.2755C23.4094 5.40231 23.6123 5.32622 23.7391 5.04724C23.8406 4.81897 23.7898 4.56535 23.5362 4.43854C23.384 4.36245 23.384 4.38782 23.308 4.51463L23.029 5.12332Z" fill="white"/>
<path d="M24.6014 6.56896C24.7029 6.41679 24.7282 6.36606 24.7282 6.18853L24.8297 5.35157C24.855 5.1994 24.855 5.14867 24.7536 5.04722L24.7029 4.9965C24.7029 4.97114 24.7282 4.92041 24.7536 4.92041C24.855 4.9965 24.9819 5.07258 25.0833 5.14867C25.2101 5.22476 25.3623 5.32621 25.413 5.37693C25.4384 5.40229 25.413 5.45302 25.3623 5.45302L25.2862 5.40229C25.2355 5.37693 25.2101 5.37693 25.2101 5.40229C25.1847 5.42766 25.1847 5.45302 25.1594 5.57983C25.1087 5.88418 25.0579 6.16316 25.0326 6.41679C25.2862 6.28998 25.4891 6.16316 25.7427 6.03635C25.8442 5.98563 25.9203 5.9349 25.9203 5.90954C25.9456 5.88418 25.9203 5.85882 25.8949 5.83345L25.8188 5.75737C25.8188 5.732 25.8442 5.68128 25.8695 5.68128C25.971 5.75737 26.0724 5.83345 26.1485 5.88418C26.2246 5.9349 26.3261 5.98563 26.4021 6.03635C26.4275 6.06171 26.3768 6.11244 26.3514 6.11244L26.2753 6.08708C26.1485 6.03635 26.0724 6.06171 25.7934 6.18853C25.5905 6.28998 25.4384 6.36606 25.2355 6.46751C25.0579 6.5436 25.0072 6.59432 24.8804 6.77186L24.779 6.92403C24.6014 7.20302 24.6014 7.22838 24.7282 7.32983L24.8297 7.40592C24.8297 7.43128 24.8043 7.482 24.779 7.482C24.6268 7.35519 24.5 7.27911 24.3985 7.20302C24.2717 7.12693 24.1449 7.05085 24.0181 6.9494C23.9927 6.92403 24.0434 6.87331 24.0688 6.87331L24.1703 6.92403C24.2971 7.00012 24.3224 7.00012 24.5253 6.72114L24.6014 6.56896Z" fill="white"/>
<path d="M27.2138 7.40579C27.4674 7.17753 27.442 7.15217 27.3659 7.02535L27.3406 6.97463C27.3406 6.94927 27.3913 6.89854 27.4167 6.9239C27.4928 7.02535 27.5942 7.1268 27.6957 7.22825L28.1268 7.65941C28.279 7.81159 28.4058 7.9384 28.4312 7.96376C28.4058 8.01448 28.2283 8.19202 28.1522 8.29347C28.1268 8.29347 28.0761 8.26811 28.0761 8.21738C28.1775 8.06521 28.2029 7.96376 28.1522 7.86231C28.1268 7.78622 28.0507 7.71014 28 7.65941L27.8478 7.50724C27.7464 7.40579 27.7464 7.40579 27.6196 7.5326L27.2391 7.91304C27.1884 7.96376 27.1884 7.96376 27.2391 8.03985L27.3406 8.1413C27.5435 8.34419 27.5688 8.36956 27.6957 8.29347L27.7971 8.24275C27.8225 8.24275 27.8732 8.29347 27.8732 8.31883C27.7971 8.36956 27.721 8.44564 27.6449 8.52173C27.5688 8.59782 27.4928 8.6739 27.4167 8.74999C27.3913 8.74999 27.3406 8.69927 27.3406 8.6739L27.4167 8.57246C27.4928 8.47101 27.4674 8.42028 27.2645 8.21738L27.163 8.11593C27.1123 8.06521 27.1123 8.06521 27.0362 8.11593L26.7572 8.39492C26.6304 8.49637 26.5543 8.59782 26.5543 8.6739C26.5543 8.72463 26.5797 8.80072 26.7572 8.97825C27.0362 9.2826 27.1377 9.25724 27.4167 9.15579C27.442 9.15579 27.4928 9.20651 27.4674 9.23188C27.3659 9.30796 27.1377 9.43477 27.0362 9.46014C26.9348 9.35869 26.7572 9.15579 26.5036 8.8768L26.25 8.62318C26.1485 8.52173 26.0217 8.39492 25.9203 8.29347C25.9203 8.26811 25.9457 8.21738 25.971 8.21738L26.0725 8.29347C26.1993 8.39492 26.2246 8.39492 26.4529 8.16666L27.2138 7.40579Z" fill="white"/>
<path d="M28.7101 8.42035C28.7101 8.39499 28.7608 8.36963 28.7862 8.36963C28.8623 8.49644 28.9384 8.59789 29.0145 8.7247C29.1159 8.85151 29.192 8.97832 29.2427 9.05441C29.2427 9.07977 29.192 9.10514 29.1666 9.10514L29.1159 9.05441C29.0652 9.00369 29.0398 8.97832 29.0145 9.00369C28.9891 9.02905 28.9637 9.05441 28.9384 9.15586C28.8876 9.28267 28.7355 9.63774 28.7101 9.76456C28.8369 9.76456 29.3188 9.76456 29.4456 9.76456C29.4963 9.76456 29.5217 9.76456 29.5471 9.73919C29.5724 9.71383 29.5471 9.68847 29.5217 9.63774L29.4963 9.56166C29.4963 9.5363 29.5471 9.48557 29.5724 9.51093C29.6485 9.61238 29.6992 9.68847 29.75 9.78992C29.8007 9.86601 29.8514 9.94209 29.9275 10.0435C29.9275 10.0689 29.9021 10.0943 29.8514 10.0943L29.7753 10.0182C29.6739 9.91673 29.6232 9.91673 29.3949 9.89137C29.192 9.86601 28.9637 9.86601 28.7608 9.86601C28.7101 9.86601 28.6594 9.86601 28.6594 9.89137C28.634 9.89137 28.634 9.91673 28.6087 9.99282C28.4818 10.2972 28.355 10.6269 28.2789 10.8551C28.2282 11.0073 28.2282 11.0834 28.3043 11.1848L28.3297 11.2609C28.3297 11.2863 28.2789 11.3117 28.2536 11.3117C28.1775 11.1848 28.1014 11.058 28 10.9312C27.8985 10.8044 27.8224 10.703 27.7463 10.5762C27.7463 10.5508 27.7971 10.5001 27.8224 10.5254L27.8985 10.6015C27.9239 10.6269 27.9492 10.6522 27.9746 10.6269C28 10.6269 28.0253 10.5762 28.076 10.4493L28.1014 10.3479C28.1521 10.2211 28.2282 10.0435 28.3043 9.84064C28.1014 9.84064 27.7717 9.84064 27.5434 9.84064C27.4927 9.84064 27.4674 9.84064 27.442 9.86601C27.4166 9.86601 27.442 9.91673 27.4674 9.96745L27.4927 10.0435C27.4927 10.0689 27.442 10.1196 27.4166 10.0943C27.3659 9.99282 27.2898 9.89137 27.2137 9.78992C27.163 9.71383 27.0869 9.61238 27.0362 9.5363C27.0362 9.51093 27.0869 9.48557 27.1123 9.48557L27.163 9.5363C27.2645 9.63774 27.3405 9.66311 27.5434 9.68847C27.6703 9.68847 28 9.71383 28.2789 9.71383C28.3297 9.71383 28.3804 9.71383 28.3804 9.68847C28.4058 9.68847 28.4058 9.66311 28.4311 9.61238C28.5326 9.35876 28.6594 9.02905 28.7355 8.82615C28.7862 8.67398 28.8116 8.57253 28.7608 8.49644L28.7101 8.42035Z" fill="white"/>
<path d="M30.5109 12.4274C30.4855 12.4274 30.4601 12.3767 30.4601 12.3259C30.6123 12.1991 30.7899 11.9455 30.6123 11.5651C30.4348 11.21 30.0036 10.9564 29.4203 11.2354C28.8116 11.5143 28.6848 12.0469 28.8623 12.4274C29.0399 12.7825 29.3442 12.8332 29.5725 12.8332C29.6232 12.8585 29.6232 12.9093 29.5978 12.9346C29.3949 13.0107 29.1667 13.0107 29.0906 13.0107C29.0652 12.9854 29.0399 12.96 29.0145 12.9346C28.9638 12.8839 28.8116 12.7064 28.7355 12.5288C28.6087 12.2498 28.5326 11.9709 28.5833 11.7172C28.6341 11.4129 28.8116 11.1085 29.1667 10.931C29.4964 10.7788 29.8261 10.8042 30.1051 10.931C30.3587 11.0578 30.587 11.3114 30.7138 11.6158C30.7899 11.768 30.8659 11.9962 30.8913 12.1484C30.8913 12.1991 30.9167 12.1991 30.9167 12.2245C30.8659 12.1991 30.7138 12.3006 30.5109 12.4274Z" fill="white"/>
<path d="M30.8152 13.1122C31.1449 13.0107 31.1449 12.9853 31.1196 12.8332V12.7825C31.1449 12.7571 31.1956 12.7317 31.221 12.7571C31.2464 12.8839 31.2971 13.0107 31.3225 13.1629L31.5 13.7462C31.5507 13.9491 31.6014 14.1267 31.6268 14.152C31.5761 14.1774 31.3478 14.2788 31.221 14.3296C31.1956 14.3296 31.1703 14.2535 31.1703 14.2281C31.3225 14.1267 31.3985 14.0506 31.3985 13.9491C31.3985 13.873 31.3732 13.7716 31.3478 13.6955L31.2971 13.4926C31.2717 13.3658 31.2464 13.3658 31.0688 13.4165L30.5616 13.5687C30.4855 13.594 30.4855 13.594 30.5109 13.6701L30.5616 13.8223C30.6377 14.0759 30.663 14.1267 30.7898 14.1267H30.8913C30.9167 14.152 30.942 14.2027 30.9167 14.2281C30.8406 14.2535 30.7138 14.2788 30.6123 14.3042C30.4855 14.3296 30.3841 14.3803 30.2826 14.4056C30.2572 14.4056 30.2319 14.3296 30.2572 14.3042L30.3841 14.2535C30.5109 14.2027 30.4855 14.152 30.4094 13.873L30.3587 13.7209C30.3333 13.6448 30.3333 13.6448 30.2572 13.6701L29.8768 13.7716C29.7246 13.8223 29.6232 13.8477 29.5725 13.9238C29.5471 13.9745 29.5217 14.0252 29.5978 14.2788C29.6993 14.6593 29.8007 14.71 30.0797 14.7353C30.1051 14.7607 30.1051 14.8114 30.0797 14.8368C29.9529 14.8622 29.6993 14.8622 29.5978 14.8368C29.5725 14.71 29.4964 14.431 29.3949 14.0759L29.2935 13.7209C29.2427 13.594 29.192 13.3911 29.1413 13.2643C29.1413 13.239 29.192 13.2136 29.2174 13.239L29.2681 13.3404C29.3188 13.4672 29.3442 13.4926 29.6739 13.4165L30.8152 13.1122Z" fill="white"/>
<path d="M30.2572 15.6485C30.1051 15.6738 29.9782 15.6992 29.9529 15.7499C29.9022 15.8006 29.9022 15.8514 29.9275 16.105C29.9782 16.4601 30.0036 16.5108 30.3333 16.6122C30.3587 16.6376 30.3587 16.6883 30.3333 16.7137C30.2065 16.7137 29.9529 16.663 29.8514 16.6376C29.8514 16.5108 29.8007 16.2318 29.75 15.8767L29.6993 15.547C29.6739 15.3948 29.6485 15.2427 29.6232 15.0905C29.6232 15.0651 29.6993 15.0398 29.7246 15.0651L29.75 15.1666C29.8007 15.3187 29.8007 15.3441 30.1304 15.2934L31.2971 15.1412C31.6268 15.0905 31.6268 15.0651 31.6268 14.913V14.8115C31.6268 14.7861 31.7029 14.7861 31.7282 14.8115C31.7536 14.9637 31.7536 15.1158 31.779 15.268C31.8043 15.3948 31.8297 15.547 31.8551 15.6738C31.8551 15.6992 31.779 15.7245 31.7536 15.6992L31.7282 15.6231C31.6775 15.4709 31.6775 15.4456 31.3478 15.4963L30.2572 15.6485Z" fill="white"/>
<path d="M30.384 17.4744C30.2318 17.4744 30.105 17.4744 30.0543 17.5251C30.0036 17.5505 29.9782 17.6012 29.9782 17.8548C29.9782 18.2099 29.9782 18.2606 30.3079 18.4128C30.3333 18.4381 30.3079 18.4889 30.2826 18.5142C30.1558 18.4889 29.9021 18.4128 29.826 18.3874C29.826 18.2606 29.8514 17.9816 29.8514 17.6265V17.2968C29.8514 17.1447 29.8514 16.9671 29.8514 16.8403C29.8768 16.8149 29.9275 16.8149 29.9529 16.8403L29.9782 16.9418C30.0036 17.0939 30.0036 17.1193 30.3333 17.1193L31.5253 17.1447C31.855 17.1447 31.855 17.1193 31.8804 16.9671L31.9058 16.891C31.9311 16.8657 31.9818 16.8657 32.0072 16.891C32.0072 17.0432 31.9818 17.1954 31.9818 17.3476C31.9818 17.4744 31.9818 17.6265 31.9818 17.7787C31.9565 17.8041 31.9058 17.8041 31.8804 17.7787V17.7026C31.855 17.5505 31.855 17.5251 31.5253 17.5251L30.384 17.4744Z" fill="white"/>
<path d="M31.4239 19.123C31.7536 19.1737 31.779 19.1484 31.8044 18.9962L31.8297 18.9455C31.8551 18.9201 31.9058 18.9455 31.9312 18.9708C31.9058 19.0976 31.8804 19.2245 31.8551 19.3766L31.7536 19.9853C31.7283 20.1882 31.7029 20.3658 31.7029 20.4165C31.6522 20.4165 31.3986 20.3911 31.2718 20.3911C31.2464 20.3658 31.2464 20.315 31.2718 20.2897C31.4493 20.2643 31.5507 20.2389 31.5761 20.1375C31.6015 20.0614 31.6268 19.9853 31.6522 19.8839L31.6776 19.681C31.7029 19.5542 31.7029 19.5542 31.5254 19.5288L30.9928 19.4527C30.9167 19.4527 30.9167 19.4527 30.8913 19.5034L30.866 19.6556C30.8152 19.9346 30.8152 19.9853 30.942 20.036L31.0435 20.0868C31.0689 20.1121 31.0435 20.1629 31.0181 20.1882C30.942 20.1629 30.8152 20.1375 30.7138 20.1375C30.587 20.1121 30.4855 20.1121 30.3841 20.0868C30.3587 20.0614 30.3841 20.0107 30.3841 19.9853H30.5109C30.6377 19.9853 30.6631 19.9346 30.7138 19.6556L30.7391 19.5034C30.7391 19.4274 30.7391 19.4274 30.6631 19.4274L30.2573 19.3766C30.1051 19.3513 29.9783 19.3513 29.9276 19.3766C29.8768 19.402 29.8515 19.4527 29.8007 19.7317C29.7247 20.1375 29.8007 20.2136 30.0544 20.3658C30.0797 20.3911 30.0544 20.4418 30.029 20.4672C29.9022 20.4165 29.6739 20.315 29.5978 20.2643C29.6232 20.1375 29.6739 19.8585 29.7247 19.5034L29.7754 19.1484C29.8007 19.0216 29.8261 18.8187 29.8515 18.6665C29.8768 18.6411 29.9275 18.6411 29.9529 18.6665V18.7933C29.9529 18.9455 29.9529 18.9708 30.2826 19.0216L31.4239 19.123Z" fill="white"/>
<path d="M29.4203 22.5219C29.3188 22.4965 28.9638 22.3697 28.8877 22.3443C28.8623 22.319 28.8623 22.2683 28.8877 22.2175C28.9638 22.1922 29.0906 22.1415 29.4203 22.0146L30.4601 21.5835C30.7391 21.4567 30.8913 21.4059 30.9674 21.3806C30.9674 21.3806 30.942 21.3552 30.7898 21.3045L30.2065 21.1016C29.9783 21.0255 29.6993 20.9241 29.5978 20.9494C29.5471 20.9494 29.4964 21.0001 29.471 21.0762L29.4456 21.127C29.4203 21.1523 29.3696 21.127 29.3696 21.1016C29.4203 21.0001 29.4456 20.8733 29.4964 20.7719C29.5471 20.6451 29.5725 20.569 29.5978 20.4675C29.6232 20.4422 29.6739 20.4675 29.6993 20.4929V20.569C29.6993 20.6197 29.6739 20.6958 29.7246 20.7212C29.8007 20.7972 30.0543 20.8733 30.308 20.9494L31.0181 21.203C31.2464 21.2791 31.2971 21.3045 31.4239 21.2284C31.4746 21.203 31.5254 21.127 31.5507 21.1016L31.5761 21.0509C31.6014 21.0255 31.6522 21.0509 31.6522 21.1016C31.6014 21.203 31.5507 21.3806 31.5254 21.4567C31.5 21.5074 31.4746 21.5835 31.4746 21.6596C31.3225 21.6596 30.8406 21.8625 30.6884 21.9386L30.2572 22.1161C30.0797 22.1922 29.6739 22.3697 29.6232 22.3951C29.6232 22.3951 29.6485 22.4204 29.6993 22.4204L30.2826 22.6233C30.5109 22.6994 30.7898 22.8009 30.8913 22.7755C30.942 22.7755 30.9674 22.7248 31.0181 22.6487L31.0435 22.5726C31.0688 22.5472 31.1196 22.5726 31.1196 22.598C31.0688 22.7248 31.0435 22.8262 30.9927 22.9277C30.942 23.0545 30.9167 23.1306 30.8913 23.2574C30.8659 23.2828 30.8152 23.2574 30.7898 23.232V23.1559C30.7898 23.1052 30.8152 23.0291 30.7645 23.0038C30.6884 22.9277 30.4348 22.8516 30.1812 22.7501L29.4203 22.5219Z" fill="white"/>
<path d="M29.116 25.261C29.116 25.2357 29.1413 25.1849 29.1667 25.1596C29.3696 25.2103 29.6739 25.2103 29.8768 24.8552C30.0797 24.5002 30.029 24.0183 29.471 23.6886C28.8877 23.3588 28.3804 23.5617 28.1775 23.9168C27.9746 24.2719 28.1268 24.5509 28.2536 24.7284C28.2536 24.7791 28.2283 24.8045 28.2029 24.8045C28.0254 24.6777 27.8986 24.5002 27.8478 24.4241C27.8732 24.3987 27.8732 24.348 27.8732 24.3226C27.8986 24.2465 27.9493 24.0436 28.0507 23.8661C28.2029 23.5871 28.4058 23.3842 28.6341 23.2574C28.9131 23.1052 29.2428 23.1052 29.6232 23.3081C29.9529 23.4857 30.1051 23.79 30.1558 24.069C30.1812 24.3733 30.1051 24.6777 29.9529 24.9567C29.8515 25.1088 29.7247 25.2864 29.6232 25.3878C29.5978 25.4132 29.5725 25.4386 29.5725 25.4639C29.4964 25.4386 29.3442 25.3625 29.116 25.261Z" fill="white"/>
<path d="M28.7101 25.9204C28.9638 26.1233 28.9891 26.1233 29.1159 26.0219L29.1413 25.9965C29.1667 25.9965 29.2174 26.0219 29.2174 26.0472C29.1413 26.1487 29.0399 26.2501 28.9638 26.3516L28.5833 26.8335C28.4565 26.9856 28.3297 27.1378 28.3297 27.1632C28.279 27.1378 28.0761 26.9856 27.9493 26.9349C27.9493 26.9096 27.9746 26.8588 28 26.8588C28.1775 26.9349 28.2536 26.9603 28.3551 26.8842C28.4058 26.8335 28.4819 26.7828 28.5326 26.7067L28.6594 26.5291C28.7355 26.4277 28.7355 26.4277 28.6087 26.3009L28.2029 25.9712C28.1268 25.9204 28.1268 25.9204 28.0761 25.9712L27.9746 26.098C27.7971 26.3009 27.7717 26.3516 27.8732 26.453L27.9493 26.5291C27.9493 26.5545 27.9239 26.6052 27.8732 26.6052C27.7971 26.5545 27.721 26.4784 27.6449 26.4023C27.5435 26.3262 27.4674 26.2501 27.3913 26.1994C27.3913 26.1741 27.4167 26.1233 27.442 26.1233L27.5435 26.1741C27.6703 26.2501 27.6956 26.1994 27.8732 25.9965L27.9746 25.8697C28.0254 25.819 28.0254 25.819 27.9493 25.7683L27.6449 25.5146C27.5181 25.4132 27.4167 25.3371 27.3659 25.3371C27.3152 25.3371 27.2645 25.3625 27.087 25.5654C26.8333 25.8697 26.8587 25.9965 26.9855 26.2248C26.9855 26.2501 26.9348 26.3009 26.9094 26.3009C26.808 26.1994 26.6812 25.9965 26.6304 25.8951C26.7319 25.7936 26.9094 25.5907 27.1377 25.2864L27.3659 25.0074C27.442 24.9059 27.5688 24.7538 27.6703 24.627C27.6956 24.627 27.7464 24.6523 27.7464 24.6777L27.6703 24.7791C27.5942 24.9059 27.5688 24.9313 27.8478 25.1342L28.7101 25.9204Z" fill="white"/>
<path d="M22.6739 11.6668C22.4203 11.3371 21.7608 10.6523 20.5435 10.627C19.6811 10.703 18.8188 11.0328 18.0833 11.6414C16.9674 12.5545 16.6377 13.5436 16.5108 14.0255C16.4348 14.3806 16.3587 14.8371 16.3587 15.4204V15.4458C14.3297 15.6994 12.1739 16.8914 12.1739 19.098C12.1739 20.569 13.6449 22.1668 16.3587 22.4712V22.7248C16.3587 23.7393 16.2572 23.8407 15.0652 23.9675V24.3987H19.1232V23.9675C17.9058 23.8661 17.8043 23.7646 17.8043 22.7248V22.4965C19.9601 22.3951 21.2282 21.6342 21.634 20.1885C22.0398 18.6668 21.1268 17.7284 20.3406 17.2212C20.3406 17.2212 20.1884 17.1197 20.0108 17.069C19.8587 17.0183 19.6558 17.0183 19.6558 17.0183C20.0108 17.3226 20.2645 17.703 20.3913 18.1596C20.7971 19.6306 19.6304 21.2284 17.8043 21.7356V16.1813C19.605 15.8516 21.5833 15.8516 21.5833 15.8516L21.6594 15.3697C19.3514 15.319 18.5145 15.319 17.8043 15.319V15.1161C17.8043 13.3154 18.1848 12.3262 18.4891 11.9965C18.7935 11.6414 19.1485 11.4132 19.6558 11.4132C20.5181 11.4132 21.3043 12.0726 21.7608 12.5799C21.9384 12.7574 22.0652 12.7574 22.2935 12.6052C22.5217 12.453 22.6739 12.2248 22.75 12.1233C22.8514 12.0219 22.8007 11.8443 22.6739 11.6668ZM13.7717 19.9856C13.3659 18.5146 14.5326 16.9168 16.3587 16.4096V21.8625C15.1159 21.7864 14.0761 21.0762 13.7717 19.9856Z" fill="white"/>
</g>
<defs>
<clipPath id="clip0_11_2482">
<rect width="35" height="35" fill="white"/>
</clipPath>
</defs>
</svg>
