<svg width="35" height="34" viewBox="0 0 35 34" fill="none" xmlns="http://www.w3.org/2000/svg">
<path d="M17.5 33.991C7.86232 33.991 0 26.3553 0 16.9955C0 7.63565 7.86232 0 17.5 0C27.1377 0 35 7.63565 35 16.9955C35 26.3553 27.1377 33.991 17.5 33.991ZM17.5 0.985245C8.42029 0.985245 1.01449 8.17754 1.01449 16.9955C1.01449 25.8134 8.42029 33.0057 17.5 33.0057C26.5797 33.0057 33.9855 25.8134 33.9855 16.9955C33.9855 8.17754 26.5797 0.985245 17.5 0.985245Z" fill="#121321"/>
<path d="M17.5004 27.7098C11.4134 27.7098 6.46777 22.9068 6.46777 16.9953C6.46777 11.0838 11.4134 6.28076 17.5004 6.28076C23.5873 6.28076 28.533 11.0838 28.533 16.9953C28.533 22.9068 23.5873 27.7098 17.5004 27.7098ZM17.5004 6.77338C11.6924 6.77338 6.97502 11.3548 6.97502 16.9953C6.97502 22.6358 11.6924 27.2172 17.5004 27.2172C23.3084 27.2172 28.0257 22.6358 28.0257 16.9953C28.0257 11.3548 23.3084 6.77338 17.5004 6.77338Z" fill="#121321"/>
<path d="M17.4996 26.7003C11.996 26.7003 7.50684 22.3406 7.50684 16.9957C7.50684 11.6507 11.996 7.29102 17.4996 7.29102C23.0032 7.29102 27.4923 11.6507 27.4923 16.9957C27.4923 22.3406 23.0032 26.7003 17.4996 26.7003ZM17.4996 7.53733C12.1228 7.53733 7.76046 11.7739 7.76046 16.9957C7.76046 22.2175 12.1228 26.454 17.4996 26.454C22.8764 26.454 27.2387 22.2175 27.2387 16.9957C27.2387 11.7739 22.8764 7.53733 17.4996 7.53733Z" fill="#121321"/>
<path d="M6.06213 24.8033C6.08749 24.8033 6.13822 24.8525 6.13822 24.8772C6.01141 25.0496 5.90996 25.3205 6.16358 25.6161C6.4172 25.9117 6.89909 26.0595 7.40633 25.6407C7.93894 25.222 7.91358 24.7048 7.65996 24.4092C7.40633 24.1136 7.10199 24.1382 6.87373 24.2121C6.823 24.2121 6.823 24.1629 6.823 24.1382C7.00054 24.0151 7.2288 23.9658 7.30489 23.9658C7.33025 23.9905 7.35561 24.0151 7.40633 24.0397C7.45706 24.089 7.65996 24.2121 7.78677 24.3599C7.98967 24.6062 8.11648 24.8279 8.14184 25.0989C8.1672 25.3944 8.06576 25.7146 7.76141 25.9609C7.48242 26.1826 7.15271 26.2319 6.84836 26.1826C6.56938 26.1087 6.29039 25.9363 6.08749 25.69C5.96068 25.5422 5.85923 25.3698 5.78315 25.222C5.75778 25.1974 5.75778 25.1727 5.73242 25.1481C5.75778 25.0989 5.8846 24.9757 6.06213 24.8033Z" fill="#121321"/>
<path d="M5.60531 24.212C5.32633 24.3844 5.32633 24.409 5.37705 24.5322L5.40241 24.5814C5.40241 24.6061 5.35169 24.6307 5.32633 24.6307C5.2756 24.5322 5.19952 24.409 5.12343 24.2859L4.81908 23.7686C4.71763 23.5962 4.61618 23.4484 4.59082 23.4238C4.64154 23.3991 4.84444 23.2514 4.94589 23.1775C4.97126 23.1775 5.02198 23.2267 4.99662 23.2514C4.86981 23.3745 4.81908 23.473 4.84444 23.5469C4.86981 23.6208 4.89517 23.6947 4.94589 23.7686L5.04734 23.941C5.12343 24.0642 5.12343 24.0642 5.2756 23.9657L5.73212 23.6947C5.80821 23.6455 5.80821 23.6455 5.75749 23.5962L5.6814 23.473C5.55459 23.2514 5.50386 23.2021 5.37705 23.2514L5.2756 23.276C5.25024 23.276 5.22488 23.2267 5.22488 23.1775C5.30097 23.1282 5.40241 23.0789 5.50386 23.0297C5.60531 22.9804 5.70676 22.9065 5.78285 22.8573C5.80821 22.8573 5.83357 22.9065 5.83357 22.9312L5.73212 23.005C5.63068 23.0789 5.65604 23.1282 5.78285 23.3745L5.85894 23.4977C5.8843 23.5469 5.90966 23.5469 5.96039 23.5223L6.31546 23.3253C6.46763 23.2514 6.54372 23.1775 6.56908 23.1282C6.59444 23.0789 6.59444 23.005 6.44227 22.7834C6.23937 22.4385 6.13792 22.4385 5.85894 22.4632C5.83357 22.4385 5.80821 22.3893 5.83357 22.3646C5.96039 22.3154 6.21401 22.2661 6.2901 22.2661C6.36618 22.3893 6.49299 22.6109 6.67053 22.9312L6.84807 23.2267C6.92415 23.3499 7.0256 23.4977 7.10169 23.6208C7.10169 23.6455 7.05097 23.6701 7.0256 23.6701L6.94952 23.5716C6.87343 23.4484 6.84807 23.4238 6.54372 23.5962L5.60531 24.212Z" fill="#121321"/>
<path d="M5.02165 20.4436C5.1231 20.419 5.47818 20.2712 5.55426 20.2466C5.60499 20.2466 5.63035 20.2958 5.63035 20.3205C5.57963 20.3944 5.50354 20.5175 5.35136 20.8131L4.81876 21.7737C4.66658 22.0447 4.59049 22.1678 4.56513 22.2417C4.56513 22.2417 4.59049 22.2417 4.76803 22.1924L5.35136 21.9954C5.57963 21.9215 5.85861 21.823 5.90933 21.7491C5.9347 21.6998 5.9347 21.6506 5.9347 21.5767L5.90933 21.5028C5.90933 21.4781 5.98542 21.4535 5.98542 21.4781C6.01078 21.5767 6.06151 21.6998 6.11223 21.823C6.16296 21.9461 6.18832 22.02 6.23905 22.1185C6.23905 22.1432 6.18832 22.1678 6.16296 22.1432L6.11223 22.0939C6.08687 22.0447 6.06151 21.9954 5.98542 21.9954C5.88397 21.9954 5.63035 22.0693 5.37673 22.1678L4.66658 22.4141C4.43832 22.488 4.3876 22.5126 4.33687 22.6358C4.31151 22.6851 4.33687 22.759 4.33687 22.8082V22.8575C4.33687 22.8821 4.26078 22.9067 4.23542 22.8821C4.21006 22.759 4.13397 22.6112 4.10861 22.5373C4.08325 22.488 4.05789 22.4141 4.03252 22.3402C4.13397 22.2417 4.3876 21.7983 4.46368 21.6506L4.66658 21.2565C4.76803 21.084 4.97093 20.7146 4.97093 20.6653C4.97093 20.6653 4.94557 20.6653 4.89484 20.6899L4.31151 20.887C4.08325 20.9609 3.80426 21.0594 3.75354 21.1579C3.72818 21.2072 3.72818 21.2565 3.72818 21.3304L3.75354 21.4042C3.75354 21.4289 3.67745 21.4535 3.67745 21.4289C3.65209 21.3057 3.60136 21.2072 3.55064 21.084C3.49992 20.9609 3.47455 20.887 3.42383 20.7885C3.42383 20.7638 3.47455 20.7392 3.49992 20.7638L3.55064 20.8131C3.576 20.8624 3.60136 20.9116 3.67745 20.9116C3.7789 20.9116 4.03252 20.8377 4.28615 20.7392L5.02165 20.4436Z" fill="#121321"/>
<path d="M3.47493 19.3601C3.34812 19.3847 3.34812 19.3847 3.34812 19.4586L3.37349 19.631C3.42421 19.902 3.47493 19.9759 3.72856 20.0498C3.75392 20.0744 3.75392 20.1236 3.72856 20.1483C3.55102 20.1236 3.34812 20.099 3.24667 20.099L3.22131 20.0744V20.0498C3.2974 20.0251 3.2974 19.9759 3.24667 19.7788L3.04378 18.5473C3.01841 18.3995 2.99305 18.3502 2.91696 18.3256L2.8916 18.3009C2.8916 18.2763 2.8916 18.2763 2.8916 18.2517C3.01841 18.2517 3.2974 18.2517 3.39885 18.2271C3.42421 18.2271 3.44957 18.3009 3.42421 18.3256C3.19595 18.3995 3.14522 18.4734 3.19595 18.7936L3.22131 18.966C3.24667 19.0399 3.24667 19.0399 3.37349 19.0152L4.71769 18.7936C5.0474 18.7443 5.0474 18.7197 5.0474 18.5719V18.4487C5.07276 18.4241 5.12349 18.4241 5.14885 18.4487C5.17421 18.6211 5.19957 18.7689 5.22493 18.8921C5.2503 19.0152 5.27566 19.163 5.30102 19.3601C5.30102 19.3847 5.22493 19.4093 5.19957 19.3847L5.17421 19.2616C5.14885 19.1138 5.12349 19.0891 4.79378 19.1384L3.47493 19.3601Z" fill="#121321"/>
<path d="M3.47505 17.4634C3.1707 17.4634 3.11998 17.4634 3.11998 17.6111V17.685C3.09461 17.7097 3.04389 17.7097 3.01853 17.685C2.99316 17.488 2.99316 17.2417 2.99316 16.9954C2.99316 16.7491 3.01853 16.552 3.11998 16.4042C3.19606 16.2564 3.34824 16.1333 3.5765 16.1333C3.85548 16.1333 4.00766 16.355 4.08374 16.5027C4.08374 16.5274 4.10911 16.5274 4.13447 16.5027C4.56563 16.2564 4.84461 16.1086 4.97142 15.9609C5.04751 15.887 5.07287 15.7884 5.07287 15.7392C5.09824 15.7145 5.1236 15.7145 5.14896 15.7392C5.14896 15.7884 5.17432 15.8377 5.17432 15.9362C5.17432 16.2318 5.04751 16.3796 4.74316 16.5766C4.61635 16.6505 4.43882 16.7491 4.312 16.8229C4.21056 16.8722 4.21056 16.9215 4.21056 17.02C4.21056 17.1185 4.21056 17.1185 4.28664 17.1185H4.69244C5.02215 17.1185 5.04751 17.0939 5.04751 16.9461V16.8722C5.07287 16.8476 5.1236 16.8476 5.14896 16.8722C5.14896 16.9954 5.1236 17.1431 5.1236 17.2909C5.1236 17.4141 5.1236 17.5619 5.1236 17.7097C5.09824 17.7343 5.04751 17.7343 5.02215 17.7097V17.6358C4.99679 17.488 4.99679 17.4634 4.66708 17.4634H3.47505ZM3.93157 17.1185C4.03302 17.1185 4.03302 17.1185 4.03302 16.9707C4.03302 16.6752 3.88085 16.5274 3.5765 16.5274C3.32287 16.5274 3.09461 16.6752 3.09461 16.9461C3.09461 17.0939 3.09461 17.1185 3.24679 17.1185H3.93157Z" fill="#121321"/>
<path d="M3.57658 15.2217C3.24687 15.1725 3.22151 15.1971 3.19615 15.3203L3.17079 15.3695C3.14542 15.3942 3.0947 15.3695 3.06934 15.3449C3.0947 15.2217 3.12006 15.0986 3.14542 14.9508L3.24687 14.3596C3.27223 14.1626 3.2976 13.9902 3.2976 13.9409C3.34832 13.9409 3.60194 13.9655 3.72876 13.9655C3.75412 13.9902 3.75412 14.0394 3.72876 14.0641C3.55122 14.0887 3.44977 14.1133 3.39905 14.2119C3.37368 14.2858 3.34832 14.3596 3.32296 14.4582L3.2976 14.6552C3.27223 14.7784 3.27223 14.7784 3.44977 14.8276L3.98238 14.9262C4.05847 14.9508 4.05847 14.9262 4.08383 14.8769L4.10919 14.7291C4.15992 14.4582 4.15992 14.4089 4.0331 14.3596L3.93165 14.3104C3.90629 14.2858 3.93165 14.2365 3.95702 14.2119C4.0331 14.2365 4.15992 14.2611 4.26136 14.2611C4.38818 14.2858 4.48963 14.2858 4.59108 14.3104C4.61644 14.335 4.59107 14.3843 4.56571 14.4089H4.4389C4.31209 14.4089 4.28673 14.4582 4.236 14.7291L4.21064 14.8769C4.21064 14.9508 4.21064 14.9508 4.28673 14.9754L4.69252 15.0493C4.8447 15.0739 4.97151 15.0986 5.02223 15.0493C5.07296 15.0247 5.09832 14.9754 5.14905 14.7291C5.22513 14.335 5.14905 14.2611 4.92079 14.1133C4.89542 14.0887 4.92079 14.0394 4.94615 14.0148C5.07296 14.0641 5.30122 14.1626 5.37731 14.2119C5.35194 14.335 5.30122 14.606 5.22513 14.9508L5.17441 15.2956C5.14905 15.4188 5.12368 15.6158 5.09832 15.7636C5.07296 15.7883 5.02223 15.7883 4.99687 15.7636V15.6405C4.99687 15.4927 4.99687 15.468 4.66716 15.4188L3.57658 15.2217Z" fill="#121321"/>
<path d="M4.13437 11.5271C4.21046 11.3547 4.26118 11.1823 4.28654 11.1084C4.36263 11.133 4.56553 11.2069 4.7177 11.2562C4.74307 11.2808 4.7177 11.3301 4.69234 11.3547C4.5148 11.3054 4.41336 11.3301 4.33727 11.4286C4.28654 11.5025 4.26118 11.5764 4.21046 11.6503L4.15973 11.8227C4.10901 11.9459 4.10901 11.9459 4.28654 12.0198L4.81915 12.2168C4.89524 12.2414 4.89524 12.2414 4.9206 12.1675L4.99669 11.9951C5.09814 11.7488 5.1235 11.6995 4.99669 11.6257L4.89524 11.5764C4.86988 11.5518 4.89524 11.5025 4.9206 11.5025C4.99669 11.5271 5.09814 11.5764 5.19959 11.6257C5.30104 11.6749 5.42785 11.6995 5.50393 11.7242C5.5293 11.7488 5.50393 11.7981 5.47857 11.8227L5.35176 11.7981C5.22495 11.7734 5.19959 11.8227 5.09814 12.069L5.02205 12.2414C4.99669 12.3153 4.99669 12.3153 5.07278 12.34L5.47857 12.4877C5.78292 12.6109 5.80828 12.5863 5.88437 12.4631L5.96046 12.34C5.98582 12.34 6.03654 12.34 6.03654 12.3892C5.96046 12.5616 5.90973 12.7094 5.85901 12.8326C5.80828 12.9557 5.75756 13.0789 5.70683 13.2267C5.68147 13.2513 5.63075 13.2267 5.63075 13.202L5.65611 13.1282C5.68147 12.9804 5.70683 12.9557 5.37712 12.8326L4.28654 12.4138C3.9822 12.2907 3.95683 12.3153 3.88075 12.4385L3.85538 12.4631C3.83002 12.4631 3.7793 12.4631 3.7793 12.4138C3.83002 12.3153 3.88075 12.1922 3.93147 12.069L4.13437 11.5271Z" fill="#121321"/>
<path d="M6.61989 9.28576C7.1525 9.60597 7.30467 10.2217 6.97496 10.7636C6.59453 11.3548 5.96047 11.4533 5.47859 11.1577C4.92062 10.8375 4.76844 10.1971 5.09815 9.65523C5.47859 9.03945 6.11264 8.99019 6.61989 9.28576ZM5.6054 10.739C5.98583 10.9607 6.59453 11.1085 6.87351 10.6651C7.05105 10.3695 6.97496 9.97543 6.44235 9.65523C6.03656 9.40892 5.45322 9.31039 5.17424 9.72912C5.02206 10.0001 5.02206 10.3942 5.6054 10.739Z" fill="#121321"/>
<path d="M6.64494 8.37452C6.41668 8.17747 6.39132 8.15284 6.26451 8.25136L6.21378 8.30062C6.18842 8.30062 6.1377 8.27599 6.1377 8.25136C6.26451 8.10357 6.44204 7.90653 6.59422 7.70948C6.77175 7.53706 6.92393 7.38927 7.0761 7.34001C7.25364 7.29075 7.43117 7.29075 7.60871 7.43853C7.83697 7.63558 7.78625 7.88189 7.73552 8.02968C7.73552 8.05431 7.76088 8.05431 7.78625 8.05431C8.26813 8.15284 8.57248 8.2021 8.77538 8.17747C8.90219 8.15284 8.97827 8.10357 9.00364 8.07894C9.029 8.07894 9.05436 8.10358 9.05436 8.10358C9.029 8.12821 9.00364 8.17747 8.92755 8.27599C8.72465 8.49767 8.52175 8.5223 8.16668 8.47304C8.01451 8.44841 7.81161 8.39915 7.6848 8.37452C7.58335 8.34989 7.53262 8.37452 7.4819 8.44841C7.40581 8.5223 7.43117 8.5223 7.45654 8.57157L7.76088 8.84251C8.01451 9.06419 8.03987 9.03956 8.14132 8.94103L8.19204 8.89177C8.21741 8.89177 8.26813 8.94103 8.26813 8.96566C8.16668 9.06419 8.06523 9.16271 7.98914 9.26124C7.8877 9.35976 7.81161 9.45829 7.71016 9.58144C7.6848 9.58144 7.63407 9.55681 7.63407 9.53218L7.6848 9.48292C7.76088 9.35976 7.78625 9.33513 7.53262 9.11345L6.64494 8.37452ZM7.22827 8.39915C7.30436 8.47304 7.30436 8.47304 7.40581 8.34989C7.60871 8.12821 7.60871 7.93116 7.38045 7.73411C7.20291 7.56169 6.92393 7.53706 6.74639 7.73411C6.64494 7.85726 6.64494 7.85726 6.74639 7.95579L7.22827 8.39915Z" fill="#121321"/>
<path d="M9.33403 5.39399C9.4862 5.27083 9.63837 5.17231 9.6891 5.12305C9.73982 5.17231 9.86664 5.36936 9.96808 5.46788C9.96808 5.49251 9.91736 5.54178 9.892 5.54178C9.76519 5.41862 9.66374 5.36936 9.53693 5.41862C9.46084 5.44325 9.38475 5.49251 9.30866 5.54178L9.18185 5.6403C9.0804 5.71419 9.0804 5.71419 9.18185 5.86198L9.51156 6.30534C9.56229 6.37923 9.56229 6.37923 9.61301 6.32997L9.76519 6.23145C9.99345 6.08366 10.0188 6.0344 9.96808 5.91124L9.91736 5.81272C9.91736 5.78809 9.96809 5.73883 9.99345 5.76346C10.0442 5.83735 10.0949 5.93587 10.171 6.00977C10.2471 6.10829 10.3232 6.18219 10.3739 6.25608C10.3739 6.28071 10.3232 6.32997 10.2978 6.30534L10.1963 6.23145C10.0949 6.13292 10.0442 6.15755 9.81591 6.32997L9.66374 6.4285C9.61301 6.47776 9.61301 6.47776 9.66374 6.52702L9.91736 6.87186C10.1203 7.1428 10.1456 7.11817 10.2724 7.04428L10.3992 6.97038C10.4246 6.97038 10.45 7.01964 10.45 7.04428C10.2724 7.1428 10.171 7.24132 10.0442 7.31522C9.94272 7.38911 9.81591 7.48764 9.6891 7.56153C9.66374 7.56153 9.61301 7.51227 9.63837 7.48764L9.6891 7.43837C9.79055 7.33985 9.81591 7.31522 9.61301 7.04428L8.92823 6.10829C8.72533 5.83735 8.69997 5.86198 8.57316 5.91124L8.5478 5.93587C8.52243 5.93587 8.49707 5.88661 8.49707 5.86198C8.59852 5.81272 8.69997 5.71419 8.82678 5.6403L9.33403 5.39399Z" fill="#121321"/>
<path d="M11.4135 6.00982C11.5657 6.3054 11.6164 6.28077 11.7432 6.2315L11.8193 6.20687C11.8447 6.20687 11.8701 6.25613 11.8701 6.28077C11.7432 6.33003 11.6164 6.40392 11.4896 6.47781C11.3628 6.55171 11.236 6.6256 11.1092 6.6995C11.0838 6.6995 11.0585 6.65023 11.0585 6.6256L11.1092 6.57634C11.236 6.47782 11.2614 6.47782 11.0838 6.18224L10.5259 5.17236C10.3737 4.87679 10.323 4.90142 10.1961 4.95068L10.1201 4.97532C10.0947 4.97532 10.0693 4.92605 10.0693 4.90142C10.1961 4.85216 10.323 4.77827 10.4498 4.70437C10.5766 4.63048 10.7034 4.55659 10.8048 4.50732C10.8302 4.50732 10.8556 4.55659 10.8556 4.58122L10.8048 4.63048C10.678 4.729 10.6527 4.729 10.8302 5.02458L11.4135 6.00982Z" fill="#121321"/>
<path d="M11.7435 4.58095C11.642 4.31001 11.6167 4.26074 11.4645 4.31001L11.3884 4.33464C11.363 4.33464 11.3377 4.28537 11.363 4.26074C11.5659 4.16222 11.7942 4.06369 12.0986 3.96517C12.3775 3.86665 12.5804 3.81738 12.8341 3.81738C13.2399 3.81738 13.6203 4.01443 13.7725 4.45779C13.8993 4.778 13.8739 5.17209 13.5696 5.4923C13.392 5.66472 13.1638 5.8125 12.8848 5.91103C12.7072 5.98492 12.5551 6.00955 12.4536 6.05882C12.3522 6.10808 12.2 6.15734 12.0732 6.2066C12.0478 6.2066 12.0225 6.15734 12.0225 6.13271L12.0732 6.10808C12.2 6.03418 12.2254 6.00955 12.0986 5.71398L11.7435 4.58095ZM12.4536 5.39378C12.5551 5.66472 12.6312 5.8125 12.9609 5.68935C13.4935 5.4923 13.5949 5.04894 13.392 4.55632C13.1638 3.9898 12.7326 3.84201 12.2254 4.01443C12.0986 4.06369 12.0225 4.11296 11.9971 4.13759C11.9717 4.16222 11.9971 4.23611 12.0478 4.35927L12.4536 5.39378Z" fill="#121321"/>
<path d="M14.3556 3.6945C14.3049 3.3743 14.2795 3.3743 14.1274 3.3743H14.0766C14.0513 3.34966 14.0513 3.3004 14.0766 3.3004C14.2035 3.27577 14.3556 3.27577 14.4824 3.25114C14.6346 3.22651 14.7614 3.20188 14.8882 3.17725C14.9136 3.17725 14.939 3.22651 14.9136 3.25114L14.8375 3.27577C14.6853 3.32503 14.66 3.32503 14.7107 3.64524L14.8375 4.33491C14.9136 4.75364 15.0911 5.07384 15.5477 5.02458C15.9535 4.95069 16.0803 4.63048 16.0042 4.16249L15.9281 3.79302C15.8774 3.57134 15.8266 3.27577 15.7759 3.20188C15.7506 3.15262 15.6745 3.15262 15.5984 3.15262H15.5223C15.4969 3.12798 15.4716 3.07872 15.5223 3.07872C15.6237 3.07872 15.7506 3.05409 15.8774 3.02946C16.0042 3.00483 16.0803 2.9802 16.2071 2.95557C16.2324 2.95557 16.2578 3.00483 16.2324 3.02946L16.1563 3.05409C16.1056 3.07872 16.0549 3.10335 16.0295 3.15262C16.0042 3.25114 16.0549 3.52208 16.0803 3.76839L16.131 4.13786C16.1817 4.4088 16.1817 4.67975 16.0549 4.87679C15.9281 5.07384 15.6998 5.17237 15.4716 5.197C15.1672 5.24626 14.9643 5.22163 14.7868 5.09847C14.6346 4.99995 14.5332 4.77827 14.4571 4.4827L14.3556 3.6945Z" fill="#121321"/>
<path d="M18.7429 3.47277C18.7175 3.4974 18.6668 3.4974 18.6415 3.47277C18.5907 3.27572 18.4639 3.02941 18.0328 3.00477C17.627 3.00477 17.2212 3.27572 17.1958 3.8915C17.1704 4.55654 17.6016 4.87674 18.0074 4.87674C18.4132 4.87674 18.5907 4.63043 18.6668 4.43338C18.7175 4.43338 18.7683 4.43338 18.7683 4.48264C18.7429 4.67969 18.6415 4.90137 18.6161 4.95063C18.5654 4.95063 18.54 4.97526 18.5146 4.97526C18.4386 4.9999 18.2357 5.04916 18.0074 5.04916C17.7031 5.04916 17.4241 4.97526 17.1958 4.82748C16.9422 4.65506 16.7646 4.38412 16.7646 3.96539C16.7646 3.59592 16.9422 3.32498 17.1704 3.15256C17.3987 2.98014 17.7284 2.90625 18.0581 2.90625C18.2357 2.90625 18.4639 2.95551 18.6161 2.98014C18.6415 2.98014 18.6668 3.00477 18.6922 3.00477C18.7175 3.05404 18.7175 3.25109 18.7429 3.47277Z" fill="#121321"/>
<path d="M19.6052 4.70421C19.5545 5.02442 19.5798 5.04905 19.732 5.07368L19.8081 5.09831C19.8335 5.12294 19.8081 5.17221 19.7827 5.19684C19.6559 5.17221 19.5038 5.14757 19.3769 5.12294C19.2501 5.09831 19.098 5.07368 18.9458 5.07368C18.9204 5.04905 18.9204 4.99979 18.9458 4.97516H19.0219C19.174 4.97516 19.1994 4.97516 19.2501 4.65495L19.4277 3.52192C19.4784 3.20171 19.453 3.17708 19.3009 3.15245L19.2248 3.12782C19.1994 3.10319 19.2248 3.05393 19.2501 3.0293C19.3769 3.05393 19.5291 3.07856 19.6813 3.10319C19.8081 3.12782 19.9603 3.15245 20.0871 3.15245C20.1124 3.17708 20.1124 3.22635 20.0871 3.25098H20.011C19.8588 3.25098 19.8335 3.25098 19.7827 3.57118L19.6052 4.70421Z" fill="#121321"/>
<path d="M20.7722 4.60563C20.6961 4.581 20.6961 4.581 20.6453 4.6549L20.4171 4.9751C20.3156 5.12289 20.3156 5.14752 20.4171 5.19678L20.4932 5.24604C20.5185 5.27067 20.4932 5.31994 20.4678 5.31994C20.3664 5.29531 20.2649 5.27068 20.1381 5.22141C20.0366 5.19678 19.9352 5.17215 19.8337 5.14752C19.8084 5.12289 19.8337 5.07363 19.8591 5.04899H19.9606C20.062 5.07363 20.0874 5.04899 20.1635 4.95047C20.2142 4.87658 20.3156 4.77805 20.4171 4.63027L21.1526 3.69428C21.2287 3.62039 21.2794 3.5465 21.2794 3.49723C21.3808 3.49723 21.533 3.42334 21.533 3.42334C21.5584 3.42334 21.5584 3.44797 21.5837 3.4726C21.5837 3.62039 21.5837 3.76818 21.6091 3.91596L21.6852 5.27067C21.6852 5.49236 21.7106 5.51699 21.8627 5.59088L21.9135 5.61551C21.9388 5.64014 21.9135 5.6894 21.8881 5.71404C21.7613 5.66477 21.6598 5.64014 21.4823 5.59088C21.3555 5.56625 21.2033 5.51699 21.1019 5.49235C21.0765 5.46772 21.1019 5.41846 21.1272 5.39383H21.2033C21.3048 5.41846 21.3301 5.39383 21.3301 5.27067L21.3048 4.82731C21.3048 4.72879 21.2794 4.72879 21.2033 4.70416L20.7722 4.60563ZM21.178 4.581C21.254 4.60563 21.2794 4.60563 21.2794 4.53174L21.254 4.13764C21.254 3.96522 21.254 3.91596 21.2287 3.89133C21.2033 3.91596 21.1526 3.96522 21.0765 4.08838L20.8482 4.40859C20.7975 4.48248 20.7975 4.48248 20.8736 4.50711L21.178 4.581Z" fill="#121321"/>
<path d="M22.8776 4.43354C23.0044 4.1626 23.0298 4.13797 22.903 4.06407L22.8269 4.01481C22.8269 3.99018 22.8269 3.94092 22.8776 3.94092C23.0551 4.01481 23.3088 4.11334 23.537 4.21186C23.7653 4.31039 23.9428 4.43354 24.0443 4.5567C24.1457 4.70448 24.1964 4.8769 24.095 5.07395C23.9682 5.32026 23.7146 5.36952 23.537 5.34489C23.5117 5.34489 23.5117 5.36952 23.5117 5.39415C23.5624 5.88678 23.5877 6.18235 23.6638 6.35477C23.7146 6.45329 23.7906 6.50256 23.816 6.52719C23.816 6.55182 23.816 6.57645 23.7906 6.57645C23.7399 6.57645 23.6892 6.55182 23.5877 6.50256C23.3088 6.3794 23.2073 6.20698 23.1566 5.86215C23.1312 5.71436 23.1312 5.51731 23.1059 5.36952C23.1059 5.271 23.0805 5.24637 22.979 5.19711C22.903 5.14784 22.8776 5.14784 22.8522 5.22174L22.6747 5.56657C22.5225 5.86215 22.5479 5.88678 22.6747 5.96067L22.7254 6.00993C22.7254 6.03456 22.7001 6.08383 22.6747 6.08383C22.5479 6.00993 22.4211 5.96067 22.2943 5.91141C22.1674 5.86215 22.0406 5.78825 21.9138 5.73899C21.8885 5.71436 21.9138 5.6651 21.9392 5.6651L22.0153 5.68973C22.1674 5.73899 22.1928 5.73899 22.3196 5.44342L22.8776 4.43354ZM23.0298 4.97543C22.979 5.07395 22.979 5.07395 23.1312 5.12321C23.4102 5.24637 23.6131 5.17247 23.7399 4.90153C23.8414 4.67985 23.7906 4.43354 23.537 4.31038C23.3848 4.23649 23.3848 4.26112 23.3088 4.38428L23.0298 4.97543Z" fill="#121321"/>
<path d="M24.602 6.37934C24.7034 6.23156 24.7288 6.18229 24.7288 6.00988L24.8302 5.19705C24.8556 5.04926 24.8556 5 24.7541 4.90148L24.7034 4.85221C24.7034 4.82758 24.7288 4.77832 24.7541 4.77832C24.8556 4.85221 24.9824 4.92611 25.0838 5C25.2107 5.07389 25.3628 5.17242 25.4136 5.22168C25.4389 5.24631 25.4136 5.29557 25.3628 5.29557L25.2867 5.24631C25.236 5.22168 25.2107 5.22168 25.2107 5.24631C25.1853 5.27094 25.1853 5.29557 25.1599 5.41873C25.1092 5.7143 25.0585 5.98525 25.0331 6.23156C25.2867 6.1084 25.4896 5.98525 25.7433 5.86209C25.8447 5.81283 25.9208 5.76357 25.9208 5.73893C25.9462 5.7143 25.9208 5.68967 25.8954 5.66504L25.8194 5.59115C25.8194 5.56652 25.8447 5.51725 25.8701 5.51725C25.9715 5.59115 26.073 5.66504 26.1491 5.7143C26.2252 5.76357 26.3266 5.81283 26.4027 5.86209C26.4281 5.88672 26.3773 5.93598 26.352 5.93598L26.2759 5.91135C26.1491 5.86209 26.073 5.88672 25.794 6.00988C25.5911 6.1084 25.4389 6.1823 25.236 6.28082C25.0585 6.35471 25.0078 6.40398 24.881 6.57639L24.7795 6.72418C24.602 6.99512 24.602 7.01975 24.7288 7.11828L24.8302 7.19217C24.8302 7.2168 24.8049 7.26606 24.7795 7.26606C24.6273 7.14291 24.5005 7.06902 24.3991 6.99512C24.2723 6.92123 24.1454 6.84734 24.0186 6.74881C23.9933 6.72418 24.044 6.67492 24.0694 6.67492L24.1708 6.72418C24.2976 6.79807 24.323 6.79807 24.5259 6.52713L24.602 6.37934Z" fill="#121321"/>
<path d="M27.2144 7.19199C27.468 6.97031 27.4426 6.94568 27.3666 6.82252L27.3412 6.77326C27.3412 6.74863 27.3919 6.69937 27.4173 6.724C27.4934 6.82252 27.5948 6.92105 27.6963 7.01957L28.1274 7.4383C28.2796 7.58609 28.4064 7.70924 28.4318 7.73387C28.4064 7.78314 28.2289 7.95556 28.1528 8.05408C28.1274 8.05408 28.0767 8.02945 28.0767 7.98019C28.1781 7.8324 28.2035 7.73387 28.1528 7.63535C28.1274 7.56146 28.0513 7.48756 28.0006 7.4383L27.8484 7.29051C27.747 7.19199 27.747 7.19199 27.6202 7.31515L27.2397 7.68461C27.189 7.73387 27.189 7.73387 27.2397 7.80777L27.3412 7.90629C27.5441 8.10334 27.5694 8.12797 27.6963 8.05408L27.7977 8.00482C27.8231 8.00482 27.8738 8.05408 27.8738 8.07871C27.7977 8.12797 27.7216 8.20187 27.6455 8.27576C27.5694 8.34965 27.4934 8.42355 27.4173 8.49744C27.3919 8.49744 27.3412 8.44818 27.3412 8.42355L27.4173 8.32502C27.4934 8.2265 27.468 8.17724 27.2651 7.98019L27.1637 7.88166C27.1129 7.8324 27.1129 7.8324 27.0368 7.88166L26.7579 8.1526C26.631 8.25113 26.555 8.34965 26.555 8.42355C26.555 8.47281 26.5803 8.5467 26.7579 8.71912C27.0368 9.01469 27.1383 8.99006 27.4173 8.89154C27.4426 8.89154 27.4934 8.9408 27.468 8.96543C27.3666 9.03933 27.1383 9.16248 27.0368 9.18711C26.9354 9.08859 26.7579 8.89154 26.5042 8.6206L26.2506 8.37428C26.1492 8.27576 26.0223 8.1526 25.9209 8.05408C25.9209 8.02945 25.9463 7.98019 25.9716 7.98019L26.0731 8.05408C26.1999 8.1526 26.2252 8.1526 26.4535 7.93092L27.2144 7.19199Z" fill="#121321"/>
<path d="M28.71 8.17719C28.71 8.15256 28.7608 8.12793 28.7861 8.12793C28.8622 8.25109 28.9383 8.34961 29.0144 8.47277C29.1158 8.59592 29.1919 8.71908 29.2427 8.79297C29.2427 8.8176 29.1919 8.84223 29.1666 8.84223L29.1158 8.79297C29.0651 8.74371 29.0398 8.71908 29.0144 8.74371C28.989 8.76834 28.9637 8.79297 28.9383 8.89149C28.8876 9.01465 28.7354 9.35949 28.71 9.48264C28.8369 9.48264 29.3187 9.48264 29.4456 9.48264C29.4963 9.48264 29.5216 9.48264 29.547 9.45801C29.5724 9.43338 29.547 9.40875 29.5216 9.35949L29.4963 9.28559C29.4963 9.26096 29.547 9.2117 29.5724 9.23633C29.6485 9.33486 29.6992 9.40875 29.7499 9.50727C29.8006 9.58117 29.8514 9.65506 29.9274 9.75358C29.9274 9.77822 29.9021 9.80285 29.8514 9.80285L29.7753 9.72895C29.6738 9.63043 29.6231 9.63043 29.3948 9.6058C29.1919 9.58117 28.9637 9.58117 28.7608 9.58117C28.71 9.58117 28.6593 9.58117 28.6593 9.6058C28.634 9.6058 28.634 9.63043 28.6086 9.70432C28.4818 9.9999 28.355 10.3201 28.2789 10.5418C28.2282 10.6896 28.2282 10.7635 28.3042 10.862L28.3296 10.9359C28.3296 10.9605 28.2789 10.9851 28.2535 10.9851C28.1774 10.862 28.1014 10.7388 27.9999 10.6157C27.8985 10.4925 27.8224 10.394 27.7463 10.2708C27.7463 10.2462 27.797 10.1969 27.8224 10.2216L27.8985 10.2955C27.9238 10.3201 27.9492 10.3447 27.9745 10.3201C27.9999 10.3201 28.0253 10.2708 28.076 10.1477L28.1014 10.0492C28.1521 9.926 28.2282 9.75358 28.3042 9.55654C28.1014 9.55654 27.7716 9.55654 27.5434 9.55654C27.4927 9.55654 27.4673 9.55654 27.4419 9.58117C27.4166 9.58117 27.4419 9.63043 27.4673 9.67969L27.4927 9.75358C27.4927 9.77822 27.4419 9.82748 27.4166 9.80285C27.3658 9.70432 27.2898 9.6058 27.2137 9.50727C27.1629 9.43338 27.0869 9.33485 27.0361 9.26096C27.0361 9.23633 27.0869 9.2117 27.1122 9.2117L27.1629 9.26096C27.2644 9.35949 27.3405 9.38412 27.5434 9.40875C27.6702 9.40875 27.9999 9.43338 28.2789 9.43338C28.3296 9.43338 28.3803 9.43338 28.3803 9.40875C28.4057 9.40875 28.4057 9.38412 28.4311 9.33486C28.5325 9.08854 28.6593 8.76834 28.7354 8.57129C28.7861 8.4235 28.8115 8.32498 28.7608 8.25109L28.71 8.17719Z" fill="#121321"/>
<path d="M30.5108 12.0692C30.4854 12.0692 30.4601 12.0199 30.4601 11.9707C30.6123 11.8475 30.7898 11.6012 30.6123 11.2318C30.4347 10.8869 30.0036 10.6406 29.4202 10.9115C28.8115 11.1825 28.6847 11.6997 28.8623 12.0692C29.0398 12.414 29.3441 12.4633 29.5724 12.4633C29.6231 12.4879 29.6231 12.5372 29.5978 12.5618C29.3949 12.6357 29.1666 12.6357 29.0905 12.6357C29.0652 12.6111 29.0398 12.5865 29.0144 12.5618C28.9637 12.5126 28.8115 12.3402 28.7354 12.1677C28.6086 11.8968 28.5325 11.6258 28.5833 11.3795C28.634 11.084 28.8115 10.7884 29.1666 10.616C29.4963 10.4682 29.826 10.4928 30.105 10.616C30.3586 10.7391 30.5869 10.9854 30.7137 11.281C30.7898 11.4288 30.8659 11.6505 30.8912 11.7983C30.8912 11.8475 30.9166 11.8475 30.9166 11.8722C30.8659 11.8475 30.7137 11.9461 30.5108 12.0692Z" fill="#121321"/>
<path d="M30.8155 12.7339C31.1452 12.6354 31.1452 12.6108 31.1199 12.463V12.4137C31.1452 12.3891 31.1959 12.3645 31.2213 12.3891C31.2467 12.5123 31.2974 12.6354 31.3228 12.7832L31.5003 13.3497C31.551 13.5468 31.6017 13.7192 31.6271 13.7438C31.5764 13.7685 31.3481 13.867 31.2213 13.9162C31.1959 13.9162 31.1706 13.8423 31.1706 13.8177C31.3228 13.7192 31.3988 13.6453 31.3988 13.5468C31.3988 13.4729 31.3735 13.3744 31.3481 13.3005L31.2974 13.1034C31.272 12.9803 31.2467 12.9803 31.0691 13.0295L30.5619 13.1773C30.4858 13.2019 30.4858 13.2019 30.5112 13.2758L30.5619 13.4236C30.638 13.6699 30.6633 13.7192 30.7902 13.7192H30.8916C30.917 13.7438 30.9423 13.7931 30.917 13.8177C30.8409 13.8423 30.7141 13.867 30.6126 13.8916C30.4858 13.9162 30.3844 13.9655 30.2829 13.9901C30.2575 13.9901 30.2322 13.9162 30.2575 13.8916L30.3844 13.8423C30.5112 13.7931 30.4858 13.7438 30.4097 13.4729L30.359 13.3251C30.3336 13.2512 30.3336 13.2512 30.2575 13.2758L29.8771 13.3744C29.7249 13.4236 29.6235 13.4482 29.5728 13.5221C29.5474 13.5714 29.522 13.6207 29.5981 13.867C29.6996 14.2364 29.801 14.2857 30.08 14.3103C30.1054 14.335 30.1054 14.3842 30.08 14.4089C29.9532 14.4335 29.6996 14.4335 29.5981 14.4089C29.5728 14.2857 29.4967 14.0148 29.3952 13.6699L29.2938 13.3251C29.2431 13.2019 29.1923 13.0049 29.1416 12.8817C29.1416 12.8571 29.1923 12.8325 29.2177 12.8571L29.2684 12.9556C29.3191 13.0788 29.3445 13.1034 29.6742 13.0295L30.8155 12.7339Z" fill="#121321"/>
<path d="M30.2571 15.197C30.1049 15.2217 29.9781 15.2463 29.9528 15.2955C29.902 15.3448 29.902 15.3941 29.9274 15.6404C29.9781 15.9852 30.0035 16.0345 30.3332 16.133C30.3586 16.1576 30.3586 16.2069 30.3332 16.2315C30.2064 16.2315 29.9528 16.1823 29.8513 16.1576C29.8513 16.0345 29.8006 15.7635 29.7499 15.4187L29.6991 15.0985C29.6738 14.9507 29.6484 14.8029 29.623 14.6551C29.623 14.6305 29.6991 14.6059 29.7245 14.6305L29.7499 14.729C29.8006 14.8768 29.8006 14.9014 30.1303 14.8522L31.297 14.7044C31.6267 14.6551 31.6267 14.6305 31.6267 14.4827V14.3842C31.6267 14.3596 31.7028 14.3596 31.7281 14.3842C31.7535 14.532 31.7535 14.6798 31.7788 14.8276C31.8042 14.9507 31.8296 15.0985 31.8549 15.2217C31.8549 15.2463 31.7788 15.2709 31.7535 15.2463L31.7281 15.1724C31.6774 15.0246 31.6774 15 31.3477 15.0492L30.2571 15.197Z" fill="#121321"/>
<path d="M30.3841 16.9707C30.232 16.9707 30.1052 16.9707 30.0544 17.0199C30.0037 17.0446 29.9783 17.0938 29.9783 17.3401C29.9783 17.685 29.9783 17.7342 30.3081 17.882C30.3334 17.9067 30.3081 17.9559 30.2827 17.9806C30.1559 17.9559 29.9023 17.882 29.8262 17.8574C29.8262 17.7342 29.8515 17.4633 29.8515 17.1185V16.7983C29.8515 16.6505 29.8515 16.4781 29.8515 16.3549C29.8769 16.3303 29.9276 16.3303 29.953 16.3549L29.9783 16.4534C30.0037 16.6012 30.0037 16.6258 30.3334 16.6258L31.5254 16.6505C31.8552 16.6505 31.8552 16.6258 31.8805 16.4781L31.9059 16.4042C31.9312 16.3795 31.982 16.3795 32.0073 16.4042C32.0073 16.5519 31.982 16.6997 31.982 16.8475C31.982 16.9707 31.982 17.1185 31.982 17.2663C31.9566 17.2909 31.9059 17.2909 31.8805 17.2663V17.1924C31.8552 17.0446 31.8552 17.0199 31.5254 17.0199L30.3841 16.9707Z" fill="#121321"/>
<path d="M31.4237 18.5717C31.7535 18.621 31.7788 18.5963 31.8042 18.4485L31.8295 18.3993C31.8549 18.3746 31.9056 18.3993 31.931 18.4239C31.9056 18.5471 31.8803 18.6702 31.8549 18.818L31.7535 19.4092C31.7281 19.6062 31.7027 19.7786 31.7027 19.8279C31.652 19.8279 31.3984 19.8033 31.2716 19.8033C31.2462 19.7786 31.2462 19.7294 31.2716 19.7047C31.4491 19.6801 31.5506 19.6555 31.5759 19.5569C31.6013 19.483 31.6266 19.4092 31.652 19.3106L31.6774 19.1136C31.7027 18.9904 31.7027 18.9904 31.5252 18.9658L30.9926 18.8919C30.9165 18.8919 30.9165 18.8919 30.8911 18.9412L30.8658 19.089C30.815 19.3599 30.815 19.4092 30.9419 19.4584L31.0433 19.5077C31.0687 19.5323 31.0433 19.5816 31.0179 19.6062C30.9419 19.5816 30.815 19.5569 30.7136 19.5569C30.5868 19.5323 30.4853 19.5323 30.3839 19.5077C30.3585 19.483 30.3839 19.4338 30.3839 19.4092H30.5107C30.6375 19.4092 30.6629 19.3599 30.7136 19.089L30.739 18.9412C30.739 18.8673 30.739 18.8673 30.6629 18.8673L30.2571 18.818C30.1049 18.7934 29.9781 18.7934 29.9274 18.818C29.8766 18.8426 29.8513 18.8919 29.8006 19.1628C29.7245 19.5569 29.8006 19.6308 30.0542 19.7786C30.0795 19.8033 30.0542 19.8525 30.0288 19.8771C29.902 19.8279 29.6737 19.7294 29.5977 19.6801C29.623 19.5569 29.6737 19.286 29.7245 18.9412L29.7752 18.5963C29.8006 18.4732 29.8259 18.2761 29.8513 18.1283C29.8766 18.1037 29.9274 18.1037 29.9527 18.1283V18.2515C29.9527 18.3993 29.9527 18.4239 30.2824 18.4732L31.4237 18.5717Z" fill="#121321"/>
<path d="M29.4208 21.872C29.3193 21.8474 28.9642 21.7242 28.8882 21.6996C28.8628 21.675 28.8628 21.6257 28.8882 21.5764C28.9642 21.5518 29.0911 21.5026 29.4208 21.3794L30.4606 20.9607C30.7396 20.8375 30.8918 20.7883 30.9679 20.7636C30.9679 20.7636 30.9425 20.739 30.7903 20.6897L30.207 20.4927C29.9787 20.4188 29.6998 20.3203 29.5983 20.3449C29.5476 20.3449 29.4969 20.3942 29.4715 20.468L29.4461 20.5173C29.4208 20.5419 29.37 20.5173 29.37 20.4927C29.4208 20.3942 29.4461 20.271 29.4969 20.1725C29.5476 20.0493 29.5729 19.9754 29.5983 19.8769C29.6237 19.8523 29.6744 19.8769 29.6998 19.9015V19.9754C29.6998 20.0247 29.6744 20.0986 29.7251 20.1232C29.8012 20.1971 30.0548 20.271 30.3085 20.3449L31.0186 20.5912C31.2469 20.6651 31.2976 20.6897 31.4244 20.6158C31.4751 20.5912 31.5258 20.5173 31.5512 20.4927L31.5766 20.4434C31.6019 20.4188 31.6527 20.4434 31.6527 20.4927C31.6019 20.5912 31.5512 20.7636 31.5258 20.8375C31.5005 20.8868 31.4751 20.9607 31.4751 21.0346C31.3229 21.0346 30.8411 21.2316 30.6889 21.3055L30.2577 21.4779C30.0802 21.5518 29.6744 21.7242 29.6237 21.7489C29.6237 21.7489 29.649 21.7735 29.6998 21.7735L30.2831 21.9705C30.5114 22.0444 30.7903 22.143 30.8918 22.1183C30.9425 22.1183 30.9679 22.0691 31.0186 21.9952L31.044 21.9213C31.0693 21.8967 31.12 21.9213 31.12 21.9459C31.0693 22.0691 31.044 22.1676 30.9932 22.2661C30.9425 22.3893 30.9171 22.4632 30.8918 22.5863C30.8664 22.611 30.8157 22.5863 30.7903 22.5617V22.4878C30.7903 22.4385 30.8157 22.3646 30.765 22.34C30.6889 22.2661 30.4353 22.1922 30.1816 22.0937L29.4208 21.872Z" fill="#121321"/>
<path d="M29.1158 24.5322C29.1158 24.5075 29.1411 24.4583 29.1665 24.4336C29.3694 24.4829 29.6737 24.4829 29.8766 24.1381C30.0795 23.7932 30.0288 23.3252 29.4708 23.005C28.8875 22.6848 28.3803 22.8819 28.1774 23.2267C27.9745 23.5715 28.1266 23.8425 28.2535 24.0149C28.2535 24.0642 28.2281 24.0888 28.2027 24.0888C28.0252 23.9656 27.8984 23.7932 27.8477 23.7193C27.873 23.6947 27.873 23.6454 27.873 23.6208C27.8984 23.5469 27.9491 23.3499 28.0506 23.1774C28.2027 22.9065 28.4056 22.7095 28.6339 22.5863C28.9129 22.4385 29.2426 22.4385 29.623 22.6356C29.9527 22.808 30.1049 23.1036 30.1556 23.3745C30.181 23.6701 30.1049 23.9656 29.9527 24.2366C29.8513 24.3844 29.7245 24.5568 29.623 24.6553C29.5977 24.6799 29.5723 24.7046 29.5723 24.7292C29.4962 24.7046 29.344 24.6307 29.1158 24.5322Z" fill="#121321"/>
<path d="M28.7106 25.1727C28.9642 25.3697 28.9896 25.3697 29.1164 25.2712L29.1417 25.2466C29.1671 25.2466 29.2178 25.2712 29.2178 25.2958C29.1417 25.3944 29.0403 25.4929 28.9642 25.5914L28.5838 26.0594C28.4569 26.2072 28.3301 26.355 28.3301 26.3796C28.2794 26.355 28.0765 26.2072 27.9497 26.1579C27.9497 26.1333 27.9751 26.084 28.0004 26.084C28.178 26.1579 28.254 26.1826 28.3555 26.1087C28.4062 26.0594 28.4823 26.0102 28.533 25.9363L28.6598 25.7638C28.7359 25.6653 28.7359 25.6653 28.6091 25.5422L28.2033 25.222C28.1272 25.1727 28.1272 25.1727 28.0765 25.222L27.9751 25.3451C27.7975 25.5422 27.7722 25.5914 27.8736 25.6899L27.9497 25.7638C27.9497 25.7885 27.9243 25.8377 27.8736 25.8377C27.7975 25.7885 27.7214 25.7146 27.6454 25.6407C27.5439 25.5668 27.4678 25.4929 27.3917 25.4436C27.3917 25.419 27.4171 25.3697 27.4425 25.3697L27.5439 25.419C27.6707 25.4929 27.6961 25.4436 27.8736 25.2466L27.9751 25.1234C28.0258 25.0742 28.0258 25.0742 27.9497 25.0249L27.6454 24.7786C27.5185 24.6801 27.4171 24.6062 27.3664 24.6062C27.3156 24.6062 27.2649 24.6308 27.0874 24.8279C26.8338 25.1234 26.8591 25.2466 26.9859 25.4683C26.9859 25.4929 26.9352 25.5422 26.9098 25.5422C26.8084 25.4436 26.6816 25.2466 26.6309 25.1481C26.7323 25.0495 26.9098 24.8525 27.1381 24.5569L27.3664 24.286C27.4425 24.1874 27.5693 24.0397 27.6707 23.9165C27.6961 23.9165 27.7468 23.9411 27.7468 23.9658L27.6707 24.0643C27.5946 24.1874 27.5693 24.2121 27.8483 24.4091L28.7106 25.1727Z" fill="#121321"/>
<path d="M22.6738 11.3302C22.4202 11.01 21.7608 10.3449 20.5434 10.3203C19.6811 10.3942 18.8188 10.7144 18.0832 11.3056C16.9673 12.1923 16.6376 13.1529 16.5108 13.6209C16.4347 13.9657 16.3586 14.4091 16.3586 14.9756V15.0002C14.3296 15.2465 12.1738 16.4042 12.1738 18.5471C12.1738 19.9757 13.6448 21.5275 16.3586 21.823V22.0694C16.3586 23.0546 16.2572 23.1531 15.0651 23.2763V23.695H19.1231V23.2763C17.9057 23.1778 17.8043 23.0792 17.8043 22.0694V21.8477C19.9601 21.7492 21.2282 21.0102 21.634 19.6062C22.0398 18.1284 21.1267 17.217 20.3405 16.7244C20.3405 16.7244 20.1883 16.6259 20.0108 16.5766C19.8586 16.5274 19.6557 16.5274 19.6557 16.5274C20.0108 16.8229 20.2644 17.1924 20.3912 17.6358C20.797 19.0644 19.6303 20.6161 17.8043 21.1087V15.7145C19.605 15.3943 21.5832 15.3943 21.5832 15.3943L21.6593 14.9263C19.3514 14.8771 18.5144 14.8771 17.8043 14.8771V14.68C17.8043 12.9312 18.1847 11.9706 18.489 11.6504C18.7934 11.3056 19.1485 11.0839 19.6557 11.0839C20.518 11.0839 21.3043 11.7243 21.7608 12.2169C21.9383 12.3893 22.0651 12.3893 22.2934 12.2415C22.5217 12.0938 22.6738 11.8721 22.7499 11.7735C22.8514 11.675 22.8006 11.5026 22.6738 11.3302ZM13.7717 19.4092C13.3659 17.9806 14.5325 16.4288 16.3586 15.9362V21.2319C15.1159 21.158 14.076 20.4683 13.7717 19.4092Z" fill="#121321"/>
</svg>
