<svg width="54" height="35" viewBox="0 0 54 35" fill="none" xmlns="http://www.w3.org/2000/svg">
<g clip-path="url(#clip0_11_2435)">
<path d="M20.7411 4.26103C20.7411 4.26103 20.6703 4.09532 20.5405 4.26103L20.2692 16.8785C20.2692 16.8785 20.222 16.9614 20.1394 16.8785L20.0922 4.17818L20.0568 2.45007C20.0568 2.45007 19.7854 0.568098 18.1101 0.568098V0.201172H25.7199V0.556261C25.7199 0.556261 24.1979 0.307699 23.7732 2.43824L23.7142 16.8667C23.7142 16.8667 23.6552 16.9496 23.5844 16.8667L23.3013 4.34388V4.24919C23.3013 4.24919 23.2423 4.11899 23.1243 4.24919L22.9355 14.2864C22.9355 14.2864 22.8765 14.3811 22.7586 14.2864L22.4518 3.79941L22.4282 3.17209C22.4282 3.17209 22.3338 3.00638 22.2041 3.17209L22.0271 13.3868C22.0271 13.3868 21.9563 13.4697 21.8619 13.3868L21.5906 4.05981L21.5788 3.18392C21.5788 3.18392 21.4962 3.03005 21.3546 3.18392L21.1186 14.2982C21.1186 14.2982 21.0478 14.4048 20.9299 14.2982" fill="white"/>
<path d="M2.85516 14.4758C0.755092 12.6294 0.188782 10.2266 0.188782 8.14339C0.188782 6.68752 0.63711 4.15455 2.70178 2.27257C4.24734 0.852215 6.28841 0 9.4857 0C10.8189 0 11.6094 0.0828542 12.6004 0.213054C13.4145 0.319581 14.0988 0.508962 14.7477 0.57998C14.9836 0.603652 15.0662 0.710179 15.0662 0.840379C15.0662 1.01792 15.0072 1.26649 14.96 2.02401C14.9128 2.73419 14.9364 3.90599 14.901 4.34393C14.8774 4.66351 14.842 4.84106 14.6415 4.84106C14.4645 4.84106 14.4291 4.67535 14.4291 4.3676C14.4055 3.70477 14.1342 2.94724 13.5914 2.39094C12.8836 1.64525 11.2082 1.06527 9.23794 1.06527C7.37384 1.06527 6.14683 1.53872 5.20298 2.39094C3.63383 3.8113 3.2209 5.85898 3.2209 7.93034C3.2209 13.0318 7.10248 15.5648 9.98122 15.5648C11.8925 15.5648 13.0487 15.3517 13.91 14.3693C14.2757 13.9669 14.5589 13.3395 14.6415 12.9489C14.7005 12.6057 14.7477 12.5228 14.9246 12.5228C15.078 12.5228 15.1134 12.6767 15.1134 12.8424C15.1134 13.1028 14.8538 14.9611 14.6415 15.695C14.5353 16.0619 14.4527 16.1684 14.087 16.3223C13.2257 16.6655 11.5976 16.8194 10.2172 16.8194C7.27945 16.8076 4.81365 16.1684 2.85516 14.4758Z" fill="white"/>
<path d="M30.8875 6.6045C30.8875 3.25483 30.8875 2.63934 30.8403 1.94099C30.7931 1.19531 30.6279 0.840216 29.92 0.686343C29.7431 0.638998 29.3773 0.615325 29.0824 0.615325C28.8464 0.615325 28.7166 0.56798 28.7166 0.414108C28.7166 0.260236 28.87 0.212891 29.1885 0.212891C30.3212 0.212891 31.6779 0.283909 32.2796 0.283909C33.1645 0.283909 34.4033 0.212891 35.3944 0.212891C38.0843 0.212891 39.04 1.13612 39.3939 1.46754C39.8658 1.92916 40.4675 2.92341 40.4675 4.08337C40.4675 7.20816 38.2377 9.40971 35.182 9.40971C35.0758 9.40971 34.8398 9.40971 34.7337 9.38604C34.6275 9.36237 34.4741 9.33869 34.4741 9.18482C34.4741 9.00728 34.6275 8.94809 35.0758 8.94809C36.2792 8.94809 37.9545 7.56325 37.9545 5.31434C37.9545 4.59233 37.8956 3.11279 36.6921 2.01201C35.9135 1.29 35.0404 1.1598 34.5449 1.1598C34.2263 1.1598 33.896 1.18347 33.7072 1.24265C33.601 1.29 33.5302 1.4202 33.5302 1.65692V10.4631C33.5302 12.4872 33.5302 14.2271 33.6364 15.174C33.6954 15.7895 33.8252 16.2748 34.4741 16.3576C34.7808 16.405 35.241 16.4405 35.5713 16.4405C35.8073 16.4405 35.9135 16.5115 35.9135 16.618C35.9135 16.7719 35.7365 16.8429 35.5005 16.8429C34.0848 16.8429 32.728 16.7719 32.1735 16.7719C31.6779 16.7719 30.3212 16.8429 29.4717 16.8429C29.1885 16.8429 29.047 16.7719 29.047 16.618C29.047 16.5115 29.1295 16.4405 29.3891 16.4405C29.7077 16.4405 29.9672 16.3931 30.1678 16.3576C30.5925 16.2748 30.6987 15.7895 30.7931 15.1503C30.8993 14.2271 30.8993 12.4872 30.8993 10.4631V6.6045H30.8875Z" fill="white"/>
<path d="M48.2425 10.4752C48.2425 12.582 48.2425 14.2391 48.3487 15.1623C48.4077 15.8015 48.5375 16.2868 49.1864 16.3697C49.4813 16.417 49.9532 16.4525 50.26 16.4525C50.5431 16.4525 50.6257 16.5235 50.6257 16.63C50.6257 16.7839 50.4724 16.8549 50.1538 16.8549C48.797 16.8549 47.452 16.7839 46.8857 16.7839C46.3312 16.7839 44.9744 16.8549 44.1604 16.8549C43.8654 16.8549 43.712 16.8076 43.712 16.63C43.712 16.5235 43.7946 16.4525 44.0306 16.4525C44.3491 16.4525 44.6087 16.4052 44.7975 16.3697C45.2222 16.2868 45.3402 15.8015 45.4228 15.1623C45.5289 14.2391 45.5289 12.5939 45.5289 10.4752V6.60468C45.5289 3.26684 45.5289 2.63952 45.4818 1.94117C45.4346 1.19549 45.2694 0.840397 44.5615 0.686525C44.3845 0.639179 44.0188 0.615507 43.7238 0.615507C43.5115 0.615507 43.3581 0.568161 43.3581 0.437962C43.3581 0.260417 43.5351 0.213072 43.8536 0.213072C44.4081 0.213072 45.0334 0.236744 45.5879 0.236744C46.1424 0.260417 46.638 0.28409 46.9447 0.28409C47.7588 0.28409 52.1241 0.28409 52.6196 0.260417C53.0326 0.236744 53.2803 0.236744 53.5045 0.177563C53.6343 0.130218 53.7404 0.0473633 53.8466 0.0473633C53.9292 0.0473633 54 0.130218 54 0.248581C54 0.402453 53.8938 0.662852 53.823 1.24283C53.7994 1.46772 53.764 2.75788 53.7168 3.03012C53.6932 3.20766 53.6579 3.33786 53.5045 3.33786C53.3511 3.33786 53.3157 3.23133 53.2921 2.98277C53.2921 2.80523 53.2921 2.45014 53.1623 2.14239C53.009 1.83465 52.5606 1.50323 51.7466 1.47956L48.4431 1.40854C48.3133 1.40854 48.2543 1.47956 48.2543 1.71628V7.22017C48.2543 7.35037 48.2779 7.42139 48.4077 7.42139L51.1567 7.39772C51.5224 7.39772 51.8173 7.39772 52.1241 7.37405C52.537 7.35037 52.832 7.26752 53.0444 6.98345C53.1505 6.85325 53.1977 6.75856 53.3275 6.75856C53.4101 6.75856 53.4573 6.82958 53.4573 6.95977C53.4573 7.08997 53.3511 7.64628 53.2803 8.32095C53.2331 8.7589 53.1977 9.77682 53.1977 9.93069C53.1977 10.1319 53.1977 10.345 52.9854 10.345C52.8556 10.345 52.8084 10.1911 52.8084 10.0372C52.8084 9.88335 52.7612 9.62295 52.6786 9.35071C52.5724 9.04297 52.2539 8.65237 51.5814 8.55768C51.0387 8.48666 48.7734 8.48666 48.4077 8.48666C48.3015 8.48666 48.2543 8.53401 48.2543 8.68788V10.4752H48.2425Z" fill="white"/>
<path d="M1.84049 22.6781C1.69892 22.7255 1.55734 22.7491 1.40396 22.7491C1.2034 22.7491 1.03822 22.7136 0.884847 22.6545C0.731471 22.5953 0.601692 22.5006 0.495508 22.3941C0.389325 22.2757 0.306739 22.1455 0.247748 21.9916C0.188757 21.8377 0.165161 21.6602 0.165161 21.4708C0.165161 21.2933 0.188757 21.1157 0.247748 20.9619C0.306739 20.808 0.389325 20.666 0.495508 20.5476C0.601692 20.4292 0.731471 20.3464 0.884847 20.2754C1.03822 20.2162 1.2034 20.1807 1.39217 20.1807C1.52195 20.1807 1.65172 20.1925 1.7815 20.228C1.7933 20.228 1.8169 20.2398 1.84049 20.2398C1.86409 20.2517 1.88769 20.2517 1.91128 20.2635C1.93488 20.2754 1.95848 20.2754 1.98207 20.2872C2.00567 20.2872 2.01747 20.299 2.04106 20.299C2.08825 20.299 2.11185 20.2754 2.12365 20.228H2.15904C2.15904 20.2635 2.15904 20.3109 2.15904 20.3582C2.15904 20.4056 2.15904 20.4529 2.15904 20.5121C2.15904 20.5594 2.15904 20.6186 2.14725 20.666C2.14725 20.7133 2.13545 20.7606 2.12365 20.7962C2.04106 20.6541 1.94668 20.5476 1.84049 20.4766C1.73431 20.4056 1.60453 20.37 1.42756 20.37C1.26239 20.37 1.12081 20.4056 1.00283 20.4647C0.884847 20.5239 0.790462 20.6068 0.707875 20.7015C0.625288 20.7962 0.578095 20.9145 0.530903 21.0566C0.495509 21.1868 0.471912 21.3288 0.471912 21.4827C0.471912 21.6365 0.495509 21.7786 0.530903 21.9206C0.566297 22.0508 0.625288 22.1692 0.707875 22.2757C0.790462 22.3704 0.884847 22.4532 1.00283 22.5124C1.12081 22.5716 1.26239 22.5953 1.42756 22.5953C1.48655 22.5953 1.54554 22.5953 1.61633 22.5953C1.68712 22.5953 1.75791 22.5834 1.8169 22.5716C1.88769 22.5598 1.94668 22.5479 2.00567 22.5243C2.06466 22.5006 2.12365 22.4651 2.17084 22.4296L2.18264 22.4887C2.11185 22.5479 1.98207 22.6308 1.84049 22.6781Z" fill="white"/>
<path d="M3.88155 22.619C3.82256 22.6545 3.76356 22.69 3.71637 22.7018C3.66918 22.7255 3.62199 22.7255 3.58659 22.7137C3.5512 22.7018 3.5276 22.6782 3.50401 22.6308C3.48041 22.5835 3.46861 22.5243 3.46861 22.4414C3.39782 22.5243 3.31524 22.6071 3.22085 22.6545C3.12647 22.7137 3.02028 22.7373 2.9023 22.7373C2.83151 22.7373 2.77252 22.7255 2.71353 22.7018C2.65454 22.6782 2.60735 22.6545 2.56016 22.6071C2.51296 22.5716 2.47757 22.5243 2.45397 22.4651C2.43038 22.4059 2.41858 22.3467 2.41858 22.2757C2.41858 22.2047 2.43038 22.1337 2.45397 22.0863C2.47757 22.0272 2.51296 21.9798 2.56016 21.9443C2.60735 21.9088 2.65454 21.8733 2.71353 21.8378C2.77252 21.8023 2.83151 21.7786 2.8905 21.7549C2.99669 21.7076 3.09107 21.6721 3.17366 21.6602C3.25625 21.6484 3.35063 21.6247 3.44502 21.5892V21.4117C3.44502 21.3525 3.43322 21.2933 3.40962 21.246C3.38602 21.1986 3.35063 21.1631 3.30344 21.1276C3.25625 21.1039 3.20905 21.0803 3.16186 21.0566C3.10287 21.0447 3.05568 21.0329 2.99669 21.0329C2.97309 21.0329 2.9377 21.0329 2.9023 21.0448C2.86691 21.0566 2.83151 21.0684 2.79612 21.0921C2.76072 21.1039 2.72533 21.1276 2.70173 21.1513C2.66634 21.1749 2.64274 21.1868 2.61915 21.2105L2.58375 21.1868C2.60735 21.1631 2.63095 21.1394 2.65454 21.1158C2.67814 21.0921 2.70173 21.0684 2.73713 21.0566C2.79612 21.0092 2.86691 20.9737 2.9259 20.9501C2.98489 20.9264 3.06748 20.9146 3.13826 20.9146C3.32703 20.9146 3.46861 20.9619 3.563 21.0566C3.65738 21.1513 3.70457 21.2933 3.70457 21.4827V22.3823C3.70457 22.3941 3.70457 22.4178 3.70457 22.4414C3.70457 22.4651 3.70457 22.4888 3.71637 22.5243C3.71637 22.548 3.72817 22.5716 3.73997 22.5953C3.75177 22.619 3.76356 22.619 3.77536 22.619C3.78716 22.619 3.81076 22.619 3.82256 22.6071C3.84615 22.5953 3.85795 22.5953 3.86975 22.5835L3.88155 22.619ZM3.23265 21.7904C3.17366 21.8023 3.11467 21.8259 3.05568 21.8378C2.99669 21.8615 2.9377 21.8851 2.87871 21.9206C2.81972 21.9561 2.78432 21.9917 2.74893 22.039C2.71353 22.0863 2.70173 22.1455 2.70173 22.2165C2.70173 22.2994 2.72533 22.3704 2.76072 22.4178C2.79612 22.4651 2.84331 22.5006 2.9023 22.5243C2.96129 22.548 3.02028 22.548 3.07927 22.5361C3.15006 22.5243 3.20905 22.5006 3.26804 22.4769C3.32703 22.4414 3.37423 22.4059 3.40962 22.3467C3.44502 22.2876 3.46861 22.2284 3.46861 22.1574V21.7431L3.23265 21.7904Z" fill="white"/>
<path d="M5.37995 22.7018V22.6782C5.43894 22.6782 5.48613 22.6663 5.49793 22.6545C5.50973 22.6308 5.52152 22.5953 5.52152 22.5243V21.5419C5.52152 21.4827 5.50973 21.4353 5.49793 21.3762C5.48613 21.3288 5.46253 21.2815 5.43894 21.246C5.41534 21.2105 5.37995 21.1749 5.33275 21.1513C5.28556 21.1276 5.23837 21.1158 5.17938 21.1158C5.0732 21.1158 4.99061 21.1394 4.91982 21.1986C4.84903 21.2578 4.79004 21.3288 4.75465 21.4235C4.75465 21.4353 4.74285 21.4472 4.73105 21.4827C4.71925 21.5064 4.71925 21.53 4.71925 21.5419V22.5361C4.71925 22.5835 4.71925 22.6071 4.71925 22.6427C4.71925 22.6663 4.74285 22.6782 4.80184 22.6782V22.7018H4.32991V22.6782C4.3889 22.6782 4.4243 22.6663 4.4361 22.6427C4.44789 22.619 4.44789 22.5835 4.44789 22.5243V21.1868C4.44789 21.1513 4.44789 21.1158 4.4361 21.1039C4.4361 21.0921 4.4243 21.0803 4.4125 21.0803C4.4007 21.0803 4.3889 21.0803 4.37711 21.0803C4.36531 21.0803 4.34171 21.0803 4.31812 21.0803V21.0448L4.63666 20.9382H4.70745V21.2578C4.77824 21.1513 4.86083 21.0684 4.94342 21.0092C5.0378 20.9501 5.14398 20.9146 5.27376 20.9146C5.36815 20.9146 5.43894 20.9264 5.50973 20.9619C5.56872 20.9974 5.62771 21.0448 5.6631 21.0921C5.6985 21.1513 5.73389 21.2105 5.75749 21.2815C5.78108 21.3525 5.78108 21.4353 5.78108 21.5182V22.5243C5.78108 22.5598 5.79288 22.5953 5.80468 22.619C5.81648 22.6545 5.85187 22.6663 5.88727 22.6663V22.69H5.37995V22.7018Z" fill="white"/>
<path d="M7.64516 22.619C7.58617 22.6545 7.52718 22.69 7.47998 22.7018C7.43279 22.7255 7.3856 22.7255 7.3502 22.7137C7.31481 22.7018 7.29121 22.6782 7.26762 22.6308C7.24402 22.5835 7.23222 22.5243 7.23222 22.4414C7.16143 22.5243 7.07885 22.6071 6.98446 22.6545C6.89008 22.7137 6.78389 22.7373 6.66591 22.7373C6.59512 22.7373 6.53613 22.7255 6.47714 22.7018C6.41815 22.6782 6.37096 22.6545 6.32377 22.6071C6.27657 22.5716 6.24118 22.5243 6.21758 22.4651C6.19399 22.4059 6.18219 22.3467 6.18219 22.2757C6.18219 22.2047 6.19399 22.1337 6.21758 22.0863C6.24118 22.0272 6.27657 21.9798 6.32377 21.9443C6.37096 21.9088 6.41815 21.8733 6.47714 21.8378C6.53613 21.8023 6.59512 21.7786 6.65411 21.7549C6.7603 21.7076 6.85468 21.6721 6.93727 21.6602C7.01986 21.6484 7.11424 21.6247 7.20863 21.5892V21.4117C7.20863 21.3525 7.19683 21.2933 7.17323 21.246C7.14964 21.1986 7.11424 21.1631 7.06705 21.1276C7.01986 21.1039 6.97266 21.0803 6.92547 21.0566C6.86648 21.0447 6.81929 21.0329 6.7603 21.0329C6.7367 21.0329 6.70131 21.0329 6.66591 21.0448C6.63052 21.0566 6.59512 21.0684 6.55973 21.0921C6.52434 21.1039 6.48894 21.1276 6.46534 21.1513C6.42995 21.1749 6.40635 21.1868 6.38276 21.2105L6.34736 21.1868C6.37096 21.1631 6.39456 21.1394 6.41815 21.1158C6.44175 21.0921 6.46534 21.0684 6.50074 21.0566C6.55973 21.0092 6.63052 20.9737 6.68951 20.9501C6.7485 20.9264 6.83109 20.9146 6.90188 20.9146C7.09065 20.9146 7.23222 20.9619 7.32661 21.0566C7.42099 21.1513 7.46818 21.2933 7.46818 21.4827V22.3823C7.46818 22.3941 7.46818 22.4178 7.46818 22.4414C7.46818 22.4651 7.46819 22.4888 7.47998 22.5243C7.47998 22.548 7.49178 22.5716 7.50358 22.5953C7.51538 22.619 7.52718 22.619 7.53897 22.619C7.55077 22.619 7.57437 22.619 7.58617 22.6071C7.60976 22.5953 7.62156 22.5953 7.63336 22.5835L7.64516 22.619ZM6.99626 21.7904C6.93727 21.8023 6.87828 21.8259 6.81929 21.8378C6.7603 21.8615 6.70131 21.8851 6.64232 21.9206C6.58333 21.9561 6.54793 21.9917 6.51254 22.039C6.47714 22.0863 6.46534 22.1455 6.46534 22.2165C6.46534 22.2994 6.48894 22.3704 6.52434 22.4178C6.55973 22.4651 6.60692 22.5006 6.66591 22.5243C6.7249 22.548 6.78389 22.548 6.84288 22.5361C6.91367 22.5243 6.97266 22.5006 7.03165 22.4769C7.09064 22.4414 7.13784 22.4059 7.17323 22.3467C7.20863 22.2876 7.23222 22.2284 7.23222 22.1574V21.7431L6.99626 21.7904Z" fill="white"/>
<path d="M9.22613 22.7137V22.4415C9.10814 22.6309 8.93117 22.7256 8.71881 22.7256C8.58903 22.7256 8.47105 22.7019 8.37666 22.6545C8.28228 22.6072 8.21149 22.548 8.1525 22.4652C8.09351 22.3823 8.04631 22.2876 8.02272 22.1811C7.99912 22.0746 7.97552 21.9562 7.97552 21.8378C7.97552 21.7195 7.98732 21.6011 8.02272 21.4946C8.05811 21.3762 8.1053 21.2815 8.16429 21.1987C8.22329 21.1158 8.30587 21.0448 8.40026 20.9856C8.49464 20.9264 8.61262 20.9028 8.7424 20.9028C8.94297 20.9028 9.10814 20.9856 9.22613 21.1513V20.3228C9.22613 20.2991 9.22613 20.2754 9.22613 20.2518C9.22613 20.2281 9.21433 20.2163 9.17893 20.2044C9.16714 20.2044 9.15534 20.2044 9.13174 20.2044C9.11994 20.2044 9.09635 20.2044 9.08455 20.2044V20.1689C9.09635 20.1689 9.13174 20.1571 9.17893 20.1452C9.22613 20.1334 9.26152 20.1216 9.30871 20.1097C9.35591 20.0979 9.4149 20.0861 9.48568 20.0742V22.4888C9.48568 22.5362 9.49748 22.5717 9.52108 22.5717C9.54467 22.5835 9.58007 22.5835 9.62726 22.5835V22.6072L9.22613 22.7137ZM9.22613 21.6366C9.22613 21.5064 9.20253 21.3999 9.15534 21.317C9.10814 21.2223 9.04915 21.1632 8.97837 21.1158C8.90758 21.0685 8.82499 21.0566 8.7424 21.0566C8.65982 21.0566 8.57723 21.0803 8.50644 21.1395C8.43565 21.1868 8.37666 21.2697 8.32947 21.3762C8.28228 21.4827 8.25868 21.6129 8.25868 21.7786C8.25868 21.9562 8.28228 22.0982 8.32947 22.2048C8.37666 22.3231 8.43565 22.406 8.50644 22.4652C8.57723 22.5243 8.65982 22.5598 8.7424 22.5598C8.82499 22.5717 8.90758 22.548 8.97837 22.5125C9.04915 22.477 9.10814 22.4178 9.15534 22.3468C9.20253 22.2758 9.22613 22.1811 9.22613 22.0746V21.6366Z" fill="white"/>
<path d="M10.0048 22.6783C10.0756 22.6783 10.111 22.6665 10.1346 22.6547C10.1582 22.6428 10.17 22.5955 10.17 22.5245V21.187C10.17 21.1396 10.17 21.116 10.1582 21.1041C10.1464 21.0923 10.1464 21.0804 10.1346 21.0804C10.1228 21.0804 10.111 21.0804 10.0874 21.0804C10.0638 21.0804 10.0402 21.0804 10.0048 21.0686V21.0449L10.3588 20.9147H10.4296V22.5126C10.4296 22.5718 10.4296 22.6073 10.4414 22.6192C10.4532 22.6428 10.4767 22.6547 10.5357 22.6547V22.6783H10.0048ZM10.3824 20.4176C10.347 20.4413 10.3116 20.465 10.2762 20.465C10.2408 20.465 10.2054 20.4531 10.17 20.4176C10.1346 20.3939 10.1228 20.3466 10.1228 20.2874C10.1228 20.2282 10.1346 20.1927 10.17 20.1572C10.2054 20.1335 10.2408 20.1099 10.2762 20.1099C10.3116 20.1099 10.347 20.1217 10.3824 20.1572C10.4178 20.1809 10.4296 20.2282 10.4296 20.2874C10.4296 20.3466 10.4178 20.3821 10.3824 20.4176Z" fill="white"/>
<path d="M12.3408 22.619C12.2818 22.6545 12.2229 22.69 12.1757 22.7018C12.1285 22.7255 12.0813 22.7255 12.0459 22.7137C12.0105 22.7018 11.9869 22.6782 11.9633 22.6308C11.9397 22.5835 11.9279 22.5243 11.9279 22.4414C11.8571 22.5243 11.7745 22.6071 11.6801 22.6545C11.5858 22.7137 11.4796 22.7373 11.3616 22.7373C11.2908 22.7373 11.2318 22.7255 11.1728 22.7018C11.1138 22.6782 11.0666 22.6545 11.0194 22.6071C10.9723 22.5716 10.9369 22.5243 10.9133 22.4651C10.8897 22.4059 10.8779 22.3467 10.8779 22.2757C10.8779 22.2047 10.8897 22.1337 10.9133 22.0863C10.9369 22.0272 10.9723 21.9798 11.0194 21.9443C11.0666 21.9088 11.1138 21.8733 11.1728 21.8378C11.2318 21.8023 11.2908 21.7786 11.3498 21.7549C11.456 21.7076 11.5504 21.6721 11.6329 21.6602C11.7155 21.6484 11.8099 21.6247 11.9043 21.5892V21.4117C11.9043 21.3525 11.8925 21.2933 11.8689 21.246C11.8453 21.1986 11.8099 21.1631 11.7627 21.1276C11.7155 21.1039 11.6683 21.0803 11.6212 21.0566C11.5622 21.0447 11.515 21.0329 11.456 21.0329C11.4324 21.0329 11.397 21.0329 11.3616 21.0448C11.3262 21.0566 11.2908 21.0684 11.2554 21.0921C11.22 21.1039 11.1846 21.1276 11.161 21.1513C11.1256 21.1749 11.102 21.1868 11.0784 21.2105L11.043 21.1868C11.0666 21.1631 11.0902 21.1394 11.1138 21.1158C11.1374 21.0921 11.161 21.0684 11.1964 21.0566C11.2554 21.0092 11.3262 20.9737 11.3852 20.9501C11.4442 20.9264 11.5268 20.9146 11.5976 20.9146C11.7863 20.9146 11.9279 20.9619 12.0223 21.0566C12.1167 21.1513 12.1639 21.2933 12.1639 21.4827V22.3823C12.1639 22.3941 12.1639 22.4178 12.1639 22.4414C12.1639 22.4651 12.1639 22.4888 12.1757 22.5243C12.1757 22.548 12.1875 22.5716 12.1993 22.5953C12.2111 22.619 12.2229 22.619 12.2347 22.619C12.2465 22.619 12.27 22.619 12.2818 22.6071C12.3054 22.5953 12.3172 22.5953 12.329 22.5835L12.3408 22.619ZM11.6919 21.7904C11.6329 21.8023 11.574 21.8259 11.515 21.8378C11.456 21.8615 11.397 21.8851 11.338 21.9206C11.279 21.9561 11.2436 21.9917 11.2082 22.039C11.1728 22.0863 11.161 22.1455 11.161 22.2165C11.161 22.2994 11.1846 22.3704 11.22 22.4178C11.2554 22.4651 11.3026 22.5006 11.3616 22.5243C11.4206 22.548 11.4796 22.548 11.5386 22.5361C11.6094 22.5243 11.6683 22.5006 11.7273 22.4769C11.7863 22.4414 11.8335 22.4059 11.8689 22.3467C11.9043 22.2876 11.9279 22.2284 11.9279 22.1574V21.7431L11.6919 21.7904Z" fill="white"/>
<path d="M13.8392 22.7018V22.6782C13.8982 22.6782 13.9454 22.6663 13.9572 22.6545C13.969 22.6308 13.9808 22.5953 13.9808 22.5243V21.5419C13.9808 21.4827 13.969 21.4353 13.9572 21.3762C13.9454 21.3288 13.9218 21.2815 13.8982 21.246C13.8746 21.2105 13.8392 21.1749 13.792 21.1513C13.7448 21.1276 13.6976 21.1158 13.6386 21.1158C13.5324 21.1158 13.4498 21.1394 13.379 21.1986C13.3083 21.2578 13.2493 21.3288 13.2139 21.4235C13.2139 21.4353 13.2021 21.4472 13.1903 21.4827C13.1785 21.5064 13.1785 21.53 13.1785 21.5419V22.5361C13.1785 22.5835 13.1785 22.6071 13.1785 22.6427C13.1785 22.6663 13.2021 22.6782 13.2611 22.6782V22.7018H12.7891V22.6782C12.8481 22.6782 12.8835 22.6663 12.8953 22.6427C12.9071 22.619 12.9071 22.5835 12.9071 22.5243V21.1868C12.9071 21.1513 12.9071 21.1158 12.8953 21.1039C12.8953 21.0921 12.8835 21.0803 12.8717 21.0803C12.8599 21.0803 12.8481 21.0803 12.8363 21.0803C12.8245 21.0803 12.8009 21.0803 12.7773 21.0803V21.0448L13.0959 20.9382H13.1667V21.2578C13.2375 21.1513 13.3201 21.0684 13.4026 21.0092C13.497 20.9501 13.6032 20.9146 13.733 20.9146C13.8274 20.9146 13.8982 20.9264 13.969 20.9619C14.0279 20.9974 14.0869 21.0448 14.1223 21.0921C14.1577 21.1513 14.1931 21.2105 14.2167 21.2815C14.2403 21.3525 14.2403 21.4353 14.2403 21.5182V22.5243C14.2403 22.5598 14.2521 22.5953 14.2639 22.619C14.2757 22.6545 14.3111 22.6663 14.3465 22.6663V22.69H13.8392V22.7018Z" fill="white"/>
<path d="M15.7387 22.7019V22.6664C15.7859 22.6664 15.8095 22.6664 15.8449 22.6664C15.8685 22.6664 15.8921 22.6546 15.9039 22.6428C15.9157 22.6309 15.9275 22.6191 15.9275 22.5954C15.9275 22.5717 15.9393 22.5362 15.9393 22.4889V20.4412C15.9393 20.3939 15.9393 20.3583 15.9275 20.3347C15.9275 20.311 15.9157 20.2873 15.9039 20.2755C15.8921 20.2637 15.8685 20.2637 15.8449 20.2518C15.8213 20.2518 15.7859 20.2518 15.7387 20.2518V20.2163H16.4466V20.2518C16.3994 20.2518 16.3758 20.2518 16.3404 20.2518C16.3168 20.2518 16.2932 20.2637 16.2814 20.2755C16.2696 20.2873 16.2578 20.2992 16.2578 20.3347C16.2578 20.3583 16.246 20.3939 16.246 20.4412V22.4889C16.246 22.5362 16.246 22.5717 16.2578 22.5954C16.2578 22.6191 16.2696 22.6428 16.2814 22.6428C16.2932 22.6546 16.3168 22.6664 16.3404 22.6664C16.364 22.6664 16.3994 22.6664 16.4466 22.6664V22.7019H15.7387Z" fill="white"/>
<path d="M17.9803 22.7018V22.6782C18.0393 22.6782 18.0865 22.6663 18.0983 22.6545C18.1101 22.6308 18.1219 22.5953 18.1219 22.5243V21.5419C18.1219 21.4827 18.1101 21.4353 18.0983 21.3762C18.0865 21.3288 18.0629 21.2815 18.0393 21.246C18.0157 21.2105 17.9803 21.1749 17.9332 21.1513C17.886 21.1276 17.8388 21.1158 17.7798 21.1158C17.6736 21.1158 17.591 21.1394 17.5202 21.1986C17.4494 21.2578 17.3904 21.3288 17.355 21.4235C17.355 21.4353 17.3433 21.4472 17.3315 21.4827C17.3197 21.5064 17.3197 21.53 17.3197 21.5419V22.5361C17.3197 22.5835 17.3197 22.6071 17.3197 22.6427C17.3197 22.6663 17.3433 22.6782 17.4022 22.6782V22.7018H16.9303V22.6782C16.9893 22.6782 17.0247 22.6663 17.0365 22.6427C17.0483 22.619 17.0483 22.5835 17.0483 22.5243V21.1868C17.0483 21.1513 17.0483 21.1158 17.0365 21.1039C17.0365 21.0921 17.0247 21.0803 17.0129 21.0803C17.0011 21.0803 16.9893 21.0803 16.9775 21.0803C16.9657 21.0803 16.9421 21.0803 16.9185 21.0803V21.0448L17.2371 20.9382H17.3079V21.2578C17.3786 21.1513 17.4612 21.0684 17.5438 21.0092C17.6382 20.9501 17.7444 20.9146 17.8742 20.9146C17.9686 20.9146 18.0393 20.9264 18.1101 20.9619C18.1691 20.9974 18.2281 21.0448 18.2635 21.0921C18.2989 21.1513 18.3343 21.2105 18.3579 21.2815C18.3815 21.3525 18.3815 21.4353 18.3815 21.5182V22.5243C18.3815 22.5598 18.3933 22.5953 18.4051 22.619C18.4169 22.6545 18.4523 22.6663 18.4877 22.6663V22.69H17.9803V22.7018Z" fill="white"/>
<path d="M20.2338 21.033C20.222 21.0567 20.2102 21.0922 20.1866 21.1396L19.6085 22.6901H19.4315L18.8298 21.0922C18.818 21.0567 18.8062 21.033 18.7826 21.0094C18.759 20.9857 18.7354 20.9739 18.7 20.9739V20.9502H19.1955V20.9739C19.1483 20.9739 19.1247 20.9857 19.1129 21.0094C19.1011 21.0212 19.1011 21.0567 19.1129 21.0922L19.5613 22.3587L19.9978 21.1277C20.0096 21.0804 20.0214 21.0449 20.0096 21.0212C20.0096 20.9857 19.9742 20.9739 19.9152 20.9739V20.9502H20.3046V20.9739C20.281 20.9857 20.2456 21.0094 20.2338 21.033Z" fill="white"/>
<path d="M20.7057 21.743C20.7057 21.8377 20.7175 21.9324 20.7411 22.027C20.7647 22.1217 20.8001 22.2046 20.8473 22.2756C20.8945 22.3466 20.9535 22.4058 21.0361 22.4532C21.1186 22.5005 21.2012 22.5242 21.3192 22.5242C21.3664 22.5242 21.4136 22.5242 21.4726 22.5123C21.5198 22.5005 21.5788 22.4887 21.626 22.4768C21.6732 22.465 21.7204 22.4413 21.7675 22.4058C21.8147 22.3821 21.8501 22.3466 21.8737 22.2993L21.9091 22.3585C21.8383 22.4887 21.7439 22.5834 21.626 22.6544C21.508 22.7136 21.3664 22.7491 21.2248 22.7491C21.0951 22.7491 20.9889 22.7254 20.8945 22.678C20.8001 22.6307 20.7293 22.5715 20.6703 22.4887C20.6113 22.4058 20.5641 22.3111 20.5405 22.2046C20.5169 22.0981 20.4933 21.9915 20.4933 21.8732C20.4933 21.7548 20.5051 21.6364 20.5405 21.5299C20.5759 21.4116 20.6231 21.3169 20.6821 21.2222C20.7411 21.1275 20.8237 21.0565 20.9181 21.0091C21.0125 20.9499 21.1304 20.9263 21.2602 20.9263C21.3782 20.9263 21.4844 20.9499 21.567 20.9973C21.6496 21.0446 21.7204 21.1038 21.7675 21.1748C21.8147 21.2458 21.8619 21.3287 21.8855 21.4234C21.9091 21.5181 21.9327 21.6128 21.9445 21.7193V21.7548H20.7057V21.743ZM21.5788 21.3997C21.567 21.3405 21.5434 21.2814 21.508 21.234C21.4726 21.1867 21.4372 21.1393 21.39 21.1156C21.3428 21.0801 21.2838 21.0683 21.213 21.0683C21.1304 21.0683 21.0715 21.0801 21.0125 21.1156C20.9535 21.1393 20.9063 21.1867 20.8709 21.234C20.8355 21.2814 20.8001 21.3405 20.7765 21.3997C20.7529 21.4589 20.7411 21.5299 20.7293 21.6009H21.6142C21.6024 21.5299 21.5906 21.4707 21.5788 21.3997Z" fill="white"/>
<path d="M22.322 22.7613L22.3338 22.276L22.3574 22.2641C22.3692 22.3351 22.4046 22.4062 22.4518 22.4535C22.499 22.5009 22.558 22.5364 22.617 22.5719C22.676 22.5955 22.735 22.6074 22.8057 22.6074C22.8765 22.6074 22.9355 22.5955 22.9827 22.5719C23.0417 22.5482 23.0771 22.5127 23.1125 22.4772C23.1479 22.4298 23.1597 22.3825 23.1597 22.3115C23.1597 22.2405 23.1361 22.1813 23.1007 22.1339C23.0535 22.0866 23.0063 22.0392 22.9473 22.0037C22.8883 21.9682 22.8175 21.9327 22.7468 21.8972C22.676 21.8617 22.6052 21.8262 22.5462 21.7788C22.4872 21.7315 22.4282 21.6841 22.3928 21.6131C22.3456 21.5539 22.3338 21.4711 22.3338 21.3764C22.3338 21.3054 22.3456 21.2344 22.381 21.1752C22.4046 21.116 22.4518 21.0687 22.499 21.0213C22.5462 20.9858 22.6052 20.9503 22.676 20.9266C22.7468 20.9029 22.8057 20.8911 22.8765 20.8911C22.9473 20.8911 23.0181 20.9029 23.0771 20.9148C23.1361 20.9385 23.2069 20.9503 23.2777 20.9621L23.3013 20.903H23.3249V21.3054H23.3013C23.2541 21.1989 23.1951 21.1278 23.1125 21.0805C23.0299 21.0331 22.9473 21.0095 22.8647 21.0095C22.7821 21.0095 22.7114 21.0331 22.6524 21.0805C22.5934 21.1278 22.558 21.187 22.558 21.2699C22.558 21.3409 22.5816 21.3882 22.6288 21.4356C22.676 21.4829 22.7232 21.5184 22.7939 21.5539C22.8529 21.5895 22.9237 21.625 23.0063 21.6605C23.0889 21.696 23.1479 21.7433 23.2187 21.7907C23.2777 21.838 23.3367 21.8972 23.3839 21.9564C23.431 22.0156 23.4546 22.0984 23.4546 22.1931C23.4546 22.347 23.3957 22.4653 23.2895 22.5482C23.2305 22.5955 23.1597 22.6311 23.0889 22.6547C23.0181 22.6784 22.9355 22.6902 22.8647 22.6902C22.8057 22.6902 22.7468 22.6902 22.6996 22.6784C22.6406 22.6666 22.5816 22.6547 22.5344 22.6429C22.5108 22.6429 22.499 22.6311 22.4754 22.6311C22.4518 22.6311 22.44 22.6192 22.4164 22.6192C22.4046 22.6192 22.3928 22.6311 22.3928 22.6666C22.381 22.6902 22.381 22.7139 22.3692 22.7139H22.322V22.7613Z" fill="white"/>
<path d="M24.717 22.631C24.6934 22.6547 24.658 22.6665 24.6226 22.6784C24.5872 22.6902 24.5519 22.702 24.5165 22.7139C24.4811 22.7257 24.4457 22.7257 24.4221 22.7257C24.3395 22.7257 24.2805 22.7139 24.2333 22.6902C24.1861 22.6665 24.1507 22.631 24.1271 22.5837C24.1035 22.5363 24.0799 22.489 24.0681 22.4298C24.0563 22.3706 24.0563 22.3114 24.0563 22.2404V21.0449H23.785V20.9621L24.0445 20.9384C24.0917 20.8674 24.1153 20.7964 24.1389 20.7135C24.1625 20.6307 24.1861 20.5597 24.2097 20.4768C24.2215 20.4768 24.2333 20.465 24.2451 20.465C24.2569 20.4531 24.2687 20.4531 24.2805 20.4413C24.2923 20.4413 24.3041 20.4295 24.3159 20.4413C24.3277 20.4413 24.3277 20.4531 24.3277 20.465V20.9266H24.7288V21.0213H24.3277V22.2167C24.3277 22.2523 24.3277 22.2878 24.3395 22.3233C24.3513 22.3588 24.3513 22.4061 24.3749 22.4298C24.3867 22.4653 24.4103 22.489 24.4457 22.5127C24.4693 22.5363 24.5047 22.5482 24.5519 22.5482C24.5872 22.5482 24.6344 22.5482 24.6698 22.5363C24.7052 22.5245 24.7406 22.5127 24.776 22.489L24.7996 22.5245C24.7642 22.5955 24.7406 22.6192 24.717 22.631Z" fill="white"/>
<path d="M26.5576 22.3349C26.475 22.4651 26.3688 22.5716 26.2508 22.6427C26.121 22.7137 25.9912 22.7492 25.8497 22.7492C25.7081 22.7492 25.5783 22.7137 25.4485 22.6545C25.3188 22.5835 25.2244 22.4888 25.1418 22.3467C25.0592 22.2165 25.0238 22.039 25.0238 21.8378C25.0238 21.6366 25.0592 21.459 25.1418 21.3288C25.2244 21.1868 25.3306 21.0921 25.4485 21.0211C25.5783 20.9501 25.7081 20.9146 25.8497 20.9146C25.9912 20.9146 26.1328 20.9501 26.2508 21.0211C26.3806 21.0921 26.475 21.1868 26.5576 21.3288C26.6401 21.4709 26.6755 21.6366 26.6755 21.8378C26.6755 22.0272 26.6401 22.1929 26.5576 22.3349ZM26.298 21.4117C26.239 21.2933 26.1682 21.2105 26.0856 21.1513C26.003 21.0921 25.9087 21.0566 25.8143 21.0566C25.7199 21.0566 25.6373 21.0803 25.5547 21.1276C25.4721 21.1868 25.4131 21.2696 25.3541 21.388C25.307 21.5064 25.2834 21.6484 25.2834 21.8259C25.2834 21.9917 25.3188 22.1337 25.3777 22.2402C25.4367 22.3586 25.5075 22.4414 25.5901 22.5006C25.6727 22.5598 25.7671 22.5953 25.8615 22.5953C25.9559 22.5953 26.0384 22.5716 26.121 22.5125C26.2036 22.4533 26.2626 22.3704 26.3216 22.2521C26.3688 22.1337 26.3924 21.9917 26.3924 21.8141C26.3924 21.6602 26.357 21.5182 26.298 21.4117Z" fill="white"/>
<path d="M27.6194 22.702H27.0295V22.6783C27.0885 22.6783 27.1357 22.6664 27.1475 22.6546C27.1593 22.6309 27.1711 22.5954 27.1711 22.5244V21.1869C27.1711 21.1514 27.1711 21.1159 27.1593 21.104C27.1593 21.0922 27.1475 21.0804 27.1357 21.0804C27.1239 21.0804 27.1121 21.0804 27.0885 21.0804C27.0649 21.0804 27.0531 21.0804 27.0177 21.0685V21.0449L27.348 20.9383H27.4188V21.3053C27.4424 21.2579 27.466 21.2106 27.5014 21.1632C27.5368 21.1159 27.5604 21.0804 27.6076 21.033C27.643 20.9975 27.6902 20.962 27.7374 20.9383C27.7846 20.9147 27.8436 20.9028 27.8908 20.9028C27.9262 20.9028 27.9616 20.9147 27.9969 20.9265C28.0323 20.9502 28.0559 20.9738 28.0559 21.0212C28.0559 21.033 28.0559 21.0449 28.0559 21.0685C28.0559 21.0922 28.0559 21.104 28.0441 21.1277C28.0323 21.1514 28.0323 21.1632 28.0205 21.1869C28.0087 21.1987 27.9969 21.2106 27.9733 21.2224C27.9498 21.2342 27.9262 21.2224 27.9144 21.2106C27.9026 21.1987 27.8908 21.1751 27.879 21.1514C27.8672 21.1277 27.8554 21.104 27.8318 21.0922C27.82 21.0685 27.7964 21.0567 27.7728 21.0567C27.7492 21.0567 27.7256 21.0685 27.6902 21.0804C27.6666 21.0922 27.6312 21.1159 27.6076 21.1396C27.584 21.1632 27.5604 21.1869 27.5368 21.2224C27.5132 21.2461 27.5014 21.2698 27.4896 21.2934C27.4542 21.3408 27.4424 21.4 27.4424 21.4591C27.4424 21.5183 27.4424 21.5775 27.4424 21.6248V22.5126C27.4424 22.5481 27.4424 22.5718 27.4542 22.5954C27.466 22.6191 27.466 22.6309 27.4778 22.6428C27.4896 22.6546 27.5132 22.6546 27.525 22.6546C27.5486 22.6546 27.5722 22.6546 27.6076 22.6546V22.702H27.6194Z" fill="white"/>
<path d="M29.802 22.4769C29.802 22.5243 29.802 22.5598 29.8138 22.5835C29.8138 22.6071 29.8256 22.619 29.8374 22.6308C29.8492 22.6426 29.8728 22.6545 29.8964 22.6545C29.92 22.6545 29.9554 22.6545 29.9908 22.6545V22.69H29.3183V22.6545C29.3537 22.6545 29.3891 22.6545 29.4127 22.6545C29.4363 22.6545 29.4481 22.6426 29.4717 22.6308C29.4835 22.619 29.4953 22.5953 29.4953 22.5835C29.4953 22.5598 29.4953 22.5243 29.4953 22.4888V20.4411C29.4953 20.4056 29.4953 20.3701 29.4953 20.3464C29.4953 20.3227 29.4835 20.299 29.4717 20.2872C29.4599 20.2754 29.4363 20.2635 29.4127 20.2635C29.3891 20.2635 29.3655 20.2635 29.3183 20.2635V20.228H30.1442C30.2503 20.228 30.3565 20.2399 30.4627 20.2635C30.5689 20.2872 30.6633 20.3346 30.7341 20.3819C30.8167 20.4411 30.8757 20.5121 30.9228 20.595C30.97 20.6778 30.9936 20.7843 30.9936 20.9145C30.9936 21.0447 30.97 21.1631 30.9228 21.246C30.8757 21.3406 30.8049 21.4117 30.7223 21.4708C30.6397 21.53 30.5453 21.5655 30.4391 21.5892C30.3329 21.6129 30.215 21.6247 30.097 21.6247L29.802 21.6129V22.4769ZM29.802 21.4353L30.0616 21.4472C30.156 21.4472 30.2386 21.4472 30.3211 21.4235C30.4037 21.3998 30.4627 21.3762 30.5217 21.3288C30.5807 21.2815 30.6161 21.2341 30.6515 21.1631C30.6869 21.0921 30.6987 21.0092 30.6987 20.9027C30.6987 20.808 30.6869 20.737 30.6515 20.666C30.6161 20.595 30.5689 20.5476 30.5217 20.5121C30.4627 20.4766 30.4037 20.4411 30.3211 20.4174C30.2503 20.3937 30.1678 20.3937 30.0852 20.3937C30.0616 20.3937 30.038 20.3937 30.0144 20.3937C29.9908 20.3937 29.9672 20.3819 29.9436 20.3819C29.92 20.3819 29.8964 20.3819 29.8728 20.3819C29.8492 20.3819 29.8256 20.3937 29.8138 20.4056V21.4353H29.802Z" fill="white"/>
<path d="M31.9493 22.702H31.3594V22.6783C31.4184 22.6783 31.4656 22.6664 31.4774 22.6546C31.4892 22.6309 31.501 22.5954 31.501 22.5244V21.1869C31.501 21.1514 31.501 21.1159 31.4892 21.104C31.4892 21.0922 31.4774 21.0804 31.4656 21.0804C31.4538 21.0804 31.442 21.0804 31.4184 21.0804C31.3948 21.0804 31.383 21.0804 31.3476 21.0685V21.0449L31.6779 20.9383H31.7487V21.3053C31.7723 21.2579 31.7959 21.2106 31.8313 21.1632C31.8667 21.1159 31.8903 21.0804 31.9375 21.033C31.9729 20.9975 32.0201 20.962 32.0673 20.9383C32.1145 20.9147 32.1735 20.9028 32.2207 20.9028C32.256 20.9028 32.2914 20.9147 32.3268 20.9265C32.3622 20.9502 32.3858 20.9738 32.3858 21.0212C32.3858 21.033 32.3858 21.0449 32.3858 21.0685C32.3858 21.0922 32.3858 21.104 32.374 21.1277C32.3622 21.1514 32.3622 21.1632 32.3504 21.1869C32.3386 21.1987 32.3268 21.2106 32.3032 21.2224C32.2796 21.2342 32.256 21.2224 32.2442 21.2106C32.2325 21.1987 32.2207 21.1751 32.2089 21.1514C32.1971 21.1277 32.1853 21.104 32.1617 21.0922C32.1499 21.0685 32.1263 21.0567 32.1027 21.0567C32.0791 21.0567 32.0555 21.0685 32.0201 21.0804C31.9965 21.0922 31.9611 21.1159 31.9375 21.1396C31.9139 21.1632 31.8903 21.1869 31.8667 21.2224C31.8431 21.2461 31.8313 21.2698 31.8195 21.2934C31.7841 21.3408 31.7723 21.4 31.7723 21.4591C31.7723 21.5183 31.7723 21.5775 31.7723 21.6248V22.5126C31.7723 22.5481 31.7723 22.5718 31.7841 22.5954C31.7959 22.6191 31.7959 22.6309 31.8077 22.6428C31.8195 22.6546 31.8431 22.6546 31.8549 22.6546C31.8785 22.6546 31.9021 22.6546 31.9375 22.6546V22.702H31.9493Z" fill="white"/>
<path d="M34.1555 22.3349C34.0729 22.4651 33.9668 22.5716 33.8488 22.6427C33.719 22.7137 33.5892 22.7492 33.4476 22.7492C33.3061 22.7492 33.1763 22.7137 33.0465 22.6545C32.9167 22.5835 32.8223 22.4888 32.7397 22.3467C32.6572 22.2165 32.6218 22.039 32.6218 21.8378C32.6218 21.6366 32.6572 21.459 32.7397 21.3288C32.8223 21.1868 32.9285 21.0921 33.0465 21.0211C33.1763 20.9501 33.3061 20.9146 33.4476 20.9146C33.5892 20.9146 33.7308 20.9501 33.8488 21.0211C33.9785 21.0921 34.0729 21.1868 34.1555 21.3288C34.2381 21.4709 34.2735 21.6366 34.2735 21.8378C34.2853 22.0272 34.2381 22.1929 34.1555 22.3349ZM33.9078 21.4117C33.8488 21.2933 33.778 21.2105 33.6954 21.1513C33.6128 21.0921 33.5184 21.0566 33.424 21.0566C33.3297 21.0566 33.2471 21.0803 33.1645 21.1276C33.0819 21.1868 33.0229 21.2696 32.9639 21.388C32.9167 21.5064 32.8931 21.6484 32.8931 21.8259C32.8931 21.9917 32.9285 22.1337 32.9875 22.2402C33.0465 22.3586 33.1173 22.4414 33.1999 22.5006C33.2825 22.5598 33.3768 22.5953 33.4712 22.5953C33.5656 22.5953 33.66 22.5716 33.7308 22.5125C33.8134 22.4533 33.8724 22.3704 33.9314 22.2521C33.9785 22.1337 34.0021 21.9917 34.0021 21.8141C33.9903 21.6602 33.9668 21.5182 33.9078 21.4117Z" fill="white"/>
<path d="M35.3826 22.631C35.359 22.6547 35.3236 22.6665 35.2882 22.6784C35.2528 22.6902 35.2174 22.702 35.182 22.7139C35.1466 22.7257 35.1112 22.7257 35.0876 22.7257C35.005 22.7257 34.946 22.7139 34.8988 22.6902C34.8516 22.6665 34.8162 22.631 34.7926 22.5837C34.769 22.5363 34.7455 22.489 34.7337 22.4298C34.7219 22.3706 34.7219 22.3114 34.7219 22.2404V21.0449H34.4505V20.9621L34.7101 20.9384C34.7573 20.8674 34.7808 20.7964 34.8044 20.7135C34.828 20.6307 34.8516 20.5597 34.8752 20.4768C34.887 20.4768 34.8988 20.465 34.9106 20.465C34.9224 20.4531 34.9342 20.4531 34.946 20.4413C34.9578 20.4413 34.9696 20.4295 34.9814 20.4413C34.9932 20.4413 34.9932 20.4531 34.9932 20.465V20.9266H35.3944V21.0213H34.9932V22.2167C34.9932 22.2523 34.9932 22.2878 35.005 22.3233C35.0168 22.3588 35.0168 22.4061 35.0404 22.4298C35.0522 22.4653 35.0758 22.489 35.1112 22.5127C35.1348 22.5363 35.1702 22.5482 35.2174 22.5482C35.2528 22.5482 35.3 22.5482 35.3354 22.5363C35.3708 22.5245 35.4061 22.5127 35.4415 22.489L35.4651 22.5245C35.4415 22.5955 35.4179 22.6192 35.3826 22.631Z" fill="white"/>
<path d="M35.9607 21.743C35.9607 21.8377 35.9725 21.9324 35.9961 22.027C36.0196 22.1217 36.055 22.2046 36.1022 22.2756C36.1494 22.3466 36.2084 22.4058 36.291 22.4532C36.3736 22.5005 36.4562 22.5242 36.5742 22.5242C36.6214 22.5242 36.6685 22.5242 36.7275 22.5123C36.7747 22.5005 36.8337 22.4887 36.8809 22.4768C36.9281 22.465 36.9753 22.4413 37.0225 22.4058C37.0697 22.3821 37.1051 22.3466 37.1287 22.2993L37.1641 22.3585C37.0933 22.4887 36.9989 22.5834 36.8809 22.6544C36.7629 22.7136 36.6214 22.7491 36.4798 22.7491C36.35 22.7491 36.2438 22.7254 36.1494 22.678C36.055 22.6307 35.9843 22.5715 35.9253 22.4887C35.8663 22.4058 35.8191 22.3111 35.7955 22.2046C35.7719 22.0981 35.7483 21.9915 35.7483 21.8732C35.7483 21.7548 35.7601 21.6364 35.7955 21.5299C35.8309 21.4116 35.8781 21.3169 35.9371 21.2222C35.9961 21.1275 36.0786 21.0565 36.173 21.0091C36.2674 20.9499 36.3854 20.9263 36.5152 20.9263C36.6332 20.9263 36.7393 20.9499 36.8219 20.9973C36.9045 21.0446 36.9753 21.1038 37.0225 21.1748C37.0697 21.2458 37.1169 21.3287 37.1405 21.4234C37.1641 21.5181 37.1877 21.6128 37.1995 21.7193V21.7548H35.9607V21.743ZM36.8337 21.3997C36.8219 21.3405 36.7983 21.2814 36.7629 21.234C36.7275 21.1867 36.6921 21.1393 36.6449 21.1156C36.5978 21.0801 36.5388 21.0683 36.4562 21.0683C36.3736 21.0683 36.3146 21.0801 36.2556 21.1156C36.1966 21.1393 36.1494 21.1867 36.114 21.234C36.0786 21.2814 36.0432 21.3405 36.0196 21.3997C35.9961 21.4589 35.9843 21.5299 35.9725 21.6009H36.8573C36.8573 21.5299 36.8455 21.4707 36.8337 21.3997Z" fill="white"/>
<path d="M38.3911 22.7372C38.2613 22.7372 38.1433 22.7135 38.049 22.6662C37.9546 22.6188 37.872 22.5596 37.8012 22.4768C37.7422 22.3939 37.6832 22.2992 37.6596 22.1927C37.6242 22.0862 37.6124 21.9678 37.6124 21.8495C37.6124 21.7193 37.636 21.6009 37.6714 21.4944C37.7068 21.376 37.7658 21.2813 37.8602 21.1866C37.9192 21.1274 37.99 21.0683 38.0608 21.0328C38.1315 20.9854 38.2141 20.9617 38.2967 20.9381C38.3793 20.9144 38.4619 20.9144 38.5563 20.9262C38.6389 20.9381 38.7215 20.9617 38.804 20.9972C38.8276 21.0091 38.8512 21.0328 38.8748 21.0564C38.8984 21.0801 38.922 21.1156 38.9338 21.1393C38.9456 21.1748 38.9574 21.1985 38.9456 21.2221C38.9456 21.2458 38.922 21.2695 38.8748 21.2813C38.8394 21.2932 38.8158 21.2813 38.804 21.2576C38.7922 21.234 38.7686 21.2103 38.7568 21.1748C38.7332 21.1393 38.7097 21.1156 38.6625 21.0919C38.6153 21.0683 38.5563 21.0564 38.4619 21.0564C38.3557 21.0564 38.2731 21.0801 38.2023 21.1156C38.1315 21.1511 38.0608 21.2103 38.0136 21.2695C37.9664 21.3405 37.931 21.4115 37.9074 21.4944C37.8838 21.5772 37.872 21.6719 37.872 21.7666C37.872 21.8613 37.8838 21.956 37.9074 22.0388C37.931 22.1335 37.9782 22.2164 38.0254 22.2874C38.0726 22.3584 38.1433 22.4176 38.2141 22.465C38.2967 22.5123 38.3793 22.536 38.4855 22.536C38.5209 22.536 38.5681 22.536 38.6153 22.5241C38.6625 22.5123 38.7097 22.5005 38.7568 22.4768C38.804 22.4531 38.8512 22.4294 38.8866 22.4058C38.922 22.3821 38.9574 22.3466 38.9692 22.3111L38.9928 22.3821C38.863 22.6188 38.6507 22.7372 38.3911 22.7372Z" fill="white"/>
<path d="M40.1726 22.631C40.149 22.6547 40.1136 22.6665 40.0782 22.6784C40.0428 22.6902 40.0074 22.702 39.972 22.7139C39.9366 22.7257 39.9012 22.7257 39.8776 22.7257C39.7951 22.7257 39.7361 22.7139 39.6889 22.6902C39.6417 22.6665 39.6063 22.631 39.5827 22.5837C39.5591 22.5363 39.5355 22.489 39.5237 22.4298C39.5119 22.3706 39.5119 22.3114 39.5119 22.2404V21.0449H39.2405V20.9621L39.5001 20.9384C39.5473 20.8674 39.5709 20.7964 39.5945 20.7135C39.6181 20.6307 39.6417 20.5597 39.6653 20.4768C39.6771 20.4768 39.6889 20.465 39.7007 20.465C39.7125 20.4531 39.7243 20.4531 39.7361 20.4413C39.7479 20.4413 39.7597 20.4295 39.7715 20.4413C39.7833 20.4413 39.7833 20.4531 39.7833 20.465V20.9266H40.1844V21.0213H39.7833V22.2167C39.7833 22.2523 39.7833 22.2878 39.795 22.3233C39.8068 22.3588 39.8068 22.4061 39.8304 22.4298C39.8422 22.4653 39.8658 22.489 39.9012 22.5127C39.9248 22.5363 39.9602 22.5482 40.0074 22.5482C40.0428 22.5482 40.09 22.5482 40.1254 22.5363C40.1608 22.5245 40.1962 22.5127 40.2316 22.489L40.2552 22.5245C40.2316 22.5955 40.208 22.6192 40.1726 22.631Z" fill="white"/>
<path d="M40.5974 22.6783C40.6681 22.6783 40.7035 22.6665 40.7271 22.6547C40.7507 22.6428 40.7625 22.5955 40.7625 22.5245V21.187C40.7625 21.1396 40.7625 21.116 40.7507 21.1041C40.7389 21.0923 40.7389 21.0804 40.7271 21.0804C40.7153 21.0804 40.7035 21.0804 40.6799 21.0804C40.6563 21.0804 40.6327 21.0804 40.5974 21.0686V21.0449L40.9513 20.9147H41.0221V22.5126C41.0221 22.5718 41.0221 22.6073 41.0339 22.6192C41.0457 22.6428 41.0693 22.6547 41.1283 22.6547V22.6783H40.5974ZM40.9867 20.4176C40.9513 20.4413 40.9159 20.465 40.8805 20.465C40.8451 20.465 40.8097 20.4531 40.7743 20.4176C40.7389 20.3939 40.7271 20.3466 40.7271 20.2874C40.7271 20.2282 40.7389 20.1927 40.7743 20.1572C40.8097 20.1335 40.8451 20.1099 40.8805 20.1099C40.9159 20.1099 40.9513 20.1217 40.9867 20.1572C41.0221 20.1809 41.0339 20.2282 41.0339 20.2874C41.0339 20.3466 41.0103 20.3821 40.9867 20.4176Z" fill="white"/>
<path d="M43.0042 22.3349C42.9216 22.4651 42.8154 22.5716 42.6974 22.6427C42.5676 22.7137 42.4378 22.7492 42.2963 22.7492C42.1547 22.7492 42.0249 22.7137 41.8951 22.6545C41.7654 22.5835 41.671 22.4888 41.5884 22.3467C41.5058 22.2165 41.4704 22.039 41.4704 21.8378C41.4704 21.6366 41.5058 21.459 41.5884 21.3288C41.671 21.1868 41.7771 21.0921 41.8951 21.0211C42.0249 20.9501 42.1547 20.9146 42.2963 20.9146C42.4378 20.9146 42.5794 20.9501 42.6974 21.0211C42.8272 21.0921 42.9216 21.1868 43.0042 21.3288C43.0867 21.4709 43.1221 21.6366 43.1221 21.8378C43.1339 22.0272 43.0867 22.1929 43.0042 22.3349ZM42.7564 21.4117C42.6974 21.2933 42.6266 21.2105 42.544 21.1513C42.4614 21.0921 42.3671 21.0566 42.2727 21.0566C42.1783 21.0566 42.0957 21.0803 42.0131 21.1276C41.9305 21.1868 41.8715 21.2696 41.8125 21.388C41.7654 21.5064 41.7418 21.6484 41.7418 21.8259C41.7418 21.9917 41.7771 22.1337 41.8361 22.2402C41.8951 22.3586 41.9659 22.4414 42.0485 22.5006C42.1311 22.5598 42.2255 22.5953 42.3199 22.5953C42.4142 22.5953 42.4968 22.5716 42.5794 22.5125C42.662 22.4533 42.721 22.3704 42.78 22.2521C42.8272 22.1337 42.8508 21.9917 42.8508 21.8141C42.839 21.6602 42.8154 21.5182 42.7564 21.4117Z" fill="white"/>
<path d="M44.5733 22.7018V22.6782C44.6323 22.6782 44.6795 22.6663 44.6913 22.6545C44.7031 22.6308 44.7149 22.5953 44.7149 22.5243V21.5419C44.7149 21.4827 44.7031 21.4353 44.6913 21.3762C44.6795 21.3288 44.6559 21.2815 44.6323 21.246C44.6087 21.2105 44.5733 21.1749 44.5261 21.1513C44.4789 21.1276 44.4317 21.1158 44.3727 21.1158C44.2666 21.1158 44.184 21.1394 44.1132 21.1986C44.0424 21.2578 43.9834 21.3288 43.948 21.4235C43.948 21.4353 43.9362 21.4472 43.9244 21.4827C43.9126 21.5064 43.9126 21.53 43.9126 21.5419V22.5361C43.9126 22.5835 43.9126 22.6071 43.9126 22.6427C43.9126 22.6663 43.9362 22.6782 43.9952 22.6782V22.7018H43.5233V22.6782C43.5823 22.6782 43.6177 22.6663 43.6295 22.6427C43.6413 22.619 43.6413 22.5835 43.6413 22.5243V21.1868C43.6413 21.1513 43.6413 21.1158 43.6295 21.1039C43.6295 21.0921 43.6177 21.0803 43.6059 21.0803C43.5941 21.0803 43.5823 21.0803 43.5705 21.0803C43.5587 21.0803 43.5351 21.0803 43.5115 21.0803V21.0448L43.83 20.9382H43.9008V21.2578C43.9716 21.1513 44.0542 21.0684 44.1368 21.0092C44.2312 20.9501 44.3373 20.9146 44.4671 20.9146C44.5615 20.9146 44.6323 20.9264 44.7031 20.9619C44.7621 20.9974 44.8211 21.0448 44.8565 21.0921C44.8919 21.1513 44.9273 21.2105 44.9508 21.2815C44.9744 21.3525 44.9744 21.4353 44.9744 21.5182V22.5243C44.9744 22.5598 44.9862 22.5953 44.998 22.619C45.0098 22.6545 45.0452 22.6663 45.0806 22.6663V22.69H44.5733V22.7018Z" fill="white"/>
<path d="M48.0301 20.5948C48.0183 20.5475 48.0065 20.512 47.9947 20.4883C47.9829 20.4646 47.9593 20.441 47.9357 20.4291C47.9121 20.4173 47.8885 20.4055 47.8532 20.4055C47.8178 20.4055 47.7824 20.4055 47.7352 20.4055H47.0155C46.9683 20.4055 46.9447 20.4055 46.9447 20.4173C46.9329 20.4291 46.9329 20.4528 46.9329 20.4883V21.3287H47.629C47.6644 21.3287 47.6998 21.3287 47.7352 21.3287C47.7588 21.3287 47.7942 21.3169 47.806 21.305C47.8296 21.2932 47.8414 21.2695 47.8532 21.2458C47.865 21.2222 47.8767 21.1867 47.8767 21.1511H47.9239V21.7074H47.8767C47.8649 21.6246 47.8532 21.5654 47.8178 21.5536C47.7824 21.5299 47.7234 21.5181 47.6408 21.5181H46.9329V22.5005C46.9329 22.5478 46.9329 22.5715 46.9329 22.5952C46.9329 22.6188 46.9447 22.6307 46.9565 22.6425C46.9683 22.6544 46.9919 22.6662 47.0155 22.6662C47.0391 22.6662 47.0745 22.6662 47.1099 22.6662V22.7017H46.4374V22.6662C46.4728 22.6662 46.5082 22.6662 46.5318 22.6662C46.5554 22.6662 46.5672 22.6544 46.5908 22.6425C46.6026 22.6307 46.6143 22.607 46.6143 22.5952C46.6143 22.5715 46.6143 22.536 46.6143 22.5005V20.4528C46.6143 20.4173 46.6143 20.3818 46.6143 20.3581C46.6143 20.3344 46.6026 20.3108 46.5908 20.2989C46.579 20.2871 46.5672 20.2753 46.5436 20.2753C46.52 20.2753 46.4846 20.2753 46.4492 20.2753V20.2397H48.0655V20.6185H48.0301V20.5948Z" fill="white"/>
<path d="M49.5403 22.7138L49.5049 22.702V22.3824C49.4341 22.4889 49.3515 22.5836 49.2689 22.6428C49.1863 22.702 49.0684 22.7375 48.9386 22.7375C48.7616 22.7375 48.6318 22.6783 48.5374 22.5718C48.4549 22.4652 48.4077 22.3232 48.4077 22.1575V21.1159C48.4077 21.0567 48.3959 21.0212 48.3841 21.0094C48.3605 20.9975 48.3369 20.9857 48.2779 20.9857V20.9502H48.679L48.6672 22.122C48.6672 22.2285 48.6908 22.3114 48.7262 22.3706C48.7616 22.4297 48.8206 22.4771 48.8796 22.5008C48.9386 22.5244 49.0094 22.5363 49.0802 22.5244C49.151 22.5126 49.2099 22.5008 49.2807 22.4534C49.3397 22.4179 49.3869 22.3706 49.4341 22.2995C49.4695 22.2404 49.4931 22.1575 49.4931 22.0746V21.1041C49.4931 21.0449 49.4813 21.0094 49.4577 20.9975C49.4341 20.9857 49.3987 20.9739 49.3397 20.9739V20.9502H49.7645L49.7527 22.4889C49.7527 22.5363 49.7645 22.5718 49.7763 22.5718C49.7998 22.5836 49.8234 22.5836 49.8706 22.5836V22.6073L49.5403 22.7138Z" fill="white"/>
<path d="M51.3572 22.7018V22.6782C51.4162 22.6782 51.4634 22.6663 51.4752 22.6545C51.487 22.6308 51.4988 22.5953 51.4988 22.5243V21.5419C51.4988 21.4827 51.487 21.4353 51.4752 21.3762C51.4634 21.3288 51.4398 21.2815 51.4162 21.246C51.3926 21.2105 51.3572 21.1749 51.31 21.1513C51.2628 21.1276 51.2156 21.1158 51.1566 21.1158C51.0504 21.1158 50.9678 21.1394 50.8971 21.1986C50.8263 21.2578 50.7673 21.3288 50.7319 21.4235C50.7319 21.4353 50.7201 21.4472 50.7083 21.4827C50.6965 21.5064 50.6965 21.53 50.6965 21.5419V22.5361C50.6965 22.5835 50.6965 22.6071 50.6965 22.6427C50.6965 22.6663 50.7201 22.6782 50.7791 22.6782V22.7018H50.3071V22.6782C50.3661 22.6782 50.4015 22.6663 50.4133 22.6427C50.4251 22.619 50.4251 22.5835 50.4251 22.5243V21.1868C50.4251 21.1513 50.4251 21.1158 50.4133 21.1039C50.4133 21.0921 50.4015 21.0803 50.3897 21.0803C50.3779 21.0803 50.3661 21.0803 50.3543 21.0803C50.3425 21.0803 50.3189 21.0803 50.2953 21.0803V21.0448L50.6139 20.9382H50.6847V21.2578C50.7555 21.1513 50.8381 21.0684 50.9207 21.0092C51.015 20.9501 51.1212 20.9146 51.251 20.9146C51.3454 20.9146 51.4162 20.9264 51.487 20.9619C51.546 20.9974 51.6049 21.0448 51.6403 21.0921C51.6757 21.1513 51.7111 21.2105 51.7347 21.2815C51.7583 21.3525 51.7583 21.4353 51.7583 21.5182V22.5243C51.7583 22.5598 51.7701 22.5953 51.7819 22.619C51.7937 22.6545 51.8291 22.6663 51.8645 22.6663V22.69H51.3572V22.7018Z" fill="white"/>
<path d="M53.5044 22.7137V22.4415C53.3865 22.6309 53.2095 22.7256 52.9971 22.7256C52.8673 22.7256 52.7494 22.7019 52.655 22.6545C52.5606 22.6072 52.4898 22.548 52.4308 22.4652C52.3718 22.3823 52.3246 22.2876 52.301 22.1811C52.2774 22.0746 52.2538 21.9562 52.2538 21.8378C52.2538 21.7195 52.2656 21.6011 52.301 21.4946C52.3364 21.3762 52.3836 21.2815 52.4426 21.1987C52.5016 21.1158 52.5842 21.0448 52.6786 20.9856C52.773 20.9264 52.8909 20.9028 53.0207 20.9028C53.2213 20.9028 53.3865 20.9856 53.5044 21.1513V20.3228C53.5044 20.2991 53.5044 20.2754 53.5044 20.2518C53.5044 20.2281 53.4926 20.2163 53.4573 20.2044C53.4455 20.2044 53.4337 20.2044 53.4101 20.2044C53.3983 20.2044 53.3747 20.2044 53.3629 20.2044V20.1689C53.3747 20.1689 53.4101 20.1571 53.4573 20.1452C53.5044 20.1334 53.5398 20.1216 53.587 20.1097C53.6342 20.0979 53.6932 20.0861 53.764 20.0742V22.4888C53.764 22.5362 53.7758 22.5717 53.7994 22.5717C53.823 22.5835 53.8584 22.5835 53.9056 22.5835V22.6072L53.5044 22.7137ZM53.5044 21.6366C53.5044 21.5064 53.4808 21.3999 53.4337 21.317C53.3865 21.2223 53.3275 21.1632 53.2567 21.1158C53.1859 21.0685 53.1033 21.0566 53.0207 21.0566C52.9381 21.0566 52.8555 21.0803 52.7848 21.1395C52.714 21.1868 52.655 21.2697 52.6078 21.3762C52.5606 21.4827 52.537 21.6129 52.537 21.7786C52.537 21.9562 52.5606 22.0982 52.6078 22.2048C52.655 22.3231 52.714 22.406 52.7848 22.4652C52.8555 22.5243 52.9381 22.5598 53.0207 22.5598C53.1033 22.5717 53.1859 22.548 53.2567 22.5125C53.3275 22.477 53.3865 22.4178 53.4337 22.3468C53.4808 22.2758 53.5044 22.1811 53.5044 22.0746V21.6366Z" fill="white"/>
<path d="M5.76928 35.0001V34.9054C5.87546 34.9054 5.95805 34.9054 6.01704 34.8936C6.07603 34.8817 6.13502 34.8581 6.17042 34.8344C6.20581 34.7989 6.22941 34.7515 6.24121 34.6923C6.253 34.6332 6.2648 34.5503 6.2648 34.4438V29.2713L3.82259 35.0119H3.49224L1.03823 29.3897V34.1952C1.03823 34.3136 1.03823 34.4201 1.03823 34.5148C1.03823 34.6095 1.06183 34.6805 1.08543 34.7397C1.10902 34.7989 1.15622 34.8462 1.227 34.8699C1.29779 34.8936 1.39218 34.9172 1.53376 34.9172V35.0119H0V34.9172C0.129779 34.9172 0.235962 34.9054 0.306751 34.8699C0.37754 34.8462 0.436531 34.7989 0.460127 34.7397C0.483723 34.6805 0.507319 34.6095 0.507319 34.5148C0.507319 34.4201 0.507319 34.3136 0.507319 34.1834V29.0701C0.507319 28.9517 0.495521 28.8689 0.483723 28.7979C0.471925 28.7387 0.436531 28.6913 0.401136 28.6558C0.365742 28.6322 0.306751 28.6085 0.247761 28.6085C0.176972 28.5966 0.094385 28.5966 0 28.5966V28.502H1.48656L3.81079 33.8165L6.06423 28.502H7.5272V28.5966C7.42102 28.5966 7.33843 28.5966 7.27944 28.6085C7.22045 28.6203 7.17326 28.644 7.13786 28.6677C7.10247 28.7032 7.09067 28.7505 7.07887 28.8097C7.06707 28.8689 7.06707 28.9517 7.06707 29.0583V34.4438C7.06707 34.5503 7.06707 34.6332 7.07887 34.6923C7.09067 34.7515 7.11427 34.7989 7.13786 34.8344C7.17326 34.8699 7.22045 34.8817 7.27944 34.8936C7.33843 34.9054 7.42102 34.9054 7.5272 34.9054V35.0001H5.76928Z" fill="white"/>
<path d="M16.0573 35.0001H11.692V34.9054C11.8925 34.9054 12.0105 34.8817 12.0695 34.8225C12.1167 34.7634 12.1403 34.6332 12.1403 34.4319V29.0701C12.1403 28.8689 12.1167 28.7387 12.0695 28.6795C12.0223 28.6203 11.8925 28.5966 11.692 28.5966V28.502H15.9511L15.9629 29.4844H15.8331C15.7977 29.2358 15.7269 29.0938 15.6089 29.0346C15.491 28.9754 15.3258 28.9517 15.1016 28.9517H13.1667C13.0605 28.9517 13.0015 28.9636 12.978 28.9872C12.9662 29.0109 12.9544 29.0701 12.9544 29.1766V31.3663H14.8892C14.9954 31.3663 15.078 31.3663 15.1606 31.3545C15.2314 31.3427 15.3022 31.319 15.3494 31.2953C15.3966 31.2598 15.432 31.2125 15.4556 31.1533C15.4792 31.0941 15.5027 30.9994 15.5145 30.8929H15.6443V32.3369H15.5145C15.5027 32.2186 15.4792 32.1357 15.4556 32.0647C15.432 32.0055 15.3966 31.9463 15.3494 31.9108C15.3022 31.8753 15.2432 31.8516 15.1724 31.8398C15.1016 31.828 15.0072 31.828 14.901 31.828H12.9662V34.3254C12.9662 34.3846 12.978 34.432 13.0133 34.4556C13.0487 34.4793 13.0841 34.503 13.1431 34.503C13.1903 34.5148 13.2375 34.5148 13.2965 34.503C13.3555 34.503 13.4027 34.503 13.4381 34.503H15.019C15.1724 34.503 15.3022 34.4911 15.4202 34.4793C15.5263 34.4675 15.6325 34.4319 15.7269 34.3728C15.8213 34.3254 15.8921 34.2544 15.9629 34.1716C16.0337 34.0887 16.1045 33.9703 16.1634 33.8165H16.3168L16.0573 35.0001Z" fill="white"/>
<path d="M25.6727 35.0002V34.9055C25.7789 34.9055 25.8615 34.9055 25.9205 34.8937C25.9795 34.8818 26.0385 34.8582 26.0739 34.8345C26.1093 34.799 26.1329 34.7516 26.1446 34.6925C26.1564 34.6333 26.1682 34.5504 26.1682 34.4439V29.2714L23.7142 35.0002H23.3839L20.9417 29.378V34.1835C20.9417 34.3019 20.9417 34.4084 20.9417 34.5031C20.9417 34.5978 20.9653 34.6688 20.9889 34.728C21.0125 34.7872 21.0597 34.8345 21.1304 34.8582C21.2012 34.8818 21.2956 34.9055 21.4372 34.9055V35.0002H19.9034V34.9055C20.0332 34.9055 20.1394 34.8937 20.2102 34.8582C20.281 34.8345 20.34 34.7872 20.3636 34.728C20.3872 34.6688 20.4108 34.5978 20.4108 34.5031C20.4108 34.4084 20.4108 34.3019 20.4108 34.1717V29.0584C20.4108 28.94 20.399 28.8572 20.3872 28.7861C20.3754 28.727 20.34 28.6796 20.3046 28.6441C20.2692 28.6204 20.2102 28.5968 20.1512 28.5968C20.0804 28.5849 19.9978 28.5849 19.9034 28.5849V28.4902H21.39L23.7142 33.8047L25.9677 28.4902H27.4306V28.5849C27.3245 28.5849 27.2419 28.5849 27.1829 28.5968C27.1239 28.6086 27.0767 28.6323 27.0413 28.6559C27.0059 28.6915 26.9941 28.7388 26.9823 28.798C26.9705 28.8572 26.9705 28.94 26.9705 29.0465V34.4439C26.9705 34.5504 26.9705 34.6333 26.9823 34.6925C26.9941 34.7516 27.0177 34.799 27.0413 34.8345C27.0767 34.87 27.1239 34.8818 27.1829 34.8937C27.2419 34.9055 27.3245 34.9055 27.4306 34.9055V35.0002H25.6727Z" fill="white"/>
<path d="M31.5954 34.9054C31.7015 34.9054 31.7841 34.9054 31.8431 34.8936C31.9139 34.8817 31.9611 34.8699 31.9965 34.8462C32.0319 34.8225 32.0673 34.7752 32.0791 34.7042C32.0909 34.645 32.1027 34.5503 32.1027 34.4319V29.0701C32.1027 28.9517 32.0909 28.8689 32.0791 28.7979C32.0673 28.7387 32.0319 28.6913 31.9965 28.6558C31.9493 28.6322 31.9021 28.6085 31.8313 28.6085C31.7605 28.5966 31.6779 28.5966 31.5836 28.5966V28.502H33.8252C34.1084 28.502 34.3797 28.5256 34.6511 28.573C34.9224 28.6203 35.1702 28.7032 35.3826 28.8334C35.5949 28.9636 35.7719 29.1293 35.9017 29.3423C36.0314 29.5554 36.1022 29.8395 36.1022 30.1709C36.1022 30.597 35.9961 30.9166 35.7719 31.1296C35.5477 31.3427 35.241 31.4965 34.8398 31.5912C35.0522 31.6267 35.2528 31.6978 35.4415 31.7806C35.6303 31.8635 35.7955 31.9818 35.9371 32.112C36.0786 32.2422 36.1848 32.4079 36.2674 32.5855C36.35 32.763 36.3972 32.9761 36.3972 33.201C36.3972 33.5442 36.3264 33.8283 36.1966 34.0532C36.055 34.2781 35.8781 34.4675 35.6539 34.6095C35.4297 34.7515 35.182 34.8462 34.8988 34.9172C34.6157 34.9764 34.3325 35.0119 34.0494 35.0119H31.6072V34.9054H31.5954ZM32.9167 34.3373C32.9521 34.3964 32.9993 34.4438 33.0583 34.4793C33.1173 34.5148 33.1881 34.5266 33.2707 34.5385C33.3415 34.5503 33.4241 34.5503 33.4949 34.5503C33.5656 34.5503 33.6364 34.5503 33.6954 34.5503C33.9078 34.5503 34.132 34.5266 34.3443 34.4911C34.5567 34.4556 34.7573 34.3846 34.9224 34.2781C35.0994 34.1716 35.2292 34.0414 35.3354 33.8756C35.4415 33.7099 35.4887 33.485 35.4887 33.2246C35.4887 32.9287 35.4179 32.6802 35.2882 32.5026C35.1584 32.3251 34.9932 32.183 34.7926 32.0884C34.5921 31.9937 34.3679 31.9345 34.1084 31.899C33.8606 31.8635 33.6128 31.8516 33.3769 31.8516H32.9167V34.3373ZM32.9285 31.3782H33.8488C34.0494 31.3782 34.2381 31.3545 34.4151 31.319C34.5921 31.2717 34.7455 31.2125 34.887 31.1178C35.0168 31.0231 35.123 30.8929 35.2056 30.739C35.2764 30.5851 35.3236 30.3958 35.3236 30.1709C35.3236 29.946 35.2764 29.7448 35.182 29.5909C35.0876 29.437 34.9696 29.3068 34.828 29.2121C34.6865 29.1174 34.5095 29.0583 34.3207 29.0109C34.1319 28.9754 33.9314 28.9517 33.7426 28.9517C33.6954 28.9517 33.6246 28.9517 33.5538 28.9517C33.4831 28.9517 33.4005 28.9517 33.3297 28.9517C33.2589 28.9636 33.1763 28.9754 33.1173 28.9872C33.0465 29.0109 32.9993 29.0346 32.9639 29.0819V31.3782H32.9285Z" fill="white"/>
<path d="M44.7385 35.0001H40.3849V34.9054C40.5855 34.9054 40.7035 34.8817 40.7625 34.8225C40.8097 34.7634 40.8333 34.6332 40.8333 34.4319V29.0701C40.8333 28.8689 40.8097 28.7387 40.7625 28.6795C40.7153 28.6203 40.5855 28.5966 40.3849 28.5966V28.502H44.6441L44.6559 29.4844H44.5261C44.4907 29.2358 44.4199 29.0938 44.3019 29.0346C44.1839 28.9754 44.0188 28.9517 43.7946 28.9517H41.8597C41.7535 28.9517 41.6945 28.9636 41.6709 28.9872C41.6591 29.0109 41.6473 29.0701 41.6473 29.1766V31.3663H43.5822C43.6884 31.3663 43.771 31.3663 43.8536 31.3545C43.9244 31.3427 43.9952 31.319 44.0424 31.2953C44.0896 31.2598 44.125 31.2125 44.1486 31.1533C44.1721 31.0941 44.1957 30.9994 44.2075 30.8929H44.3373V32.3369H44.2075C44.1957 32.2186 44.1721 32.1357 44.1486 32.0647C44.125 32.0055 44.0896 31.9463 44.0424 31.9108C43.9952 31.8753 43.9362 31.8516 43.8654 31.8398C43.7946 31.828 43.7002 31.828 43.594 31.828H41.6591V34.3254C41.6591 34.3846 41.6709 34.432 41.7063 34.4556C41.7417 34.4793 41.7771 34.503 41.8361 34.503C41.8833 34.5148 41.9305 34.5148 41.9895 34.503C42.0485 34.503 42.0957 34.503 42.1311 34.503H43.712C43.8654 34.503 43.9952 34.4911 44.1132 34.4793C44.2193 34.4675 44.3255 34.4319 44.4199 34.3728C44.5143 34.3254 44.5851 34.2544 44.6559 34.1716C44.7267 34.0887 44.7974 33.9703 44.8564 33.8165H45.0098L44.7385 35.0001Z" fill="white"/>
<path d="M52.8084 35.0002C52.655 34.657 52.5017 34.3611 52.3483 34.0888C52.1949 33.8166 52.0297 33.568 51.8528 33.3313C51.6758 33.0946 51.4752 32.8697 51.2747 32.6448C51.0623 32.4317 50.8263 32.195 50.555 31.9583L49.8707 31.9701V34.4439C49.8707 34.5504 49.8825 34.6333 49.8943 34.7043C49.9061 34.7635 49.9297 34.8108 49.9651 34.8464C50.0005 34.8819 50.0476 34.8937 50.1066 34.9055C50.1656 34.9174 50.2482 34.9174 50.3544 34.9174V35.0121H48.6083V34.9174C48.7027 34.9174 48.7852 34.9174 48.8442 34.9055C48.9032 34.8937 48.9504 34.87 48.9858 34.8464C49.0212 34.8108 49.033 34.7635 49.0448 34.7043C49.0566 34.6451 49.0566 34.5623 49.0566 34.4558V29.0939C49.0566 28.9874 49.0566 28.9045 49.0448 28.8453C49.033 28.7862 49.0094 28.7388 48.9858 28.7033C48.9504 28.6678 48.9032 28.656 48.8442 28.6441C48.7852 28.6323 48.7027 28.6323 48.6083 28.6323V28.5376H50.8971C51.1803 28.5376 51.4516 28.5731 51.6994 28.6323C51.9589 28.6915 52.1831 28.7862 52.3837 28.9282C52.5842 29.0584 52.7376 29.2359 52.8556 29.4608C52.9736 29.6739 53.0326 29.9461 53.0326 30.2657C53.0326 30.5143 52.9854 30.7155 52.9028 30.9049C52.8084 31.0824 52.6904 31.2363 52.537 31.3665C52.3837 31.4967 52.2067 31.5914 52.0061 31.6742C51.8056 31.7452 51.605 31.8044 51.3808 31.8399C51.5696 31.9938 51.7112 32.124 51.8292 32.2305C51.9471 32.3371 52.0415 32.4436 52.1359 32.5383C52.2185 32.633 52.3011 32.7395 52.3837 32.846C52.4663 32.9525 52.5606 33.0709 52.6786 33.2129C52.8084 33.3668 52.9264 33.5562 53.0444 33.7574C53.1624 33.9586 53.2685 34.148 53.3629 34.3256C53.4573 34.5031 53.5517 34.6451 53.6343 34.7753C53.7169 34.8937 53.7994 34.9529 53.8702 34.9529V35.0476H52.8084V35.0002ZM49.8707 31.5085H50.3308C50.555 31.5085 50.7791 31.4848 51.0033 31.4493C51.2275 31.402 51.4162 31.331 51.605 31.2244C51.782 31.1179 51.9235 30.9759 52.0297 30.7983C52.1359 30.6208 52.1949 30.3959 52.1949 30.1237C52.1949 29.8869 52.1477 29.6976 52.0651 29.5437C51.9707 29.3898 51.8528 29.2714 51.7112 29.1886C51.5578 29.1057 51.3926 29.0466 51.2039 29.0111C51.0151 28.9755 50.8145 28.9637 50.6258 28.9637C50.5668 28.9637 50.5078 28.9637 50.437 28.9637C50.378 28.9637 50.3072 28.9637 50.2364 28.9755C50.1656 28.9874 50.1066 28.9992 50.0358 29.0229C49.9769 29.0466 49.9297 29.0821 49.8825 29.1294V31.5085H49.8707Z" fill="white"/>
<path d="M0.129761 25.7676H53.8112" stroke="white"/>
</g>
<defs>
<clipPath id="clip0_11_2435">
<rect width="54" height="35" fill="white"/>
</clipPath>
</defs>
</svg>
