<svg width="135" height="37" viewBox="0 0 135 37" fill="none" xmlns="http://www.w3.org/2000/svg">
<g clip-path="url(#clip0_50_12319)">
<path d="M35.5422 24.1885C35.5422 23.3497 36.1712 22.6809 37.0589 22.6809C37.5934 22.6809 38.0662 22.9593 38.3112 23.3864L37.9755 23.5817C37.8095 23.2627 37.4583 23.0539 37.0589 23.0539C36.3796 23.0539 35.9223 23.5488 35.9223 24.1867C35.9223 24.8245 36.3777 25.3155 37.0589 25.3155C37.4564 25.3155 37.8095 25.1087 37.9755 24.7916L38.3112 24.983C38.07 25.4101 37.5972 25.6924 37.0589 25.6924C36.1712 25.6924 35.5422 25.0197 35.5422 24.1847V24.1885Z" fill="white"/>
<path d="M40.5399 24.6022C40.5399 24.1789 40.2216 23.8581 39.8028 23.8581C39.3841 23.8581 39.0696 24.177 39.0696 24.6022C39.0696 25.0275 39.3899 25.3444 39.8028 25.3444C40.2158 25.3444 40.5399 25.0255 40.5399 24.6022ZM40.9008 23.5642V25.6402H40.5399V25.2826C40.374 25.5358 40.1096 25.6943 39.7565 25.6943C39.1796 25.6943 38.7068 25.2168 38.7068 24.6022C38.7068 23.9875 39.1796 23.5101 39.7565 23.5101C40.1077 23.5101 40.374 23.6686 40.5399 23.9218V23.5642H40.9008Z" fill="white"/>
<path d="M43.4074 24.3664V25.6403H43.0466V24.3857C43.0466 24.0456 42.8517 23.8542 42.5333 23.8542C42.2149 23.8542 41.9332 24.0494 41.9332 24.5385V25.6383H41.5723V23.5624H41.9332V23.862C42.0856 23.6165 42.3133 23.5082 42.6047 23.5082C43.089 23.5082 43.4094 23.833 43.4094 24.3645L43.4074 24.3664Z" fill="white"/>
<path d="M45.7481 24.6022C45.7481 24.1789 45.4297 23.8581 45.011 23.8581C44.5922 23.8581 44.2777 24.177 44.2777 24.6022C44.2777 25.0275 44.598 25.3444 45.011 25.3444C45.4239 25.3444 45.7481 25.0255 45.7481 24.6022ZM46.1089 23.5642V25.6402H45.7481V25.2826C45.5821 25.5358 45.3178 25.6943 44.9646 25.6943C44.3877 25.6943 43.9149 25.2168 43.9149 24.6022C43.9149 23.9875 44.3877 23.5101 44.9646 23.5101C45.3158 23.5101 45.5821 23.6686 45.7481 23.9218V23.5642H46.1089Z" fill="white"/>
<path d="M48.4959 24.6041C48.4959 24.1808 48.1775 23.8599 47.7588 23.8599C47.34 23.8599 47.0255 24.1789 47.0255 24.6041C47.0255 25.0294 47.3458 25.3464 47.7588 25.3464C48.1717 25.3464 48.4959 25.0275 48.4959 24.6041ZM48.8567 22.735V25.6402H48.4959V25.2826C48.3299 25.5358 48.0656 25.6943 47.7125 25.6943C47.1355 25.6943 46.6627 25.2168 46.6627 24.6022C46.6627 23.9875 47.1355 23.5101 47.7125 23.5101C48.0636 23.5101 48.3299 23.6686 48.4959 23.9218V22.735H48.8567Z" fill="white"/>
<path d="M49.5263 23.5642H49.8871V25.6403H49.5263V23.5642ZM49.4645 22.9457C49.4645 22.8124 49.5726 22.7002 49.7096 22.7002C49.8466 22.7002 49.9508 22.8124 49.9508 22.9457C49.9508 23.0791 49.8428 23.1873 49.7096 23.1873C49.5765 23.1873 49.4645 23.0791 49.4645 22.9457Z" fill="white"/>
<path d="M52.278 24.6022C52.278 24.1789 51.9596 23.8581 51.5409 23.8581C51.1221 23.8581 50.8076 24.177 50.8076 24.6022C50.8076 25.0275 51.1279 25.3444 51.5409 25.3444C51.9538 25.3444 52.278 25.0255 52.278 24.6022ZM52.6388 23.5642V25.6402H52.278V25.2826C52.112 25.5358 51.8477 25.6943 51.4946 25.6943C50.9176 25.6943 50.4448 25.2168 50.4448 24.6022C50.4448 23.9875 50.9176 23.5101 51.4946 23.5101C51.8458 23.5101 52.112 23.6686 52.278 23.9218V23.5642H52.6388Z" fill="white"/>
<path d="M55.1455 24.3664V25.6403H54.7846V24.3857C54.7846 24.0456 54.5897 23.8542 54.2713 23.8542C53.9529 23.8542 53.6712 24.0494 53.6712 24.5385V25.6383H53.3104V23.5624H53.6712V23.862C53.8236 23.6165 54.0513 23.5082 54.3427 23.5082C54.8271 23.5082 55.1474 23.833 55.1474 24.3645L55.1455 24.3664Z" fill="white"/>
<path d="M57.353 22.7351V25.6403H56.967V22.7351H57.353Z" fill="white"/>
<path d="M59.8963 24.3664V25.6403H59.5354V24.3857C59.5354 24.0456 59.3405 23.8542 59.0221 23.8542C58.7037 23.8542 58.422 24.0494 58.422 24.5385V25.6383H58.0612V23.5624H58.422V23.862C58.5744 23.6165 58.8021 23.5082 59.0935 23.5082C59.5779 23.5082 59.8982 23.833 59.8982 24.3645L59.8963 24.3664Z" fill="white"/>
<path d="M62.3334 23.5642L61.5036 25.6403H61.081L60.2513 23.5642H60.6411L61.2914 25.2537L61.9417 23.5642H62.3314H62.3334Z" fill="white"/>
<path d="M62.9335 24.4533H64.3171C64.2553 24.0417 63.9601 23.8522 63.6494 23.8522C63.2596 23.8522 62.9895 24.0939 62.9316 24.4533H62.9335ZM63.6841 25.3541C63.9697 25.3541 64.1781 25.2208 64.2804 25.0507L64.5872 25.2246C64.4058 25.5068 64.0894 25.6943 63.6764 25.6943C63.0088 25.6943 62.5649 25.2246 62.5649 24.6022C62.5649 23.9798 63.0049 23.5101 63.6513 23.5101C64.2978 23.5101 64.6837 24.0242 64.6837 24.6061C64.6837 24.6602 64.6798 24.7143 64.6721 24.7684H62.9354C63.0068 25.1415 63.3001 25.3541 63.6861 25.3541H63.6841Z" fill="white"/>
<path d="M66.6094 25.0719C66.6094 25.4584 66.2775 25.6943 65.8337 25.6943C65.4188 25.6943 65.1294 25.4952 65.0098 25.2091L65.3204 25.0313C65.386 25.2304 65.5771 25.3541 65.8337 25.3541C66.0537 25.3541 66.2428 25.2748 66.2428 25.0719C66.2428 24.6273 65.0831 24.8805 65.0831 24.1287C65.0831 23.7633 65.3976 23.5101 65.8164 23.5101C66.156 23.5101 66.43 23.6725 66.5631 23.9411L66.2602 24.1112C66.1811 23.9237 65.9997 23.8464 65.8164 23.8464C65.633 23.8464 65.4478 23.9373 65.4478 24.1247C65.4478 24.5693 66.6075 24.3084 66.6075 25.0719H66.6094Z" fill="white"/>
<path d="M67.6534 23.9141V25.0391C67.6534 25.3542 67.8367 25.3348 68.2053 25.3175V25.6421C67.5839 25.7253 67.2926 25.5591 67.2926 25.0411V23.9161H66.8835V23.5682H67.2926V23.0946L67.6534 22.9863V23.5682H68.2053V23.9161H67.6534V23.9141Z" fill="white"/>
<path d="M71.7848 24.349V25.6403H71.4239V24.3607C71.4239 24.0321 71.2406 23.8542 70.9685 23.8542C70.6791 23.8542 70.4591 24.0378 70.4591 24.4844V25.6383H70.0982V24.3587C70.0982 24.0301 69.9284 23.8523 69.6583 23.8523C69.3881 23.8523 69.1276 24.0359 69.1276 24.4824V25.6364H68.7668V23.5604H69.1276V23.8388C69.2762 23.6068 69.4923 23.5063 69.7451 23.5063C70.0268 23.5063 70.2333 23.6358 70.3549 23.86C70.4996 23.6242 70.735 23.5063 71.0052 23.5063C71.4644 23.5063 71.7848 23.8252 71.7848 24.3452V24.349Z" fill="white"/>
<path d="M72.6608 24.4533H74.0444C73.9826 24.0417 73.6874 23.8522 73.3767 23.8522C72.9869 23.8522 72.7187 24.0939 72.6608 24.4533ZM73.4114 25.3541C73.697 25.3541 73.9054 25.2208 74.0077 25.0507L74.3145 25.2246C74.1331 25.5068 73.8167 25.6943 73.4037 25.6943C72.7361 25.6943 72.2922 25.2246 72.2922 24.6022C72.2922 23.9798 72.7322 23.5101 73.3786 23.5101C74.0251 23.5101 74.411 24.0242 74.411 24.6061C74.411 24.6602 74.4071 24.7143 74.3994 24.7684H72.6627C72.7341 25.1415 73.0274 25.3541 73.4134 25.3541H73.4114Z" fill="white"/>
<path d="M76.7845 24.3664V25.6403H76.4236V24.3857C76.4236 24.0456 76.2288 23.8542 75.9104 23.8542C75.592 23.8542 75.3102 24.0494 75.3102 24.5385V25.6383H74.9494V23.5624H75.3102V23.862C75.4627 23.6165 75.6904 23.5082 75.9818 23.5082C76.4661 23.5082 76.7864 23.833 76.7864 24.3645L76.7845 24.3664Z" fill="white"/>
<path d="M77.9847 23.9141V25.0391C77.9847 25.3542 78.168 25.3348 78.5366 25.3175V25.6421C77.9152 25.7253 77.6239 25.5591 77.6239 25.0411V23.9161H77.2148V23.5682H77.6239V23.0946L77.9847 22.9863V23.5682H78.5366V23.9161H77.9847V23.9141Z" fill="white"/>
<path d="M36.0825 29.4171H36.8582C37.1438 29.4171 37.3753 29.1716 37.3753 28.874C37.3753 28.5763 37.1438 28.3347 36.8582 28.3347H36.0825V29.4191V29.4171ZM36.7656 29.765H36.0825V30.8784H35.6965V27.9732H36.8563C37.3541 27.9732 37.7593 28.3753 37.7593 28.874C37.7593 29.2566 37.5065 29.5911 37.1592 29.7167L37.8442 30.8784H37.4178L36.7675 29.765H36.7656Z" fill="white"/>
<path d="M38.4637 29.6916H39.8472C39.7855 29.28 39.4902 29.0905 39.1796 29.0905C38.7898 29.0905 38.5196 29.3321 38.4617 29.6916H38.4637ZM39.2143 30.5924C39.4999 30.5924 39.7083 30.4591 39.8106 30.2889L40.1174 30.4629C39.936 30.745 39.6195 30.9326 39.2066 30.9326C38.5389 30.9326 38.0951 30.4629 38.0951 29.8405C38.0951 29.218 38.5351 28.7484 39.1815 28.7484C39.8279 28.7484 40.2138 29.2625 40.2138 29.8444C40.2138 29.8985 40.21 29.9525 40.2023 30.0067H38.4656C38.537 30.3798 38.8303 30.5924 39.2162 30.5924H39.2143Z" fill="white"/>
<path d="M42.4657 29.8269C42.4657 29.4114 42.1454 29.0924 41.7286 29.0924C41.3118 29.0924 40.9915 29.4114 40.9915 29.8269C40.9915 30.2425 41.3118 30.5654 41.7286 30.5654C42.1454 30.5654 42.4657 30.2465 42.4657 29.8269ZM42.8227 28.8025V30.7915C42.8227 31.439 42.3056 31.7638 41.7653 31.7638C41.3002 31.7638 40.9529 31.5859 40.7831 31.2573L41.0976 31.0795C41.1922 31.2747 41.3678 31.4274 41.773 31.4274C42.2033 31.4274 42.4657 31.1819 42.4657 30.7915V30.4977C42.2998 30.7509 42.0354 30.9133 41.6862 30.9133C41.0976 30.9133 40.6287 30.4358 40.6287 29.8289C40.6287 29.222 41.0976 28.7503 41.6862 28.7503C42.0354 28.7503 42.2998 28.9088 42.4657 29.162V28.8045H42.8227V28.8025Z" fill="white"/>
<path d="M45.285 28.8025V30.8785H44.9241V30.5789C44.7697 30.8243 44.542 30.9326 44.2526 30.9326C43.7683 30.9326 43.4479 30.6079 43.4479 30.0763V28.8025H43.8088V30.057C43.8088 30.3971 44.0037 30.5885 44.3221 30.5885C44.6405 30.5885 44.9222 30.3933 44.9222 29.9042V28.8044H45.283L45.285 28.8025Z" fill="white"/>
<path d="M45.9545 27.8476H46.3154V30.8784H45.9545V27.8476Z" fill="white"/>
<path d="M48.7062 29.8405C48.7062 29.4171 48.3878 29.0963 47.9691 29.0963C47.5503 29.0963 47.2358 29.4153 47.2358 29.8405C47.2358 30.2658 47.5561 30.5827 47.9691 30.5827C48.382 30.5827 48.7062 30.2638 48.7062 29.8405ZM49.0671 28.8025V30.8785H48.7062V30.5209C48.5403 30.774 48.2759 30.9326 47.9228 30.9326C47.3458 30.9326 46.873 30.4551 46.873 29.8405C46.873 29.2258 47.3458 28.7484 47.9228 28.7484C48.274 28.7484 48.5403 28.9069 48.7062 29.1601V28.8025H49.0671Z" fill="white"/>
<path d="M50.3136 29.1504V30.2754C50.3136 30.5904 50.4969 30.5711 50.8655 30.5537V30.8785C50.2442 30.9616 49.9528 30.7953 49.9528 30.2773V29.1524H49.5437V28.8044H49.9528V28.3309L50.3136 28.2226V28.8044H50.8655V29.1524H50.3136V29.1504Z" fill="white"/>
<path d="M53.019 29.8405C53.019 29.421 52.7006 29.1021 52.2857 29.1021C51.8708 29.1021 51.5563 29.421 51.5563 29.8405C51.5563 30.2599 51.8766 30.5789 52.2857 30.5789C52.6948 30.5789 53.019 30.2599 53.019 29.8405ZM51.1954 29.8405C51.1954 29.2258 51.6798 28.7484 52.2857 28.7484C52.8916 28.7484 53.3798 29.2258 53.3798 29.8405C53.3798 30.4551 52.8916 30.9326 52.2857 30.9326C51.6798 30.9326 51.1954 30.4551 51.1954 29.8405Z" fill="white"/>
<path d="M54.937 28.7658V29.1447C54.6263 29.1311 54.2906 29.2897 54.2906 29.7806V30.8804H53.9297V28.8045H54.2906V29.1524C54.4237 28.8624 54.6765 28.7658 54.937 28.7658Z" fill="white"/>
<path d="M57.2912 28.8025L56.446 31.006C56.2723 31.4719 55.9482 31.7367 55.5256 31.7077V31.3714C55.8034 31.3926 55.9771 31.2226 56.0852 30.948L56.1218 30.8688L55.2188 28.8006H55.6047L56.309 30.4281L56.9053 28.8006H57.2912V28.8025Z" fill="white"/>
<path d="M38.1607 34.6611C38.1607 34.0213 37.6764 33.5284 37.0415 33.5284C36.4067 33.5284 35.9223 34.0233 35.9223 34.6611C35.9223 35.299 36.4067 35.7899 37.0415 35.7899C37.6764 35.7899 38.1607 35.2952 38.1607 34.6611ZM35.5422 34.6611C35.5422 33.8223 36.2002 33.1535 37.0434 33.1535C37.8867 33.1535 38.5486 33.8223 38.5486 34.6611C38.5486 35.5 37.8848 36.1688 37.0434 36.1688C36.2021 36.1688 35.5422 35.4962 35.5422 34.6611Z" fill="white"/>
<path d="M40.1038 34.002V34.3809C39.7932 34.3674 39.4574 34.5259 39.4574 35.0168V36.1167H39.0966V34.0407H39.4574V34.3886C39.5905 34.0987 39.8433 34.002 40.1038 34.002Z" fill="white"/>
<path d="M42.1879 35.0632C42.1879 34.6477 41.8675 34.3287 41.4507 34.3287C41.0339 34.3287 40.7136 34.6477 40.7136 35.0632C40.7136 35.4788 41.0339 35.8016 41.4507 35.8016C41.8675 35.8016 42.1879 35.4827 42.1879 35.0632ZM42.5448 34.0388V36.0277C42.5448 36.6753 42.0277 37 41.4874 37C41.0223 37 40.675 36.8222 40.5052 36.4936L40.8197 36.3158C40.9143 36.511 41.0899 36.6637 41.4951 36.6637C41.9254 36.6637 42.1879 36.4182 42.1879 36.0277V35.7339C42.0219 35.9872 41.7575 36.1495 41.4083 36.1495C40.8197 36.1495 40.3508 35.6721 40.3508 35.0651C40.3508 34.4582 40.8197 33.9866 41.4083 33.9866C41.7575 33.9866 42.0219 34.1451 42.1879 34.3982V34.0407H42.5448V34.0388Z" fill="white"/>
<path d="M44.9318 35.0767C44.9318 34.6535 44.6134 34.3325 44.1947 34.3325C43.7759 34.3325 43.4614 34.6515 43.4614 35.0767C43.4614 35.502 43.7817 35.8189 44.1947 35.8189C44.6076 35.8189 44.9318 35.5 44.9318 35.0767ZM45.2926 34.0388V36.1147H44.9318V35.7571C44.7658 36.0103 44.5015 36.1688 44.1484 36.1688C43.5714 36.1688 43.0986 35.6914 43.0986 35.0767C43.0986 34.462 43.5714 33.9846 44.1484 33.9846C44.4996 33.9846 44.7658 34.1431 44.9318 34.3964V34.0388H45.2926Z" fill="white"/>
<path d="M47.7993 34.841V36.1147H47.4384V34.8603C47.4384 34.5201 47.2435 34.3288 46.9251 34.3288C46.6067 34.3288 46.325 34.5239 46.325 35.013V36.1129H45.9642V34.0369H46.325V34.3365C46.4775 34.091 46.7052 33.9827 46.9965 33.9827C47.4809 33.9827 47.8012 34.3075 47.8012 34.839L47.7993 34.841Z" fill="white"/>
<path d="M48.4245 34.0388H48.7853V36.1147H48.4245V34.0388ZM48.3627 33.4203C48.3627 33.2869 48.4708 33.1748 48.6078 33.1748C48.7448 33.1748 48.849 33.2869 48.849 33.4203C48.849 33.5536 48.7409 33.6619 48.6078 33.6619C48.4747 33.6619 48.3627 33.5536 48.3627 33.4203Z" fill="white"/>
<path d="M50.9813 35.7707V36.1147H49.3854V35.8731L50.4429 34.3829H49.4279V34.0388H50.9407V34.2804L49.8794 35.7707H50.9813Z" fill="white"/>
<path d="M53.1231 35.0767C53.1231 34.6535 52.8048 34.3325 52.386 34.3325C51.9673 34.3325 51.6528 34.6515 51.6528 35.0767C51.6528 35.502 51.9731 35.8189 52.386 35.8189C52.799 35.8189 53.1231 35.5 53.1231 35.0767ZM53.484 34.0388V36.1147H53.1231V35.7571C52.9572 36.0103 52.6928 36.1688 52.3397 36.1688C51.7627 36.1688 51.29 35.6914 51.29 35.0767C51.29 34.462 51.7627 33.9846 52.3397 33.9846C52.6909 33.9846 52.9572 34.1431 53.1231 34.3964V34.0388H53.484Z" fill="white"/>
<path d="M54.7306 34.3885V35.5136C54.7306 35.8286 54.9139 35.8093 55.2824 35.7919V36.1166C54.6611 36.1998 54.3697 36.0335 54.3697 35.5155V34.3905H53.9606V34.0426H54.3697V33.569L54.7306 33.4607V34.0426H55.2824V34.3905H54.7306V34.3885Z" fill="white"/>
<path d="M55.8324 34.0388H56.1932V36.1147H55.8324V34.0388ZM55.7706 33.4203C55.7706 33.2869 55.8787 33.1748 56.0157 33.1748C56.1527 33.1748 56.2569 33.2869 56.2569 33.4203C56.2569 33.5536 56.1488 33.6619 56.0157 33.6619C55.8825 33.6619 55.7706 33.5536 55.7706 33.4203Z" fill="white"/>
<path d="M58.5744 35.0767C58.5744 34.6573 58.256 34.3384 57.8412 34.3384C57.4263 34.3384 57.1118 34.6573 57.1118 35.0767C57.1118 35.4962 57.4321 35.8151 57.8412 35.8151C58.2503 35.8151 58.5744 35.4962 58.5744 35.0767ZM56.7509 35.0767C56.7509 34.462 57.2353 33.9846 57.8412 33.9846C58.4471 33.9846 58.9353 34.462 58.9353 35.0767C58.9353 35.6914 58.4471 36.1688 57.8412 36.1688C57.2353 36.1688 56.7509 35.6914 56.7509 35.0767Z" fill="white"/>
<path d="M61.3222 34.841V36.1147H60.9614V34.8603C60.9614 34.5201 60.7665 34.3288 60.4481 34.3288C60.1297 34.3288 59.848 34.5239 59.848 35.013V36.1129H59.4871V34.0369H59.848V34.3365C60.0004 34.091 60.2281 33.9827 60.5195 33.9827C61.0038 33.9827 61.3241 34.3075 61.3241 34.839L61.3222 34.841Z" fill="white"/>
<path d="M93.9873 24.1886C93.9873 23.5489 93.503 23.056 92.8681 23.056C92.2333 23.056 91.7489 23.5507 91.7489 24.1886C91.7489 24.8265 92.2333 25.3175 92.8681 25.3175C93.503 25.3175 93.9873 24.8226 93.9873 24.1886ZM91.3688 24.1886C91.3688 23.3498 92.0268 22.6809 92.87 22.6809C93.7133 22.6809 94.3752 23.3498 94.3752 24.1886C94.3752 25.0276 93.7114 25.6963 92.87 25.6963C92.0287 25.6963 91.3688 25.0236 91.3688 24.1886Z" fill="white"/>
<path d="M95.9304 23.5275V23.9064C95.6198 23.8928 95.284 24.0514 95.284 24.5423V25.6421H94.9232V23.5662H95.284V23.9141C95.4171 23.6242 95.6699 23.5275 95.9304 23.5275Z" fill="white"/>
<path d="M98.0144 24.5886C98.0144 24.1731 97.6941 23.8541 97.2773 23.8541C96.8605 23.8541 96.5402 24.1731 96.5402 24.5886C96.5402 25.0042 96.8605 25.3271 97.2773 25.3271C97.6941 25.3271 98.0144 25.0082 98.0144 24.5886ZM98.3714 23.5642V25.5532C98.3714 26.2008 97.8543 26.5255 97.314 26.5255C96.8489 26.5255 96.5016 26.3476 96.3318 26.019L96.6463 25.8412C96.7409 26.0365 96.9165 26.1891 97.3217 26.1891C97.752 26.1891 98.0144 25.9437 98.0144 25.5532V25.2594C97.8485 25.5126 97.5841 25.675 97.2349 25.675C96.6463 25.675 96.1774 25.1975 96.1774 24.5906C96.1774 23.9837 96.6463 23.512 97.2349 23.512C97.5841 23.512 97.8485 23.6705 98.0144 23.9238V23.5662H98.3714V23.5642Z" fill="white"/>
<path d="M100.758 24.6022C100.758 24.1789 100.44 23.8581 100.021 23.8581C99.6026 23.8581 99.2881 24.177 99.2881 24.6022C99.2881 25.0275 99.6084 25.3444 100.021 25.3444C100.434 25.3444 100.758 25.0255 100.758 24.6022ZM101.119 23.5642V25.6402H100.758V25.2826C100.593 25.5358 100.328 25.6943 99.975 25.6943C99.3981 25.6943 98.9253 25.2168 98.9253 24.6022C98.9253 23.9875 99.3981 23.5101 99.975 23.5101C100.326 23.5101 100.593 23.6686 100.758 23.9218V23.5642H101.119Z" fill="white"/>
<path d="M103.626 24.3664V25.6403H103.265V24.3857C103.265 24.0456 103.07 23.8542 102.752 23.8542C102.433 23.8542 102.152 24.0494 102.152 24.5385V25.6383H101.791V23.5624H102.152V23.862C102.304 23.6165 102.532 23.5082 102.823 23.5082C103.307 23.5082 103.628 23.833 103.628 24.3645L103.626 24.3664Z" fill="white"/>
<path d="M104.249 23.5642H104.61V25.6403H104.249V23.5642ZM104.187 22.9457C104.187 22.8124 104.295 22.7002 104.432 22.7002C104.569 22.7002 104.674 22.8124 104.674 22.9457C104.674 23.0791 104.566 23.1873 104.432 23.1873C104.299 23.1873 104.187 23.0791 104.187 22.9457Z" fill="white"/>
<path d="M106.754 25.0719C106.754 25.4584 106.422 25.6943 105.978 25.6943C105.563 25.6943 105.274 25.4952 105.154 25.2091L105.465 25.0313C105.53 25.2304 105.721 25.3541 105.978 25.3541C106.198 25.3541 106.387 25.2748 106.387 25.0719C106.387 24.6273 105.228 24.8805 105.228 24.1287C105.228 23.7633 105.542 23.5101 105.961 23.5101C106.3 23.5101 106.574 23.6725 106.708 23.9411L106.405 24.1112C106.325 23.9237 106.144 23.8464 105.961 23.8464C105.777 23.8464 105.592 23.9373 105.592 24.1247C105.592 24.5693 106.752 24.3084 106.752 25.0719H106.754Z" fill="white"/>
<path d="M110.322 24.349V25.6403H109.961V24.3607C109.961 24.0321 109.778 23.8542 109.506 23.8542C109.216 23.8542 108.996 24.0378 108.996 24.4844V25.6383H108.635V24.3587C108.635 24.0301 108.465 23.8523 108.195 23.8523C107.925 23.8523 107.665 24.0359 107.665 24.4824V25.6364H107.304V23.5604H107.665V23.8388C107.813 23.6068 108.029 23.5063 108.282 23.5063C108.564 23.5063 108.772 23.6358 108.892 23.86C109.037 23.6242 109.272 23.5063 109.542 23.5063C110.001 23.5063 110.322 23.8252 110.322 24.3452V24.349Z" fill="white"/>
<path d="M111.198 24.4533H112.581C112.52 24.0417 112.224 23.8522 111.914 23.8522C111.524 23.8522 111.254 24.0939 111.196 24.4533H111.198ZM111.948 25.3541C112.234 25.3541 112.442 25.2208 112.545 25.0507L112.851 25.2246C112.67 25.5068 112.354 25.6943 111.941 25.6943C111.273 25.6943 110.829 25.2246 110.829 24.6022C110.829 23.9798 111.269 23.5101 111.916 23.5101C112.562 23.5101 112.948 24.0242 112.948 24.6061C112.948 24.6602 112.944 24.7143 112.936 24.7684H111.2C111.271 25.1415 111.564 25.3541 111.95 25.3541H111.948Z" fill="white"/>
<path d="M114.528 24.6023C114.528 23.9876 114.993 23.5102 115.619 23.5102C116.03 23.5102 116.377 23.7266 116.535 24.0533L116.232 24.2272C116.128 24.0069 115.897 23.8619 115.619 23.8619C115.204 23.8619 114.889 24.1809 114.889 24.6003C114.889 25.0197 115.204 25.3348 115.619 25.3348C115.9 25.3348 116.128 25.1898 116.244 24.9734L116.551 25.1512C116.377 25.4759 116.024 25.6904 115.619 25.6904C114.993 25.6904 114.528 25.213 114.528 24.5983V24.6023Z" fill="white"/>
<path d="M118.718 24.6022C118.718 24.1789 118.399 23.8581 117.981 23.8581C117.562 23.8581 117.247 24.177 117.247 24.6022C117.247 25.0275 117.568 25.3444 117.981 25.3444C118.393 25.3444 118.718 25.0255 118.718 24.6022ZM119.078 23.5642V25.6402H118.718V25.2826C118.552 25.5358 118.287 25.6943 117.934 25.6943C117.357 25.6943 116.884 25.2168 116.884 24.6022C116.884 23.9875 117.357 23.5101 117.934 23.5101C118.285 23.5101 118.552 23.6686 118.718 23.9218V23.5642H119.078Z" fill="white"/>
<path d="M121.585 24.3664V25.6403H121.224V24.3857C121.224 24.0456 121.029 23.8542 120.711 23.8542C120.393 23.8542 120.111 24.0494 120.111 24.5385V25.6383H119.75V23.5624H120.111V23.862C120.263 23.6165 120.491 23.5082 120.782 23.5082C121.267 23.5082 121.587 23.833 121.587 24.3645L121.585 24.3664Z" fill="white"/>
<path d="M123.926 24.6022C123.926 24.1789 123.607 23.8581 123.189 23.8581C122.77 23.8581 122.455 24.177 122.455 24.6022C122.455 25.0275 122.776 25.3444 123.189 25.3444C123.602 25.3444 123.926 25.0255 123.926 24.6022ZM124.287 23.5642V25.6402H123.926V25.2826C123.76 25.5358 123.495 25.6943 123.142 25.6943C122.565 25.6943 122.093 25.2168 122.093 24.6022C122.093 23.9875 122.565 23.5101 123.142 23.5101C123.494 23.5101 123.76 23.6686 123.926 23.9218V23.5642H124.287Z" fill="white"/>
<path d="M126.674 24.6041C126.674 24.1808 126.355 23.8599 125.936 23.8599C125.518 23.8599 125.203 24.1789 125.203 24.6041C125.203 25.0294 125.523 25.3464 125.936 25.3464C126.349 25.3464 126.674 25.0275 126.674 24.6041ZM127.034 22.735V25.6402H126.674V25.2826C126.508 25.5358 126.243 25.6943 125.89 25.6943C125.313 25.6943 124.84 25.2168 124.84 24.6022C124.84 23.9875 125.313 23.5101 125.89 23.5101C126.241 23.5101 126.508 23.6686 126.674 23.9218V22.735H127.034Z" fill="white"/>
<path d="M127.704 23.5642H128.065V25.6403H127.704V23.5642ZM127.642 22.9457C127.642 22.8124 127.75 22.7002 127.887 22.7002C128.024 22.7002 128.128 22.8124 128.128 22.9457C128.128 23.0791 128.02 23.1873 127.887 23.1873C127.754 23.1873 127.642 23.0791 127.642 22.9457Z" fill="white"/>
<path d="M128.993 24.4533H130.377C130.315 24.0417 130.02 23.8522 129.709 23.8522C129.319 23.8522 129.051 24.0939 128.993 24.4533ZM129.744 25.3541C130.029 25.3541 130.238 25.2208 130.34 25.0507L130.647 25.2246C130.465 25.5068 130.149 25.6943 129.736 25.6943C129.068 25.6943 128.624 25.2246 128.624 24.6022C128.624 23.9798 129.064 23.5101 129.711 23.5101C130.357 23.5101 130.743 24.0242 130.743 24.6061C130.743 24.6602 130.739 24.7143 130.732 24.7684H128.995C129.066 25.1415 129.36 25.3541 129.746 25.3541H129.744Z" fill="white"/>
<path d="M133.117 24.3664V25.6403H132.756V24.3857C132.756 24.0456 132.561 23.8542 132.243 23.8542C131.924 23.8542 131.642 24.0494 131.642 24.5385V25.6383H131.282V23.5624H131.642V23.862C131.795 23.6165 132.023 23.5082 132.314 23.5082C132.798 23.5082 133.119 23.833 133.119 24.3645L133.117 24.3664Z" fill="white"/>
<path d="M93.2 29.8405C93.2 29.4172 92.8816 29.0964 92.4629 29.0964C92.0441 29.0964 91.7296 29.4153 91.7296 29.8405C91.7296 30.2658 92.0499 30.5827 92.4629 30.5827C92.8758 30.5827 93.2 30.2638 93.2 29.8405ZM93.5608 27.9713V30.8765H93.2V30.5189C93.034 30.7722 92.7697 30.9307 92.4165 30.9307C91.8396 30.9307 91.3668 30.4533 91.3668 29.8386C91.3668 29.2239 91.8396 28.7465 92.4165 28.7465C92.7677 28.7465 93.034 28.9049 93.2 29.1582V27.9713H93.5608Z" fill="white"/>
<path d="M94.4851 29.6916H95.8687C95.807 29.28 95.5117 29.0905 95.201 29.0905C94.8113 29.0905 94.5411 29.3321 94.4832 29.6916H94.4851ZM95.2358 30.5924C95.5214 30.5924 95.7298 30.4591 95.832 30.2889L96.1389 30.4629C95.9575 30.745 95.641 30.9326 95.2281 30.9326C94.5604 30.9326 94.1166 30.4629 94.1166 29.8405C94.1166 29.218 94.5565 28.7484 95.203 28.7484C95.8494 28.7484 96.2353 29.2625 96.2353 29.8444C96.2353 29.8985 96.2315 29.9525 96.2238 30.0067H94.4871C94.5585 30.3798 94.8518 30.5924 95.2377 30.5924H95.2358Z" fill="white"/>
<path d="M98.9388 28.7658V29.1447C98.6281 29.1311 98.2924 29.2897 98.2924 29.7806V30.8804H97.9315V28.8045H98.2924V29.1524C98.4255 28.8624 98.6783 28.7658 98.9388 28.7658Z" fill="white"/>
<path d="M100.347 28.5165H100L100.332 27.9675H100.768L100.349 28.5165H100.347ZM99.5562 29.6916H100.94C100.878 29.28 100.583 29.0905 100.272 29.0905C99.8824 29.0905 99.6141 29.3321 99.5562 29.6916ZM100.307 30.5924C100.592 30.5924 100.801 30.4591 100.903 30.2889L101.21 30.4629C101.029 30.745 100.712 30.9326 100.299 30.9326C99.6315 30.9326 99.1877 30.4629 99.1877 29.8405C99.1877 29.218 99.6276 28.7484 100.274 28.7484C100.921 28.7484 101.306 29.2625 101.306 29.8444C101.306 29.8985 101.303 29.9525 101.295 30.0067H99.5582C99.6296 30.3798 99.9229 30.5924 100.309 30.5924H100.307Z" fill="white"/>
<path d="M103.558 29.8269C103.558 29.4114 103.238 29.0924 102.821 29.0924C102.404 29.0924 102.084 29.4114 102.084 29.8269C102.084 30.2425 102.404 30.5654 102.821 30.5654C103.238 30.5654 103.558 30.2465 103.558 29.8269ZM103.915 28.8025V30.7915C103.915 31.439 103.398 31.7638 102.858 31.7638C102.393 31.7638 102.045 31.5859 101.876 31.2573L102.19 31.0795C102.285 31.2747 102.46 31.4274 102.866 31.4274C103.296 31.4274 103.558 31.1819 103.558 30.7915V30.4977C103.392 30.7509 103.128 30.9133 102.779 30.9133C102.19 30.9133 101.721 30.4358 101.721 29.8289C101.721 29.222 102.19 28.7503 102.779 28.7503C103.128 28.7503 103.392 28.9088 103.558 29.162V28.8045H103.915V28.8025Z" fill="white"/>
<path d="M104.585 27.8476H104.946V30.8784H104.585V27.8476Z" fill="white"/>
<path d="M105.874 29.6916H107.257C107.196 29.28 106.9 29.0905 106.59 29.0905C106.2 29.0905 105.932 29.3321 105.874 29.6916ZM106.625 30.5924C106.91 30.5924 107.119 30.4591 107.221 30.2889L107.528 30.4629C107.346 30.745 107.03 30.9326 106.617 30.9326C105.949 30.9326 105.505 30.4629 105.505 29.8405C105.505 29.218 105.945 28.7484 106.592 28.7484C107.238 28.7484 107.624 29.2625 107.624 29.8444C107.624 29.8985 107.62 29.9525 107.613 30.0067H105.876C105.947 30.3798 106.241 30.5924 106.626 30.5924H106.625Z" fill="white"/>
<path d="M111.178 29.5872V30.8784H110.818V29.5988C110.818 29.2702 110.634 29.0923 110.362 29.0923C110.073 29.0923 109.853 29.276 109.853 29.7225V30.8764H109.492V29.5969C109.492 29.2683 109.322 29.0905 109.052 29.0905C108.782 29.0905 108.521 29.2741 108.521 29.7205V30.8746H108.161V28.7986H108.521V29.077C108.67 28.845 108.886 28.7444 109.139 28.7444C109.421 28.7444 109.627 28.874 109.749 29.0982C109.893 28.8624 110.129 28.7444 110.399 28.7444C110.858 28.7444 111.178 29.0633 111.178 29.5834V29.5872Z" fill="white"/>
<path d="M112.055 29.6916H113.438C113.376 29.28 113.081 29.0905 112.771 29.0905C112.381 29.0905 112.111 29.3321 112.053 29.6916H112.055ZM112.805 30.5924C113.091 30.5924 113.299 30.4591 113.401 30.2889L113.708 30.4629C113.527 30.745 113.21 30.9326 112.798 30.9326C112.13 30.9326 111.686 30.4629 111.686 29.8405C111.686 29.218 112.126 28.7484 112.772 28.7484C113.419 28.7484 113.805 29.2625 113.805 29.8444C113.805 29.8985 113.801 29.9525 113.793 30.0067H112.057C112.128 30.3798 112.421 30.5924 112.807 30.5924H112.805Z" fill="white"/>
<path d="M116.178 29.6027V30.8765H115.817V29.622C115.817 29.2818 115.622 29.0905 115.304 29.0905C114.986 29.0905 114.704 29.2857 114.704 29.7747V30.8746H114.343V28.7986H114.704V29.0982C114.856 28.8527 115.084 28.7444 115.376 28.7444C115.86 28.7444 116.18 29.0692 116.18 29.6007L116.178 29.6027Z" fill="white"/>
<path d="M117.38 29.1504V30.2754C117.38 30.5904 117.564 30.5711 117.932 30.5537V30.8785C117.311 30.9616 117.02 30.7953 117.02 30.2773V29.1524H116.61V28.8044H117.02V28.3309L117.38 28.2226V28.8044H117.932V29.1524H117.38V29.1504Z" fill="white"/>
<path d="M120.093 29.8405C120.093 29.4171 119.775 29.0963 119.356 29.0963C118.938 29.0963 118.623 29.4153 118.623 29.8405C118.623 30.2658 118.943 30.5827 119.356 30.5827C119.769 30.5827 120.093 30.2638 120.093 29.8405ZM120.454 28.8025V30.8785H120.093V30.5209C119.928 30.774 119.663 30.9326 119.31 30.9326C118.733 30.9326 118.26 30.4551 118.26 29.8405C118.26 29.2258 118.733 28.7484 119.31 28.7484C119.661 28.7484 119.928 28.9069 120.093 29.1601V28.8025H120.454Z" fill="white"/>
<path d="M121.701 29.1504V30.2754C121.701 30.5904 121.884 30.5711 122.253 30.5537V30.8785C121.631 30.9616 121.34 30.7953 121.34 30.2773V29.1524H120.931V28.8044H121.34V28.3309L121.701 28.2226V28.8044H122.253V29.1524H121.701V29.1504Z" fill="white"/>
<path d="M122.803 28.8024H123.164V30.8784H122.803V28.8024ZM122.741 28.1839C122.741 28.0505 122.849 27.9384 122.986 27.9384C123.123 27.9384 123.227 28.0505 123.227 28.1839C123.227 28.3173 123.119 28.4255 122.986 28.4255C122.853 28.4255 122.741 28.3173 122.741 28.1839Z" fill="white"/>
<path d="M125.547 29.8405C125.547 29.421 125.228 29.1021 124.813 29.1021C124.399 29.1021 124.084 29.421 124.084 29.8405C124.084 30.2599 124.404 30.5789 124.813 30.5789C125.222 30.5789 125.547 30.2599 125.547 29.8405ZM123.723 29.8405C123.723 29.2258 124.207 28.7484 124.813 28.7484C125.419 28.7484 125.907 29.2258 125.907 29.8405C125.907 30.4551 125.419 30.9326 124.813 30.9326C124.207 30.9326 123.723 30.4551 123.723 29.8405Z" fill="white"/>
<path d="M128.293 29.6027V30.8765H127.932V29.622C127.932 29.2818 127.737 29.0905 127.418 29.0905C127.1 29.0905 126.818 29.2857 126.818 29.7747V30.8746H126.457V28.7986H126.818V29.0982C126.971 28.8527 127.198 28.7444 127.49 28.7444C127.974 28.7444 128.294 29.0692 128.294 29.6007L128.293 29.6027Z" fill="white"/>
<path d="M93.2 35.0787C93.2 34.6553 92.8816 34.3345 92.4629 34.3345C92.0441 34.3345 91.7296 34.6535 91.7296 35.0787C91.7296 35.5039 92.0499 35.8209 92.4629 35.8209C92.8758 35.8209 93.2 35.502 93.2 35.0787ZM93.5608 33.2095V36.1147H93.2V35.7571C93.034 36.0103 92.7697 36.1688 92.4165 36.1688C91.8396 36.1688 91.3668 35.6914 91.3668 35.0767C91.3668 34.462 91.8396 33.9846 92.4165 33.9846C92.7677 33.9846 93.034 34.1431 93.2 34.3964V33.2095H93.5608Z" fill="white"/>
<path d="M94.4851 34.9279H95.8687C95.807 34.5162 95.5117 34.3267 95.201 34.3267C94.8113 34.3267 94.5411 34.5683 94.4832 34.9279H94.4851ZM95.2358 35.8286C95.5214 35.8286 95.7298 35.6953 95.832 35.5251L96.1389 35.6991C95.9575 35.9813 95.641 36.1688 95.2281 36.1688C94.5604 36.1688 94.1166 35.6991 94.1166 35.0767C94.1166 34.4543 94.5565 33.9846 95.203 33.9846C95.8494 33.9846 96.2353 34.4988 96.2353 35.0806C96.2353 35.1347 96.2315 35.1888 96.2238 35.243H94.4871C94.5585 35.616 94.8518 35.8286 95.2377 35.8286H95.2358Z" fill="white"/>
<path d="M98.1592 35.5464C98.1592 35.933 97.8273 36.1688 97.3835 36.1688C96.9686 36.1688 96.6791 35.9697 96.5595 35.6836L96.8702 35.5058C96.9358 35.7049 97.1268 35.8286 97.3835 35.8286C97.6035 35.8286 97.7926 35.7494 97.7926 35.5464C97.7926 35.1019 96.6328 35.355 96.6328 34.6032C96.6328 34.2379 96.9474 33.9846 97.3661 33.9846C97.7057 33.9846 97.9797 34.1469 98.1129 34.4157L97.8099 34.5858C97.7308 34.3982 97.5494 34.3209 97.3661 34.3209C97.1828 34.3209 96.9975 34.4118 96.9975 34.5993C96.9975 35.0439 98.1573 34.7829 98.1573 35.5464H98.1592Z" fill="white"/>
<path d="M99.8708 34.0388H100.232V36.1147H99.8708V34.0388ZM99.809 33.4203C99.809 33.2869 99.9171 33.1748 100.054 33.1748C100.191 33.1748 100.295 33.2869 100.295 33.4203C100.295 33.5536 100.187 33.6619 100.054 33.6619C99.9209 33.6619 99.809 33.5536 99.809 33.4203Z" fill="white"/>
<path d="M102.742 34.841V36.1147H102.381V34.8603C102.381 34.5201 102.186 34.3288 101.868 34.3288C101.55 34.3288 101.268 34.5239 101.268 35.013V36.1129H100.907V34.0369H101.268V34.3365C101.42 34.091 101.648 33.9827 101.939 33.9827C102.424 33.9827 102.744 34.3075 102.744 34.839L102.742 34.841Z" fill="white"/>
<path d="M105.179 34.0388L104.35 36.1147H103.927L103.097 34.0388H103.487L104.137 35.7282L104.788 34.0388H105.177H105.179Z" fill="white"/>
<path d="M105.777 34.9279H107.161C107.099 34.5162 106.804 34.3267 106.493 34.3267C106.104 34.3267 105.833 34.5683 105.776 34.9279H105.777ZM106.528 35.8286C106.814 35.8286 107.022 35.6953 107.124 35.5251L107.431 35.6991C107.25 35.9813 106.933 36.1688 106.52 36.1688C105.853 36.1688 105.409 35.6991 105.409 35.0767C105.409 34.4543 105.849 33.9846 106.495 33.9846C107.142 33.9846 107.528 34.4988 107.528 35.0806C107.528 35.1347 107.524 35.1888 107.516 35.243H105.779C105.851 35.616 106.144 35.8286 106.53 35.8286H106.528Z" fill="white"/>
<path d="M109.453 35.5464C109.453 35.933 109.122 36.1688 108.678 36.1688C108.263 36.1688 107.973 35.9697 107.854 35.6836L108.164 35.5058C108.23 35.7049 108.421 35.8286 108.678 35.8286C108.898 35.8286 109.087 35.7494 109.087 35.5464C109.087 35.1019 107.927 35.355 107.927 34.6032C107.927 34.2379 108.242 33.9846 108.66 33.9846C109 33.9846 109.274 34.1469 109.407 34.4157L109.104 34.5858C109.025 34.3982 108.844 34.3209 108.66 34.3209C108.477 34.3209 108.292 34.4118 108.292 34.5993C108.292 35.0439 109.452 34.7829 109.452 35.5464H109.453Z" fill="white"/>
<path d="M110.497 34.3885V35.5136C110.497 35.8286 110.681 35.8093 111.049 35.7919V36.1166C110.428 36.1998 110.137 36.0335 110.137 35.5155V34.3905H109.727V34.0426H110.137V33.569L110.497 33.4607V34.0426H111.049V34.3905H110.497V34.3885Z" fill="white"/>
<path d="M111.599 34.0388H111.96V36.1147H111.599V34.0388ZM111.537 33.4203C111.537 33.2869 111.645 33.1748 111.782 33.1748C111.919 33.1748 112.024 33.2869 112.024 33.4203C112.024 33.5536 111.916 33.6619 111.782 33.6619C111.649 33.6619 111.537 33.5536 111.537 33.4203Z" fill="white"/>
<path d="M114.104 35.5464C114.104 35.933 113.772 36.1688 113.328 36.1688C112.913 36.1688 112.624 35.9697 112.504 35.6836L112.815 35.5058C112.88 35.7049 113.071 35.8286 113.328 35.8286C113.548 35.8286 113.737 35.7494 113.737 35.5464C113.737 35.1019 112.577 35.355 112.577 34.6032C112.577 34.2379 112.892 33.9846 113.311 33.9846C113.65 33.9846 113.924 34.1469 114.058 34.4157L113.755 34.5858C113.675 34.3982 113.494 34.3209 113.311 34.3209C113.127 34.3209 112.942 34.4118 112.942 34.5993C112.942 35.0439 114.102 34.7829 114.102 35.5464H114.104Z" fill="white"/>
<path d="M115.997 35.5464C115.997 35.933 115.665 36.1688 115.221 36.1688C114.806 36.1688 114.517 35.9697 114.397 35.6836L114.708 35.5058C114.773 35.7049 114.964 35.8286 115.221 35.8286C115.441 35.8286 115.63 35.7494 115.63 35.5464C115.63 35.1019 114.47 35.355 114.47 34.6032C114.47 34.2379 114.785 33.9846 115.204 33.9846C115.543 33.9846 115.817 34.1469 115.951 34.4157L115.648 34.5858C115.568 34.3982 115.387 34.3209 115.204 34.3209C115.02 34.3209 114.835 34.4118 114.835 34.5993C114.835 35.0439 115.995 34.7829 115.995 35.5464H115.997Z" fill="white"/>
<path d="M116.742 34.9279H118.125C118.063 34.5162 117.768 34.3267 117.458 34.3267C117.068 34.3267 116.8 34.5683 116.742 34.9279ZM117.492 35.8286C117.778 35.8286 117.986 35.6953 118.089 35.5251L118.395 35.6991C118.214 35.9813 117.898 36.1688 117.485 36.1688C116.817 36.1688 116.373 35.6991 116.373 35.0767C116.373 34.4543 116.813 33.9846 117.46 33.9846C118.106 33.9846 118.492 34.4988 118.492 35.0806C118.492 35.1347 118.488 35.1888 118.48 35.243H116.744C116.815 35.616 117.108 35.8286 117.494 35.8286H117.492Z" fill="white"/>
<path d="M122.046 34.8235V36.1147H121.685V34.8352C121.685 34.5066 121.502 34.3288 121.23 34.3288C120.941 34.3288 120.721 34.5124 120.721 34.9588V36.1129H120.36V34.8332C120.36 34.5046 120.19 34.3268 119.92 34.3268C119.65 34.3268 119.389 34.5104 119.389 34.957V36.1109H119.028V34.035H119.389V34.3133C119.538 34.0813 119.754 33.9808 120.007 33.9808C120.288 33.9808 120.495 34.1103 120.616 34.3346C120.761 34.0987 120.997 33.9808 121.267 33.9808C121.726 33.9808 122.046 34.2998 122.046 34.8197V34.8235Z" fill="white"/>
<path d="M122.922 34.9279H124.306C124.244 34.5162 123.949 34.3267 123.638 34.3267C123.248 34.3267 122.978 34.5683 122.92 34.9279H122.922ZM123.673 35.8286C123.959 35.8286 124.167 35.6953 124.269 35.5251L124.576 35.6991C124.395 35.9813 124.078 36.1688 123.665 36.1688C122.998 36.1688 122.554 35.6991 122.554 35.0767C122.554 34.4543 122.994 33.9846 123.64 33.9846C124.287 33.9846 124.673 34.4988 124.673 35.0806C124.673 35.1347 124.669 35.1888 124.661 35.243H122.924C122.996 35.616 123.289 35.8286 123.675 35.8286H123.673Z" fill="white"/>
<path d="M127.046 34.841V36.1147H126.685V34.8603C126.685 34.5201 126.49 34.3288 126.172 34.3288C125.854 34.3288 125.572 34.5239 125.572 35.013V36.1129H125.211V34.0369H125.572V34.3365C125.724 34.091 125.952 33.9827 126.243 33.9827C126.728 33.9827 127.048 34.3075 127.048 34.839L127.046 34.841Z" fill="white"/>
<path d="M128.248 34.3885V35.5136C128.248 35.8286 128.431 35.8093 128.8 35.7919V36.1166C128.179 36.1998 127.887 36.0335 127.887 35.5155V34.3905H127.478V34.0426H127.887V33.569L128.248 33.4607V34.0426H128.8V34.3905H128.248V34.3885Z" fill="white"/>
<path d="M130.722 35.5464C130.722 35.933 130.39 36.1688 129.946 36.1688C129.531 36.1688 129.242 35.9697 129.122 35.6836L129.433 35.5058C129.499 35.7049 129.69 35.8286 129.946 35.8286C130.166 35.8286 130.355 35.7494 130.355 35.5464C130.355 35.1019 129.196 35.355 129.196 34.6032C129.196 34.2379 129.51 33.9846 129.929 33.9846C130.269 33.9846 130.543 34.1469 130.676 34.4157L130.373 34.5858C130.294 34.3982 130.112 34.3209 129.929 34.3209C129.746 34.3209 129.56 34.4118 129.56 34.5993C129.56 35.0439 130.72 34.7829 130.72 35.5464H130.722Z" fill="white"/>
<path d="M34.7124 11.8353C34.7124 8.06224 37.5046 5.13579 41.4006 5.13579C43.7528 5.13579 45.8291 6.33227 46.9309 8.17241L44.7446 9.44234C44.1194 8.30192 42.8709 7.6022 41.4006 7.6022C38.8824 7.6022 37.2287 9.3515 37.2287 11.8353C37.2287 14.3191 38.8824 16.051 41.4006 16.051C42.8709 16.051 44.1387 15.3513 44.7446 14.2283L46.9309 15.4982C45.8465 17.3383 43.7702 18.5348 41.4006 18.5348C37.5046 18.5348 34.7124 15.589 34.7124 11.8353Z" fill="white"/>
<path d="M51.7628 5.39289V18.2777H49.2272V5.39289H51.7628Z" fill="white"/>
<path d="M57.0539 11.5782H59.6627C60.6179 11.5782 61.4091 10.7316 61.4091 9.66465C61.4091 8.59767 60.6179 7.76845 59.6627 7.76845H57.0539V11.5782ZM58.9835 13.805H57.0539V18.2777H54.5183V5.39289H59.6627C62.0324 5.39289 63.9446 7.30648 63.9446 9.66271C63.9446 11.2825 62.9335 12.7361 61.4631 13.4184L64.3113 18.2777H61.5731L58.9816 13.805H58.9835Z" fill="white"/>
<path d="M76.6224 11.8353C76.6224 9.34956 74.8027 7.6022 72.4698 7.6022C70.1369 7.6022 68.3172 9.3515 68.3172 11.8353C68.3172 14.3191 70.1369 16.051 72.4698 16.051C74.8027 16.051 76.6224 14.3017 76.6224 11.8353ZM65.799 11.8353C65.799 8.06224 68.7572 5.13579 72.4698 5.13579C76.1824 5.13579 79.158 8.06224 79.158 11.8353C79.158 15.6084 76.1805 18.5348 72.4698 18.5348C68.7591 18.5348 65.799 15.589 65.799 11.8353Z" fill="white"/>
<path d="M84.8543 10.5093H84.8524C84.1299 10.5093 83.5441 11.0962 83.5441 11.8199V11.8218C83.5441 12.5457 84.1299 13.1323 84.8524 13.1323H84.8543C85.5769 13.1323 86.1626 12.5457 86.1626 11.8218V11.8199C86.1626 11.0962 85.5769 10.5093 84.8543 10.5093Z" fill="white"/>
<path d="M21.8224 0.657136L13.0695 9.42487C12.9055 9.58917 12.8109 9.81339 12.8109 10.0473V15.5174C12.8109 15.6914 13.0213 15.7784 13.1448 15.6566L24.9697 3.81166C25.3865 3.39415 25.6219 2.82587 25.6219 2.2344C25.6219 0.247355 23.2233 -0.748098 21.8205 0.657136H21.8224Z" fill="white"/>
<path d="M21.8224 10.9712L13.0695 19.739C12.9055 19.9033 12.8109 20.1275 12.8109 20.3614V25.8315C12.8109 26.0055 13.0213 26.0925 13.1448 25.9707L24.9697 14.1258C25.3865 13.7083 25.6219 13.14 25.6219 12.5485C25.6219 10.5615 23.2233 9.56601 21.8205 10.9712H21.8224Z" fill="white"/>
<path d="M11.5566 35.5232L0.521004 24.4688C0.187161 24.1344 0 23.6821 0 23.2105V6.99133C0 6.00941 0.794999 5.21304 1.77527 5.21304H10.5918C10.8099 5.21304 10.9874 5.39087 10.9874 5.60929V9.27991C10.9874 9.49833 10.8099 9.67616 10.5918 9.67616H4.84725C4.62918 9.67616 4.45167 9.85399 4.45167 10.0724V21.9405C4.45167 22.0449 4.49411 22.1454 4.56745 22.2208L12.5311 30.198C12.6855 30.3527 12.9344 30.3527 13.0888 30.198L21.8185 21.4534C23.2214 20.0482 25.6199 21.0437 25.6199 23.0307C25.6199 23.6222 25.3845 24.1905 24.9677 24.6079L14.0652 35.529C13.3724 36.2229 12.2474 36.2229 11.5547 35.529L11.5566 35.5232Z" fill="white"/>
<path d="M101.376 11.8353C101.376 9.34956 99.5562 7.6022 97.2233 7.6022C94.8903 7.6022 93.0707 9.3515 93.0707 11.8353C93.0707 14.3191 94.8903 16.051 97.2233 16.051C99.5562 16.051 101.376 14.3017 101.376 11.8353ZM90.5525 11.8353C90.5525 8.06224 93.5106 5.13579 97.2233 5.13579C100.936 5.13579 103.911 8.06224 103.911 11.8353C103.911 15.6084 100.934 18.5348 97.2233 18.5348C93.5126 18.5348 90.5525 15.589 90.5525 11.8353Z" fill="white"/>
<path d="M105.839 11.8353C105.839 8.06224 108.631 5.13579 112.527 5.13579C114.88 5.13579 116.956 6.33227 118.058 8.17241L115.871 9.44234C115.246 8.30192 113.998 7.6022 112.527 7.6022C110.009 7.6022 108.355 9.3515 108.355 11.8353C108.355 14.3191 110.009 16.051 112.527 16.051C113.998 16.051 115.265 15.3513 115.871 14.2283L118.058 15.4982C116.973 17.3383 114.897 18.5348 112.527 18.5348C108.631 18.5348 105.839 15.589 105.839 11.8353Z" fill="white"/>
<path d="M122.89 11.5782H125.498C126.454 11.5782 127.245 10.7316 127.245 9.66465C127.245 8.59767 126.454 7.76845 125.498 7.76845H122.89V11.5782ZM124.819 13.805H122.89V18.2777H120.354V5.39289H125.498C127.868 5.39289 129.78 7.30648 129.78 9.66271C129.78 11.2825 128.769 12.7361 127.299 13.4184L130.147 18.2777H127.409L124.817 13.805H124.819Z" fill="white"/>
<path d="M135 5.39289V18.2777H132.464V5.39289H135Z" fill="white"/>
</g>
<defs>
<clipPath id="clip0_50_12319">
<rect width="135" height="37" fill="white"/>
</clipPath>
</defs>
</svg>
