<svg width="54" height="55" viewBox="0 0 54 55" fill="none" xmlns="http://www.w3.org/2000/svg">
<path d="M20.7533 49.4001L53.9997 49.3883V11.3394H15.1084L15.1282 54.9532L20.7533 49.4001Z" fill="#89CB3E"/>
<path d="M45.2308 16.375H40.1416V36.389H45.2308V16.375Z" fill="white"/>
<path d="M37.053 21.2815H31.9639V36.291H37.053V21.2815Z" fill="white"/>
<path d="M28.8714 26.3604H23.7822V36.3654H28.8714V26.3604Z" fill="white"/>
<path d="M45.2385 39.3516H28.8555V44.3561H45.2385V39.3516Z" fill="white"/>
<path d="M15.1089 11.3392H46.811L45.7392 5.33936L7.43945 12.0055L15.1288 54.9531L15.1089 11.3392Z" fill="#0894D3"/>
<path d="M15.1089 11.3392H46.811L45.7392 5.33936L7.43945 12.0055L15.1288 54.9531L15.1089 11.3392Z" fill="#0894D3"/>
<path d="M7.43924 12.0054L38.657 6.57372L36.5452 0.844238L0 13.9766L15.1286 54.953L7.43924 12.0054Z" fill="#0654A3"/>
</svg>
