<svg width="156" height="23" viewBox="0 0 156 23" fill="none" xmlns="http://www.w3.org/2000/svg">
<g clip-path="url(#clip0_11_2517)">
<path d="M35.8332 4.12703V7.64809C35.6481 7.75399 35.463 7.85988 35.2514 7.93931C35.0398 8.01873 34.8018 8.09815 34.5638 8.1511C34.3258 8.20405 34.0878 8.25699 33.8498 8.28347C33.6118 8.30994 33.3738 8.33642 33.1622 8.33642C32.554 8.33642 32.0251 8.23052 31.5491 8.0452C31.0731 7.83341 30.6764 7.56867 30.359 7.2245C30.0417 6.88034 29.7772 6.48323 29.6186 6.03317C29.4599 5.58311 29.3541 5.10657 29.3541 4.60356C29.3541 4.07408 29.4335 3.57107 29.6186 3.12101C29.8037 2.67095 30.0681 2.27384 30.3855 1.92968C30.7028 1.58551 31.0995 1.32077 31.5491 1.13545C31.9986 0.950135 32.5011 0.844238 33.0564 0.844238C33.7176 0.844238 34.2465 0.923661 34.6696 1.08251C35.0927 1.24135 35.4365 1.47962 35.7274 1.77083L35.0398 2.51211C34.7489 2.22089 34.4316 2.03557 34.1143 1.92968C33.7969 1.82378 33.4531 1.77083 33.0829 1.77083C32.6862 1.77083 32.316 1.85026 31.9722 2.0091C31.6549 2.16794 31.364 2.35326 31.126 2.618C30.8879 2.88275 30.7028 3.17396 30.5706 3.51813C30.4384 3.86229 30.3855 4.23293 30.3855 4.63004C30.3855 5.02715 30.4648 5.39779 30.597 5.74195C30.7293 6.08612 30.9408 6.37733 31.1788 6.64207C31.4168 6.90681 31.7077 7.09213 32.0515 7.25098C32.3953 7.38335 32.7391 7.46277 33.1358 7.46277C33.4796 7.46277 33.7969 7.4363 34.1143 7.35687C34.4316 7.30393 34.6696 7.19803 34.8812 7.09213V5.10657H33.2945V4.20645H35.8332V4.12703Z" fill="white"/>
<path d="M37.5521 0.976562H38.5042V7.19798H41.7833V8.0981H37.5521V0.976562Z" fill="white"/>
<path d="M45.7501 8.2833C45.1948 8.2833 44.7188 8.1774 44.2427 7.99208C43.7932 7.80677 43.3965 7.54202 43.0791 7.19786C42.7618 6.8537 42.4974 6.45659 42.3122 6.00653C42.1271 5.55647 42.0478 5.05346 42.0478 4.52397C42.0478 3.99449 42.1271 3.49148 42.3122 3.04142C42.4974 2.59136 42.7618 2.19425 43.0791 1.85009C43.3965 1.50592 43.7932 1.24118 44.2427 1.05586C44.6923 0.870545 45.1948 0.764648 45.7501 0.764648C46.3055 0.764648 46.7815 0.870545 47.2575 1.05586C47.7071 1.24118 48.1037 1.50592 48.4211 1.85009C48.7384 2.19425 49.0029 2.59136 49.188 3.04142C49.3731 3.49148 49.4524 3.99449 49.4524 4.52397C49.4524 5.05346 49.3731 5.55647 49.188 6.00653C49.0029 6.45659 48.7384 6.8537 48.4211 7.19786C48.1037 7.54202 47.7071 7.80677 47.2575 7.99208C46.7815 8.20388 46.3055 8.2833 45.7501 8.2833ZM45.7501 7.38318C46.1468 7.38318 46.517 7.30376 46.8608 7.14491C47.1782 6.98607 47.469 6.80075 47.7071 6.53601C47.9451 6.27127 48.1302 5.98005 48.2624 5.63589C48.3946 5.29172 48.4475 4.92109 48.4475 4.52397C48.4475 4.12686 48.3946 3.75622 48.2624 3.41206C48.1302 3.0679 47.9451 2.77668 47.7071 2.51194C47.469 2.2472 47.1782 2.06188 46.8608 1.90304C46.5435 1.74419 46.1732 1.66477 45.7501 1.66477C45.3534 1.66477 44.9832 1.74419 44.6394 1.90304C44.3221 2.06188 44.0312 2.2472 43.7932 2.51194C43.5552 2.77668 43.37 3.0679 43.2378 3.41206C43.1056 3.75622 43.0527 4.12686 43.0527 4.52397C43.0527 4.92109 43.1056 5.29172 43.2378 5.63589C43.37 5.98005 43.5552 6.27127 43.7932 6.53601C44.0312 6.80075 44.3221 6.98607 44.6394 7.14491C44.9832 7.30376 45.3534 7.38318 45.7501 7.38318Z" fill="white"/>
<path d="M50.854 0.976562H53.3134C53.6307 0.976562 53.8952 1.00304 54.1596 1.08246C54.4241 1.16188 54.6621 1.26778 54.8472 1.40015C55.0323 1.53252 55.191 1.71784 55.2968 1.95611C55.4026 2.1679 55.4555 2.43264 55.4555 2.75033C55.4555 3.14744 55.3497 3.4916 55.1117 3.75635C54.8737 4.02109 54.5828 4.20641 54.239 4.3123V4.33878C54.4505 4.36525 54.6621 4.4182 54.8472 4.49762C55.0323 4.60352 55.191 4.70941 55.3232 4.86826C55.4555 5.0271 55.5612 5.21242 55.6406 5.42422C55.7199 5.63601 55.7728 5.8478 55.7728 6.08607C55.7728 6.40376 55.7199 6.69497 55.5877 6.93324C55.4555 7.17151 55.2703 7.3833 55.0588 7.54215C54.8208 7.70099 54.5563 7.83336 54.2654 7.91278C53.9745 7.99221 53.6307 8.04515 53.287 8.04515H50.854V0.976562ZM51.806 3.94166H53.1283C53.3134 3.94166 53.4721 3.91519 53.6307 3.88872C53.7894 3.86224 53.9216 3.78282 54.0539 3.7034C54.1861 3.62398 54.2654 3.51808 54.3448 3.35923C54.4241 3.22686 54.4505 3.06802 54.4505 2.85623C54.4505 2.56501 54.3712 2.32674 54.1861 2.11495C54.001 1.90316 53.7101 1.79726 53.3398 1.79726H51.8325V3.94166H51.806ZM51.806 7.25093H53.2341C53.3927 7.25093 53.5514 7.22446 53.7101 7.19798C53.8952 7.17151 54.0539 7.11856 54.2125 7.01266C54.3712 6.93324 54.5034 6.80087 54.6092 6.64203C54.715 6.48318 54.7679 6.27139 54.7679 6.03312C54.7679 5.60953 54.6357 5.29184 54.3448 5.08005C54.0803 4.86826 53.7101 4.76236 53.2341 4.76236H51.806V7.25093Z" fill="white"/>
<path d="M59.4223 0.976562H60.295L63.3361 8.0981H62.199L61.485 6.35081H58.1L57.386 8.0981H56.2488L59.4223 0.976562ZM61.1412 5.50364L59.8189 2.22085H59.7925L58.4438 5.50364H61.1412Z" fill="white"/>
<path d="M64.2617 0.976562H65.2137V7.19798H68.4929V8.0981H64.2617V0.976562Z" fill="white"/>
<path d="M74.734 0.976562H75.6067L78.6479 8.0981H77.5108L76.7967 6.35081H73.4118L72.6977 8.0981H71.5606L74.734 0.976562ZM76.4794 5.50364L75.1572 2.22085H75.1307L73.782 5.50364H76.4794Z" fill="white"/>
<path d="M79.9966 6.61532C80.1817 6.88006 80.3933 7.06538 80.6577 7.19775C80.9222 7.33012 81.2131 7.38307 81.504 7.38307C81.6627 7.38307 81.8213 7.3566 82.0064 7.30365C82.1651 7.2507 82.3238 7.17128 82.456 7.06538C82.5882 6.95949 82.694 6.85359 82.7998 6.69475C82.8791 6.5359 82.932 6.37706 82.932 6.19174C82.932 5.927 82.8527 5.7152 82.6676 5.55636C82.4824 5.42399 82.2709 5.29162 82.0064 5.18572C81.742 5.07982 81.4775 5.0004 81.1602 4.89451C80.8428 4.81508 80.5784 4.68271 80.3139 4.52387C80.0495 4.36502 79.8379 4.15323 79.6528 3.86201C79.4677 3.59727 79.3884 3.22664 79.3884 2.7501C79.3884 2.53831 79.4413 2.32652 79.5206 2.08825C79.5999 1.84998 79.7586 1.63819 79.9437 1.45287C80.1288 1.26755 80.3933 1.10871 80.6842 0.976334C81.0015 0.843964 81.3453 0.791016 81.7949 0.791016C82.1915 0.791016 82.5618 0.843964 82.9056 0.94986C83.2494 1.05576 83.5667 1.26755 83.8312 1.61171L83.0378 2.32652C82.9056 2.1412 82.7469 1.98235 82.5353 1.87645C82.3238 1.77056 82.0593 1.71761 81.7684 1.71761C81.504 1.71761 81.266 1.74408 81.1073 1.82351C80.9222 1.90293 80.79 1.98235 80.6842 2.08825C80.5784 2.19414 80.4991 2.32652 80.4462 2.43241C80.3933 2.56478 80.3933 2.67068 80.3933 2.77658C80.3933 3.06779 80.4726 3.30606 80.6577 3.4649C80.8428 3.62375 81.0544 3.75612 81.3189 3.86201C81.5833 3.96791 81.8478 4.04733 82.1651 4.12676C82.4825 4.20618 82.7469 4.31207 83.0113 4.47092C83.2758 4.60329 83.4874 4.81508 83.6725 5.05335C83.8576 5.29162 83.9369 5.63578 83.9369 6.05937C83.9369 6.40353 83.884 6.72122 83.7518 6.98596C83.6196 7.2507 83.4345 7.48897 83.2229 7.67429C83.0114 7.85961 82.7469 8.01845 82.4296 8.09787C82.1387 8.20377 81.7949 8.25672 81.4775 8.25672C81.028 8.25672 80.5784 8.1773 80.1817 8.01845C79.785 7.85961 79.4413 7.62134 79.2032 7.27718L79.9966 6.61532Z" fill="white"/>
<path d="M85.4179 6.61532C85.603 6.88006 85.8146 7.06538 86.079 7.19775C86.3435 7.33012 86.6344 7.38307 86.9253 7.38307C87.0839 7.38307 87.2426 7.3566 87.4277 7.30365C87.5864 7.2507 87.7451 7.17128 87.8773 7.06538C88.0095 6.95949 88.1153 6.85359 88.2211 6.69475C88.3004 6.5359 88.3533 6.37706 88.3533 6.19174C88.3533 5.927 88.274 5.7152 88.0888 5.55636C87.9037 5.42399 87.6922 5.29162 87.4277 5.18572C87.1633 5.07982 86.8988 5.0004 86.5815 4.89451C86.2641 4.81508 85.9997 4.68271 85.7352 4.52387C85.4708 4.36502 85.2592 4.15323 85.0741 3.86201C84.889 3.59727 84.8096 3.22664 84.8096 2.7501C84.8096 2.53831 84.8625 2.32652 84.9419 2.08825C85.0212 1.84998 85.1799 1.63819 85.365 1.45287C85.5501 1.26755 85.8146 1.10871 86.1055 0.976334C86.4228 0.843964 86.7666 0.791016 87.2161 0.791016C87.6128 0.791016 87.9831 0.843964 88.3268 0.94986C88.6706 1.05576 88.988 1.26755 89.2524 1.61171L88.4591 2.32652C88.3268 2.1412 88.1682 1.98235 87.9566 1.87645C87.7979 1.77056 87.5335 1.71761 87.269 1.71761C87.0046 1.71761 86.7666 1.74408 86.6079 1.82351C86.4228 1.90293 86.2906 1.98235 86.1848 2.08825C86.079 2.19414 85.9997 2.32652 85.9468 2.43241C85.8939 2.56478 85.8939 2.67068 85.8939 2.77658C85.8939 3.06779 85.9732 3.30606 86.1583 3.4649C86.3435 3.62375 86.555 3.75612 86.8195 3.86201C87.0839 3.96791 87.3484 4.04733 87.6657 4.12676C87.9831 4.20618 88.2475 4.31207 88.512 4.47092C88.7764 4.60329 88.988 4.81508 89.1731 5.05335C89.3582 5.29162 89.4375 5.63578 89.4375 6.05937C89.4375 6.40353 89.3847 6.72122 89.2524 6.98596C89.1202 7.2507 88.9351 7.48897 88.7235 7.67429C88.512 7.85961 88.2475 8.01845 87.9302 8.09787C87.6393 8.20377 87.2955 8.25672 86.9781 8.25672C86.5286 8.25672 86.079 8.1773 85.6823 8.01845C85.2857 7.85961 84.9419 7.62134 84.7039 7.27718L85.4179 6.61532Z" fill="white"/>
<path d="M93.9861 8.2833C93.4308 8.2833 92.9548 8.1774 92.4788 7.99208C92.0292 7.80677 91.6325 7.54202 91.3152 7.19786C90.9978 6.8537 90.7334 6.45659 90.5483 6.00653C90.3631 5.55647 90.2838 5.05346 90.2838 4.52397C90.2838 3.99449 90.3631 3.49148 90.5483 3.04142C90.7334 2.59136 90.9978 2.19425 91.3152 1.85009C91.6325 1.50592 92.0292 1.24118 92.4788 1.05586C92.9283 0.870545 93.4308 0.764648 93.9861 0.764648C94.5415 0.764648 95.0175 0.870545 95.4935 1.05586C95.9431 1.24118 96.3398 1.50592 96.6571 1.85009C96.9744 2.19425 97.2389 2.59136 97.424 3.04142C97.6091 3.49148 97.6885 3.99449 97.6885 4.52397C97.6885 5.05346 97.6091 5.55647 97.424 6.00653C97.2389 6.45659 96.9744 6.8537 96.6571 7.19786C96.3398 7.54202 95.9431 7.80677 95.4935 7.99208C95.0175 8.20388 94.515 8.2833 93.9861 8.2833ZM93.9861 7.38318C94.3828 7.38318 94.753 7.30376 95.0968 7.14491C95.4142 6.98607 95.7051 6.80075 95.9431 6.53601C96.1811 6.27127 96.3662 5.98005 96.4984 5.63589C96.6307 5.29172 96.6835 4.92109 96.6835 4.52397C96.6835 4.12686 96.6307 3.75622 96.4984 3.41206C96.3662 3.0679 96.1811 2.77668 95.9431 2.51194C95.7051 2.2472 95.4142 2.06188 95.0968 1.90304C94.7795 1.74419 94.4093 1.66477 93.9861 1.66477C93.5895 1.66477 93.2192 1.74419 92.8754 1.90304C92.5581 2.08835 92.2672 2.30015 92.0292 2.53841C91.7912 2.80316 91.6061 3.09437 91.4738 3.43854C91.3416 3.7827 91.2887 4.15334 91.2887 4.55045C91.2887 4.94756 91.3416 5.3182 91.4738 5.66236C91.6061 6.00653 91.7912 6.29774 92.0292 6.56248C92.2672 6.82722 92.5581 7.01254 92.8754 7.17139C93.1928 7.30376 93.563 7.38318 93.9861 7.38318Z" fill="white"/>
<path d="M103.956 2.51205C103.744 2.24731 103.506 2.06199 103.189 1.90314C102.872 1.77077 102.554 1.69135 102.237 1.69135C101.84 1.69135 101.47 1.77077 101.153 1.92962C100.835 2.08846 100.545 2.27378 100.307 2.53852C100.069 2.80326 99.8834 3.09448 99.7776 3.46512C99.6454 3.80928 99.5925 4.20639 99.5925 4.6035C99.5925 4.97414 99.6454 5.34478 99.7776 5.66247C99.9099 6.00663 100.069 6.29785 100.307 6.53612C100.545 6.80086 100.809 6.98618 101.153 7.14502C101.47 7.30386 101.84 7.35681 102.263 7.35681C102.66 7.35681 103.03 7.27739 103.348 7.09207C103.665 6.93323 103.93 6.69496 104.141 6.37727L104.961 6.98618C104.908 7.0656 104.802 7.17149 104.67 7.30386C104.538 7.43624 104.353 7.56861 104.141 7.72745C103.93 7.85982 103.665 7.99219 103.348 8.09809C103.03 8.20399 102.687 8.25693 102.263 8.25693C101.708 8.25693 101.206 8.15104 100.73 7.93924C100.28 7.72745 99.8834 7.43624 99.5661 7.09207C99.2487 6.74791 99.0107 6.3508 98.8256 5.90074C98.6669 5.45068 98.5612 5.02709 98.5612 4.57703C98.5612 4.02107 98.6405 3.51806 98.8256 3.04153C99.0107 2.565 99.2487 2.16788 99.5925 1.82372C99.9099 1.47956 100.307 1.21482 100.756 1.0295C101.206 0.844178 101.708 0.738281 102.263 0.738281C102.739 0.738281 103.189 0.817704 103.639 1.00302C104.088 1.18834 104.458 1.45308 104.749 1.85019L103.956 2.51205Z" fill="white"/>
<path d="M105.992 0.976562H106.944V8.0981H105.992V0.976562Z" fill="white"/>
<path d="M111.123 0.976562H111.995L115.036 8.0981H113.899L113.185 6.35081H109.8L109.086 8.0981H107.949L111.123 0.976562ZM112.842 5.50364L111.519 2.22085H111.493L110.144 5.50364H112.842Z" fill="white"/>
<path d="M116.703 1.87668H114.402V0.976562H119.955V1.87668H117.681V8.0981H116.729V1.87668H116.703Z" fill="white"/>
<path d="M120.96 0.976562H121.912V8.0981H120.96V0.976562Z" fill="white"/>
<path d="M127.043 8.2833C126.487 8.2833 126.011 8.1774 125.535 7.99208C125.086 7.80677 124.689 7.54202 124.372 7.19786C124.054 6.8537 123.79 6.45659 123.605 6.00653C123.42 5.55647 123.34 5.05346 123.34 4.52397C123.34 3.99449 123.42 3.49148 123.605 3.04142C123.79 2.59136 124.054 2.19425 124.372 1.85009C124.689 1.50592 125.086 1.24118 125.535 1.05586C125.985 0.870545 126.487 0.764648 127.043 0.764648C127.598 0.764648 128.074 0.870545 128.55 1.05586C128.999 1.24118 129.396 1.50592 129.713 1.85009C130.031 2.19425 130.295 2.59136 130.48 3.04142C130.666 3.49148 130.745 3.99449 130.745 4.52397C130.745 5.05346 130.666 5.55647 130.48 6.00653C130.295 6.45659 130.031 6.8537 129.713 7.19786C129.396 7.54202 128.999 7.80677 128.55 7.99208C128.1 8.20388 127.598 8.2833 127.043 8.2833ZM127.043 7.38318C127.439 7.38318 127.809 7.30376 128.153 7.14491C128.471 6.98607 128.761 6.80075 128.999 6.53601C129.237 6.27127 129.423 5.98005 129.555 5.63589C129.687 5.29172 129.74 4.92109 129.74 4.52397C129.74 4.12686 129.687 3.75622 129.555 3.41206C129.423 3.0679 129.237 2.77668 128.999 2.51194C128.761 2.2472 128.471 2.06188 128.153 1.90304C127.836 1.74419 127.466 1.66477 127.043 1.66477C126.646 1.66477 126.276 1.74419 125.932 1.90304C125.614 2.06188 125.324 2.2472 125.086 2.51194C124.848 2.77668 124.662 3.0679 124.53 3.41206C124.398 3.75622 124.345 4.12686 124.345 4.52397C124.345 4.92109 124.398 5.29172 124.53 5.63589C124.662 5.98005 124.848 6.27127 125.086 6.53601C125.324 6.80075 125.614 6.98607 125.932 7.14491C126.276 7.30376 126.646 7.38318 127.043 7.38318Z" fill="white"/>
<path d="M132.199 0.976562H133.469L137.383 6.82734H137.409V0.976562H138.361V8.0981H137.145L133.178 2.24732H133.151V8.0981H132.199V0.976562Z" fill="white"/>
<path d="M144.576 3.43848C145.078 3.43848 145.501 3.6238 145.792 3.96796C146.109 4.3386 146.242 4.81513 146.242 5.39756C146.242 6.21826 146.03 6.90659 145.633 7.43607C145.21 7.96555 144.708 8.23029 144.1 8.23029C143.571 8.23029 143.148 8.04497 142.857 7.70081C142.566 7.35665 142.407 6.85364 142.407 6.21826C142.407 5.42404 142.619 4.76218 143.042 4.2327C143.465 3.70322 143.967 3.43848 144.576 3.43848ZM144.576 4.1268C144.232 4.1268 143.915 4.3386 143.677 4.78866C143.412 5.21224 143.306 5.74173 143.306 6.32416C143.306 6.66832 143.386 6.95954 143.544 7.1978C143.703 7.4096 143.888 7.54197 144.1 7.54197C144.443 7.54197 144.761 7.33017 145.025 6.93306C145.29 6.53595 145.395 6.00647 145.395 5.39756C145.395 5.02692 145.316 4.70923 145.184 4.49744C145.025 4.2327 144.84 4.1268 144.576 4.1268Z" fill="white"/>
<path d="M149.336 3.59724L149.23 4.36499H148.304L147.59 10.0305H146.744L147.485 4.36499H146.744L146.85 3.59724H147.564C147.617 2.82949 147.828 2.22059 148.225 1.797C148.595 1.37341 149.098 1.16162 149.759 1.16162C150.103 1.16162 150.447 1.24104 150.843 1.37341L150.711 2.22059C150.394 2.06174 150.103 1.98232 149.838 1.98232C148.992 1.98232 148.516 2.5118 148.41 3.59724H149.336Z" fill="white"/>
<path d="M29.7772 14.2134H30.7292V21.3349H29.7772V14.2134Z" fill="white"/>
<path d="M32.4218 14.2134H33.6911L37.605 20.0906H37.6315V14.2134H38.5835V21.3349H37.367L33.4002 15.4841H33.3738V21.3349H32.4218V14.2134Z" fill="white"/>
<path d="M40.1437 14.2134H42.6296C43.132 14.2134 43.5816 14.2663 43.9518 14.3722C44.3221 14.4781 44.6659 14.637 44.9303 14.8223C45.2212 15.0076 45.4328 15.2459 45.6179 15.4841C45.803 15.7224 45.9352 15.9871 46.0675 16.2519C46.1732 16.5166 46.2526 16.7814 46.3055 17.0461C46.3584 17.3109 46.3848 17.5491 46.3848 17.7609C46.3848 18.211 46.3055 18.661 46.1203 19.0846C45.9617 19.5082 45.6972 19.8788 45.3799 20.223C45.0625 20.5672 44.6394 20.8319 44.1634 21.0172C43.6874 21.229 43.1056 21.3084 42.4709 21.3084H40.1437V14.2134ZM41.0958 20.4348H42.3122C42.7089 20.4348 43.1056 20.3818 43.4758 20.276C43.8461 20.1701 44.1634 20.0112 44.4279 19.7729C44.6923 19.5612 44.9303 19.2699 45.089 18.9522C45.2477 18.6081 45.327 18.2374 45.327 17.7874C45.327 17.5491 45.3005 17.2844 45.2212 16.9932C45.1419 16.6755 45.0096 16.4107 44.7981 16.1195C44.5865 15.8548 44.3221 15.6165 43.9518 15.4312C43.5816 15.2459 43.132 15.14 42.5502 15.14H41.0958V20.4348Z" fill="white"/>
<path d="M47.6013 14.2134H52.2027V15.1135H48.5797V17.2314H51.9647V18.1315H48.5797V20.4083H52.3878V21.3084H47.6277V14.2134H47.6013Z" fill="white"/>
<path d="M53.6043 14.2134H56.1166C56.5662 14.2134 56.9364 14.2663 57.2537 14.3987C57.5446 14.5311 57.7826 14.6899 57.9413 14.8752C58.1 15.0606 58.2322 15.2723 58.2851 15.5106C58.3644 15.7489 58.3909 15.9871 58.3909 16.1989C58.3909 16.4107 58.3644 16.649 58.2851 16.8873C58.2058 17.1255 58.1 17.3373 57.9413 17.5226C57.7826 17.708 57.5446 17.8668 57.2537 17.9992C56.9628 18.1316 56.5926 18.1845 56.1166 18.1845H54.5828V21.3349H53.6308V14.2134H53.6043ZM54.5828 17.3638H55.8521C56.0373 17.3638 56.2224 17.3373 56.4075 17.3109C56.5926 17.2844 56.7513 17.2314 56.91 17.152C57.0422 17.0726 57.1744 16.9667 57.2537 16.8078C57.3331 16.649 57.386 16.4637 57.386 16.2254C57.386 15.9871 57.3331 15.7754 57.2537 15.643C57.1744 15.4841 57.0422 15.3782 56.91 15.2988C56.7777 15.2194 56.5926 15.1664 56.4075 15.14C56.2224 15.1135 56.0373 15.087 55.8521 15.087H54.5828V17.3638Z" fill="white"/>
<path d="M59.4487 14.2134H64.0501V15.1135H60.4271V17.2314H63.8121V18.1315H60.4271V20.4083H64.2352V21.3084H59.4751V14.2134H59.4487Z" fill="white"/>
<path d="M65.4517 14.2134H66.7211L70.635 20.0906H70.6614V14.2134H71.6134V21.3349H70.397L66.4302 15.4841H66.4037V21.3349H65.4517V14.2134Z" fill="white"/>
<path d="M73.1473 14.2134H75.6331C76.1356 14.2134 76.5851 14.2663 76.9554 14.3722C77.3256 14.4781 77.6694 14.637 77.9339 14.8223C78.2248 15.0076 78.4363 15.2459 78.6214 15.4841C78.8065 15.7224 78.9388 15.9871 79.071 16.2519C79.1768 16.5166 79.2561 16.7814 79.309 17.0461C79.3619 17.3109 79.3883 17.5491 79.3883 17.7609C79.3883 18.211 79.309 18.661 79.1239 19.0846C78.9652 19.5082 78.7008 19.8788 78.3834 20.223C78.0661 20.5672 77.643 20.8319 77.1669 21.0172C76.6909 21.229 76.1091 21.3084 75.4744 21.3084H73.1473V14.2134ZM74.0993 20.4348H75.3158C75.7125 20.4348 76.1091 20.3818 76.4794 20.276C76.8496 20.1701 77.1669 20.0112 77.4314 19.7729C77.6958 19.5612 77.9338 19.2699 78.0925 18.9522C78.2512 18.6081 78.3305 18.2374 78.3305 17.7874C78.3305 17.5491 78.3041 17.2844 78.2247 16.9932C78.1454 16.6755 78.0132 16.4107 77.8016 16.1195C77.5901 15.8548 77.3256 15.6165 76.9554 15.4312C76.5851 15.2459 76.1356 15.14 75.5538 15.14H74.0993V20.4348Z" fill="white"/>
<path d="M80.6048 14.2134H85.2063V15.1135H81.5833V17.2314H84.9682V18.1315H81.5833V20.4083H85.3914V21.3084H80.6312V14.2134H80.6048Z" fill="white"/>
<path d="M86.6343 14.2134H87.9037L91.8176 20.0906H91.844V14.2134H92.7961V21.3349H91.5796L87.6128 15.4841H87.5864V21.3349H86.6343V14.2134Z" fill="white"/>
<path d="M95.8901 15.1399H93.6158V14.2397H99.1693V15.1399H96.8686V21.3613H95.9166V15.1399H95.8901Z" fill="white"/>
<path d="M105.225 14.2134H106.098L109.139 21.3349H108.002L107.288 19.5612H103.903L103.189 21.3349H102.078L105.225 14.2134ZM106.944 18.7405L105.622 15.4577H105.596L104.247 18.7405H106.944Z" fill="white"/>
<path d="M109.906 14.2134H112.392C112.894 14.2134 113.344 14.2663 113.714 14.3722C114.084 14.4781 114.428 14.637 114.693 14.8223C114.984 15.0076 115.195 15.2459 115.38 15.4841C115.565 15.7224 115.698 15.9871 115.83 16.2519C115.936 16.5166 116.015 16.7814 116.068 17.0461C116.121 17.3109 116.147 17.5491 116.147 17.7609C116.147 18.211 116.068 18.661 115.883 19.0846C115.724 19.5082 115.46 19.8788 115.142 20.223C114.825 20.5672 114.402 20.8319 113.926 21.0172C113.45 21.229 112.868 21.3084 112.233 21.3084H109.906V14.2134ZM110.858 20.4348H112.075C112.471 20.4348 112.868 20.3818 113.238 20.276C113.608 20.1701 113.926 20.0112 114.19 19.7729C114.455 19.5612 114.693 19.2699 114.851 18.9522C115.01 18.6081 115.089 18.2374 115.089 17.7874C115.089 17.5491 115.063 17.2844 114.984 16.9932C114.904 16.6755 114.772 16.4107 114.56 16.1195C114.349 15.8548 114.084 15.6165 113.714 15.4312C113.344 15.2459 112.894 15.14 112.313 15.14H110.858V20.4348Z" fill="white"/>
<path d="M116.2 14.2134H117.311L119.4 20.0112H119.426L121.595 14.2134H122.653L119.849 21.3349H118.95L116.2 14.2134Z" fill="white"/>
<path d="M123.472 14.2134H124.424V21.3349H123.472V14.2134Z" fill="white"/>
<path d="M126.355 19.8526C126.54 20.1174 126.752 20.3027 127.016 20.4351C127.281 20.5674 127.571 20.6204 127.862 20.6204C128.021 20.6204 128.18 20.5939 128.365 20.541C128.524 20.488 128.682 20.4086 128.814 20.3027C128.947 20.1968 129.052 20.0909 129.158 19.9321C129.238 19.7732 129.29 19.6144 129.29 19.429C129.29 19.1643 129.211 18.9525 129.026 18.7937C128.841 18.6613 128.629 18.5289 128.365 18.423C128.1 18.3171 127.836 18.2377 127.519 18.1318C127.201 18.0524 126.937 17.92 126.672 17.7612C126.408 17.6023 126.196 17.3905 126.011 17.0993C125.826 16.8346 125.747 16.4639 125.747 15.9874C125.747 15.7756 125.8 15.5638 125.879 15.3256C125.958 15.0873 126.117 14.8755 126.302 14.6902C126.487 14.5049 126.752 14.346 127.043 14.2136C127.36 14.0813 127.704 14.0283 128.153 14.0283C128.55 14.0283 128.92 14.0813 129.264 14.1872C129.608 14.2931 129.925 14.5049 130.19 14.849L129.396 15.5638C129.264 15.3785 129.105 15.2197 128.894 15.1138C128.682 15.0079 128.418 14.9549 128.127 14.9549C127.862 14.9549 127.624 14.9814 127.466 15.0608C127.281 15.1402 127.148 15.2197 127.043 15.3256C126.937 15.4314 126.857 15.5638 126.805 15.6697C126.752 15.8021 126.752 15.908 126.752 16.0139C126.752 16.3051 126.831 16.5434 127.016 16.7022C127.201 16.8611 127.413 16.9934 127.677 17.0993C127.942 17.2052 128.206 17.2846 128.524 17.3641C128.841 17.4435 129.105 17.5494 129.37 17.7082C129.634 17.8406 129.846 18.0524 130.031 18.2907C130.216 18.5289 130.295 18.8731 130.295 19.2967C130.295 19.6408 130.242 19.9585 130.11 20.2233C129.978 20.488 129.793 20.7263 129.581 20.9116C129.37 21.0969 129.105 21.2558 128.788 21.3352C128.497 21.4411 128.153 21.494 127.836 21.494C127.386 21.494 126.937 21.4146 126.54 21.2558C126.143 21.0969 125.8 20.8586 125.562 20.5145L126.355 19.8526Z" fill="white"/>
<path d="M134.844 21.5206C134.289 21.5206 133.813 21.4147 133.337 21.2294C132.887 21.0441 132.49 20.7793 132.173 20.4352C131.856 20.091 131.591 19.6939 131.406 19.2438C131.221 18.7938 131.142 18.2908 131.142 17.7613C131.142 17.2318 131.221 16.7288 131.406 16.2787C131.591 15.8287 131.856 15.4316 132.173 15.0874C132.49 14.7432 132.887 14.4785 133.337 14.2932C133.786 14.1078 134.289 14.002 134.844 14.002C135.399 14.002 135.875 14.1078 136.351 14.2932C136.801 14.4785 137.198 14.7432 137.515 15.0874C137.832 15.4316 138.097 15.8287 138.282 16.2787C138.467 16.7288 138.546 17.2318 138.546 17.7613C138.546 18.2908 138.467 18.7938 138.282 19.2438C138.097 19.6939 137.832 20.091 137.515 20.4352C137.198 20.7793 136.801 21.0441 136.351 21.2294C135.875 21.4412 135.373 21.5206 134.844 21.5206ZM134.844 20.6205C135.241 20.6205 135.611 20.5411 135.955 20.3822C136.272 20.2234 136.563 20.0381 136.801 19.7733C137.039 19.5086 137.224 19.2174 137.356 18.8732C137.488 18.529 137.541 18.1584 137.541 17.7613C137.541 17.3642 137.488 16.9935 137.356 16.6494C137.224 16.3052 137.039 16.014 136.801 15.7492C136.563 15.4845 136.272 15.2992 135.955 15.1403C135.637 14.9815 135.267 14.9021 134.844 14.9021C134.421 14.9021 134.077 14.9815 133.733 15.1403C133.416 15.2992 133.125 15.4845 132.887 15.7492C132.649 16.014 132.464 16.3052 132.332 16.6494C132.199 16.9935 132.147 17.3642 132.147 17.7613C132.147 18.1584 132.199 18.529 132.332 18.8732C132.464 19.2174 132.649 19.5086 132.887 19.7733C133.125 20.0381 133.416 20.2234 133.733 20.3822C134.051 20.5411 134.421 20.6205 134.844 20.6205Z" fill="white"/>
<path d="M139.816 14.2139H142.328C142.777 14.2139 143.148 14.2668 143.465 14.3992C143.756 14.5316 143.994 14.6904 144.153 14.8757C144.311 15.061 144.443 15.2728 144.496 15.5111C144.576 15.7494 144.602 15.9876 144.602 16.1994C144.602 16.4377 144.549 16.6495 144.47 16.8613C144.391 17.0731 144.285 17.2584 144.126 17.4437C143.967 17.6026 143.782 17.7614 143.571 17.8673C143.359 17.9732 143.121 18.0526 142.83 18.0791L144.84 21.3354H143.624L141.825 18.185H140.741V21.3354H139.789V14.2139H139.816ZM140.768 17.3643H142.037C142.222 17.3643 142.407 17.3378 142.592 17.3113C142.777 17.2849 142.936 17.2319 143.095 17.1525C143.227 17.0731 143.359 16.9672 143.439 16.8083C143.518 16.6495 143.571 16.4642 143.571 16.2259C143.571 15.9876 143.518 15.7758 143.439 15.6435C143.359 15.4846 143.227 15.3787 143.095 15.2993C142.963 15.2199 142.777 15.1669 142.592 15.1405C142.407 15.114 142.222 15.0875 142.037 15.0875H140.768V17.3643Z" fill="white"/>
<path d="M146.11 19.8526C146.295 20.1174 146.506 20.3027 146.771 20.4351C147.035 20.5674 147.326 20.6204 147.617 20.6204C147.776 20.6204 147.934 20.5939 148.119 20.541C148.278 20.488 148.437 20.4086 148.569 20.3027C148.701 20.1968 148.807 20.0909 148.913 19.9321C148.992 19.7732 149.045 19.6144 149.045 19.429C149.045 19.1643 148.966 18.9525 148.78 18.7937C148.595 18.6613 148.384 18.5289 148.119 18.423C147.855 18.3171 147.59 18.2377 147.273 18.1318C146.956 18.0524 146.691 17.92 146.427 17.7612C146.162 17.6023 145.951 17.3905 145.766 17.0993C145.581 16.8346 145.501 16.4639 145.501 15.9874C145.501 15.7756 145.554 15.5638 145.634 15.3256C145.713 15.0873 145.872 14.8755 146.057 14.6902C146.242 14.5049 146.506 14.346 146.797 14.2136C147.114 14.0813 147.458 14.0283 147.908 14.0283C148.304 14.0283 148.675 14.0813 149.018 14.1872C149.362 14.2931 149.68 14.5049 149.944 14.849L149.151 15.5638C149.018 15.3785 148.86 15.2197 148.648 15.1138C148.437 15.0079 148.172 14.9549 147.881 14.9549C147.617 14.9549 147.379 14.9814 147.22 15.0608C147.035 15.1402 146.903 15.2197 146.797 15.3256C146.691 15.4314 146.612 15.5638 146.559 15.6697C146.506 15.8021 146.506 15.908 146.506 16.0139C146.506 16.3051 146.586 16.5434 146.771 16.7022C146.956 16.8611 147.167 16.9934 147.432 17.0993C147.696 17.2052 147.961 17.2846 148.278 17.3641C148.595 17.4435 148.86 17.5494 149.124 17.7082C149.389 17.8406 149.6 18.0524 149.785 18.2907C149.971 18.5289 150.05 18.8731 150.05 19.2967C150.05 19.6408 149.997 19.9585 149.865 20.2233C149.733 20.488 149.547 20.7263 149.336 20.9116C149.124 21.0969 148.86 21.2558 148.542 21.3352C148.252 21.4411 147.908 21.494 147.59 21.494C147.141 21.494 146.691 21.4146 146.295 21.2558C145.898 21.0969 145.554 20.8586 145.316 20.5145L146.11 19.8526Z" fill="white"/>
<path d="M151.663 19.1113H150.817V18.7671H152.879V19.1113H152.033V21.4145H151.663V19.1113Z" fill="white"/>
<path d="M153.25 18.7935H153.779L154.625 20.8055H154.651L155.498 18.7935H156.026V21.4409H155.656V19.27L154.757 21.4409H154.519L153.62 19.27V21.4409H153.25V18.7935Z" fill="white"/>
<path d="M22.7164 11.5132C22.7164 10.0307 22.399 8.60108 21.8437 7.30385L18.8818 11.5132L21.8701 15.7226C22.399 14.4254 22.7164 12.9958 22.7164 11.5132ZM15.5762 11.5132L20.3363 4.78881C19.8603 4.20638 19.305 3.65042 18.7232 3.17389L11.4243 7.59507L4.04611 3.09446C3.43787 3.59747 2.88252 4.15343 2.38006 4.76233L7.14019 11.4868L2.38006 18.2377C2.88252 18.8466 3.43787 19.4025 4.04611 19.9055L11.4243 15.4049L18.7496 19.8526C19.3314 19.3761 19.8868 18.8201 20.3628 18.2377L15.5762 11.5132ZM11.4243 4.55054L16.2902 1.61191C14.7828 0.897112 13.1168 0.5 11.3714 0.5C9.62604 0.5 7.98644 0.897112 6.53195 1.55897L11.4243 4.55054ZM3.86099 11.5132L0.87269 7.30385C0.317342 8.60108 0 10.0042 0 11.5132C0 12.9958 0.317342 14.4254 0.87269 15.7226L3.86099 11.5132ZM6.50551 21.441C7.98644 22.1294 9.59959 22.5 11.345 22.5C13.1168 22.5 14.7828 22.1029 16.2638 21.3881L11.4243 18.4495L6.50551 21.441Z" fill="white"/>
</g>
<defs>
<clipPath id="clip0_11_2517">
<rect width="156" height="22" fill="white" transform="translate(0 0.5)"/>
</clipPath>
</defs>
</svg>
