<svg width="294" height="54" viewBox="0 0 294 54" fill="none" xmlns="http://www.w3.org/2000/svg">
<path d="M20.7117 48.458L53.8912 48.4463V10.4738H15.0781L15.0979 54L20.7117 48.458Z" fill="#89CB3E"/>
<path d="M45.14 15.4996H40.061V35.4733H45.14V15.4996Z" fill="white"/>
<path d="M36.9788 20.3962H31.8999V35.3756H36.9788V20.3962Z" fill="white"/>
<path d="M28.8138 25.4649H23.7349V35.4499H28.8138V25.4649Z" fill="white"/>
<path d="M45.1479 38.4301H28.7979V43.4245H45.1479V38.4301Z" fill="white"/>
<path d="M15.0784 10.4739H46.7168L45.6471 4.48602L7.42432 11.1387L15.0982 54L15.0784 10.4739Z" fill="#0894D3"/>
<path d="M15.0784 10.4739H46.7168L45.6471 4.48602L7.42432 11.1387L15.0982 54L15.0784 10.4739Z" fill="#0894D3"/>
<path d="M7.42428 11.1387L38.5793 5.71796L36.4717 0L0 13.106L15.0982 54L7.42428 11.1387Z" fill="#0654A3"/>
<path d="M70.6773 33.1736V43.2485H65.7886V15.6678H74.6351C80.8431 15.6678 84.7613 18.8083 84.7613 24.4403C84.7613 30.0331 80.8431 33.1736 74.6351 33.1736H70.6773ZM70.6773 19.7274V29.114H74.8689C77.8956 29.114 79.8369 27.4674 79.8369 24.4403C79.8369 21.374 77.8204 19.7274 74.6747 19.7274H70.6773Z" fill="#121321"/>
<path d="M91.6311 15.6678L95.7434 26.0868C96.7536 28.6525 97.645 31.1438 98.267 33.0211C98.8494 31.5271 99.7804 29.2665 100.751 27.0059L102.459 22.9853L105.485 15.9376H105.64C108.199 21.8003 111.265 28.6955 112.858 33.0211C114.177 29.3447 117.438 21.0298 119.494 15.6678H124.886L112.973 43.6709H112.818L107.074 30.0722C106.571 28.848 105.988 27.5456 105.561 26.3567L104.087 30.0722L98.3066 43.6709H98.1521L86.2788 15.6678H91.6311Z" fill="#121321"/>
<path d="M128.729 43.2485V15.6678H133.617V39.1889H144.987V43.2485H128.729Z" fill="#121321"/>
<path d="M169.669 19.0743C167.34 17.8853 164.392 16.8137 161.017 16.8137C153.565 16.8137 148.367 22.4456 148.367 29.4542C148.367 36.5411 153.565 42.0948 161.017 42.0948C164.471 42.0948 167.538 41.0231 169.863 39.8733V41.5981C167.847 42.6697 164.86 43.7061 161.017 43.7061C152.752 43.7061 146.58 37.3859 146.58 29.4542C146.58 21.6399 152.748 15.2023 161.017 15.2023C164.78 15.2023 167.692 16.274 169.669 17.3495V19.0743Z" fill="#121321"/>
<path d="M184.49 15.2062H184.569L196.945 43.2485H195.163L191.827 35.7002H177.196L173.896 43.2485H172.074L184.49 15.2062ZM191.205 34.2453L184.529 19.0743L177.854 34.2453H191.205Z" fill="#121321"/>
<path d="M203.585 31.3707V43.2446H201.878V15.6638H209.251C214.837 15.6638 218.252 18.6519 218.252 23.5172C218.252 28.3826 214.837 31.3707 209.251 31.3707H203.585ZM203.585 17.1227V29.9157H209.171C213.791 29.9157 216.465 27.5026 216.465 23.5172C216.465 19.5319 213.787 17.1188 209.171 17.1188H203.585V17.1227Z" fill="#121321"/>
<path d="M224.345 43.2485V15.6678H226.052V43.2485H224.345Z" fill="#121321"/>
<path d="M241.808 17.1227V43.2485H240.101V17.1227H231.369V15.6678H250.576V17.1227H241.808Z" fill="#121321"/>
<path d="M262.1 15.2062H262.179L274.556 43.2485H272.773L269.437 35.7002H254.807L251.506 43.2485H249.684L262.1 15.2062ZM268.815 34.2453L262.14 19.0743L255.464 34.2453H268.815Z" fill="#121321"/>
<path d="M279.488 43.2485V15.6678H281.196V41.7936H294V43.2485H279.488Z" fill="#121321"/>
</svg>
