<svg width="54" height="55" viewBox="0 0 54 55" fill="none" xmlns="http://www.w3.org/2000/svg">
<path d="M20.7536 48.5558L54 48.5441V10.4951H15.1087L15.1286 54.109L20.7536 48.5558Z" fill="#89CB3E"/>
<path d="M15.1087 10.495H46.8109L45.739 4.49512L7.43927 11.1612L15.1286 54.1088L15.1087 10.495Z" fill="#0894D3"/>
<path d="M15.1087 10.495H46.8109L45.739 4.49512L7.43927 11.1612L15.1286 54.1088L15.1087 10.495Z" fill="#0894D3"/>
<path d="M7.43924 11.1611L38.657 5.72948L36.5452 0L0 13.1324L15.1286 54.1087L7.43924 11.1611Z" fill="#0654A3"/>
<path d="M35.5273 39.3769H30.3527V35.2384H35.5273V39.3769ZM40.4623 26.4978C40.1036 27.2308 39.6272 27.9012 39.0344 28.5091C38.4409 29.1169 37.7855 29.6715 37.0682 30.1733C36.6693 30.4532 36.3624 30.7377 36.1487 31.0268C35.9343 31.3159 35.7873 31.6465 35.7076 32.018C35.6273 32.3894 35.5879 32.8306 35.5879 33.3417H30.3534C30.3534 32.6377 30.4078 32.039 30.5181 31.5471C30.6276 31.0551 30.8046 30.6165 31.0489 30.2299C31.2933 29.844 31.6295 29.4627 32.0583 29.0866C32.4864 28.7106 33.0254 28.2911 33.6733 27.8274C34.0722 27.5475 34.4261 27.2222 34.7351 26.8508C35.0441 26.4793 35.2904 26.0743 35.4756 25.635C35.66 25.1964 35.7519 24.74 35.7519 24.2678C35.7519 23.5539 35.545 22.9895 35.1312 22.5746C34.7174 22.1597 34.1416 21.9523 33.4038 21.9523C32.7954 21.9523 32.272 22.1163 31.8337 22.4442C31.3947 22.7722 31.1708 23.2786 31.1606 23.9636H26.0309L26.0009 23.8766C25.9812 22.6029 26.28 21.5301 26.8979 20.6568C27.5159 19.7836 28.383 19.123 29.4999 18.6745C30.6161 18.226 31.9079 18.0015 33.3732 18.0015C35.756 18.0015 37.6229 18.5566 38.9739 19.6657C40.3248 20.7754 41 22.2611 41 24.1229C41 24.9718 40.8203 25.7628 40.4616 26.4965L40.4623 26.4978Z" fill="white"/>
</svg>
