<svg width="14" height="12" viewBox="0 0 14 12" fill="none" xmlns="http://www.w3.org/2000/svg">
<path fill-rule="evenodd" clip-rule="evenodd" d="M10.5967 0.795697C10.6842 0.878614 10.7333 0.991072 10.7333 1.10833V3.31901H3.26667V1.10833C3.26667 0.991072 3.31583 0.878614 3.40335 0.795697C3.49087 0.712781 3.60957 0.666199 3.73333 0.666199H10.2667C10.3904 0.666199 10.5091 0.712781 10.5967 0.795697ZM12.5253 3.76112H1.47467C1.08356 3.76112 0.708474 3.90832 0.43192 4.17034C0.155366 4.43236 0 4.78772 0 5.15827V8.62461C0 8.74187 0.0491665 8.85433 0.136683 8.93725C0.2242 9.02016 0.342899 9.06674 0.466667 9.06674H2.83733L3.26667 6.77649C3.28654 6.67349 3.34436 6.58051 3.42982 6.51412C3.51528 6.44773 3.62283 6.41223 3.73333 6.41393H10.2667C10.3772 6.41223 10.4847 6.44773 10.5702 6.51412C10.6556 6.58051 10.7135 6.67349 10.7333 6.77649L11.1627 9.06674H13.5333C13.6571 9.06674 13.7758 9.02016 13.8633 8.93725C13.9508 8.85433 14 8.74187 14 8.62461V5.15827C14 4.78772 13.8446 4.43236 13.5681 4.17034C13.2915 3.90832 12.9164 3.76112 12.5253 3.76112ZM9.97493 7.57669C9.95216 7.47614 9.89311 7.38625 9.80793 7.32249C9.72276 7.25874 9.61679 7.22512 9.50826 7.2274H4.48226C4.37374 7.22512 4.26777 7.25874 4.1826 7.32249C4.09742 7.38625 4.03837 7.47614 4.0156 7.57669L3.30626 10.7822C3.29144 10.8475 3.29243 10.9151 3.30914 10.98C3.32586 11.0449 3.35787 11.1053 3.40278 11.1568C3.44769 11.2083 3.50432 11.2494 3.56843 11.2772C3.63254 11.305 3.70246 11.3186 3.77293 11.3172H10.2363C10.3067 11.3186 10.3767 11.305 10.4408 11.2772C10.5049 11.2494 10.5615 11.2083 10.6064 11.1568C10.6513 11.1053 10.6833 11.0449 10.7001 10.98C10.7168 10.9151 10.7178 10.8475 10.7029 10.7822L9.97493 7.57669Z" fill="#89CB3E"/>
</svg>
